<?xml version="1.0" encoding="utf-8"?>
<!-- Generator: Adobe Illustrator 23.0.5, SVG Export Plug-In . SVG Version: 6.00 Build 0)  -->
<svg version="1.1" xmlns="http://www.w3.org/2000/svg" xmlns:xlink="http://www.w3.org/1999/xlink" x="0px" y="0px"
	 viewBox="0 0 500 500" style="enable-background:new 0 0 500 500;" xml:space="preserve">
<style type="text/css">
	.st0{fill:none;}
	.st1{fill:#E0E0E0;}
	.st2{fill-rule:evenodd;clip-rule:evenodd;fill:#E0E0E0;}
	.st3{fill-rule:evenodd;clip-rule:evenodd;fill:#EBEBEB;}
	.st4{fill-rule:evenodd;clip-rule:evenodd;fill:#F5F5F5;}
	.st5{fill:#EBEBEB;}
	.st6{fill:#FAFAFA;}
	.st7{fill:#263238;}
	.st8{fill:#455A64;}
	.st9{fill:#B04AFF;}
	.st10{fill:#FFFFFF;}
	.st11{opacity:0.3;}
	.st12{fill:#C25FFF;}
	.st13{fill:#E8505B;}
	.st14{opacity:0.8;}
	.st15{opacity:0.6;}
	.st16{fill-rule:evenodd;clip-rule:evenodd;fill:#E8505B;}
	.st17{fill-rule:evenodd;clip-rule:evenodd;fill:#455A64;}
	.st18{fill:#F1D8CE;}
	.st19{fill:#D0693B;}
	.st20{fill:#AF371E;}
	.st21{fill:#FAF1ED;}
	.st22{fill:#E0A38A;}
</style>
<g id="Capa_1">
	<g id="Background_Complete">
		<g>
			<g>
				<g>
					<g>
						<path class="st0" d="M373.2,244c0.5-1.9,1.2-3.7,2.1-5.4l-2.9-4.5l6.2-6.4l4.6,2.8c1.6-1,3.4-1.8,5.3-2.3l1.1-5.2l8.9-0.1
							l1.3,5.2c1.9,0.5,3.7,1.2,5.4,2.1l4.5-2.9l6.4,6.2l-2.8,4.6c1,1.6,1.8,3.4,2.3,5.3l5.2,1.1l0.1,8.8l-5.2,1.3
							c-0.5,1.9-1.2,3.7-2.1,5.4l2.9,4.5l-6.2,6.4l-4.6-2.8c-1.6,1-3.4,1.8-5.3,2.3l-1.1,5.2l-8.9,0.1l-1.3-5.2
							c-1.9-0.5-3.7-1.2-5.4-2.1l-4.5,2.9l-6.4-6.2l2.8-4.6c-1-1.6-1.8-3.4-2.3-5.3l-5.2-1.1l-0.1-8.9L373.2,244L373.2,244z
							 M384.9,249c0.1,5.2,4.4,9.4,9.6,9.3c5.2-0.1,9.4-4.4,9.3-9.6c-0.1-5.2-4.4-9.4-9.6-9.3C389,239.5,384.8,243.8,384.9,249z"/>
					</g>
					<g>
						<g>
							<path class="st1" d="M384.9,249c0,0-0.1-0.8,0.2-2.3c0.3-1.5,1.2-3.7,3.4-5.4c1.1-0.9,2.4-1.6,4-1.9c1.6-0.3,3.4-0.3,5.1,0.3
								c0.9,0.3,1.7,0.7,2.5,1.3c0.8,0.5,1.5,1.2,2.1,2c1.2,1.6,1.9,3.6,2,5.7c0,2.1-0.6,4.2-1.8,5.8c-0.6,0.8-1.3,1.5-2,2.1
								c-0.8,0.6-1.6,1-2.4,1.4c-1.7,0.7-3.5,0.7-5.1,0.5c-1.6-0.3-3-1-4.1-1.8c-2.2-1.7-3.2-3.8-3.5-5.3
								C384.8,249.9,384.9,249,384.9,249c0.1,0,0,0.8,0.4,2.3c0.4,1.4,1.4,3.5,3.5,5c1.1,0.8,2.4,1.4,3.9,1.6
								c1.5,0.2,3.2,0.1,4.9-0.5c0.8-0.3,1.6-0.7,2.3-1.3c0.7-0.5,1.4-1.2,1.9-2c1.1-1.5,1.7-3.5,1.7-5.5c-0.1-2-0.7-3.9-1.9-5.4
								c-0.6-0.8-1.2-1.4-2-1.9c-0.7-0.5-1.5-1-2.4-1.2c-1.6-0.6-3.4-0.6-4.9-0.3c-1.5,0.3-2.8,1-3.9,1.8c-2.1,1.6-3,3.7-3.4,5.2
								C384.9,248.2,385,249,384.9,249z"/>
						</g>
					</g>
					<g>
						<g>
							<path class="st1" d="M373.2,244c0,0-0.1,0-0.3,0.1c-0.2,0.1-0.6,0.1-1,0.3c-0.9,0.2-2.2,0.6-3.9,1l0.1-0.1
								c0,2.3,0.1,5.2,0.2,8.8l-0.1-0.1c1.6,0.3,3.4,0.7,5.2,1.1l0.1,0l0,0.1c0.5,1.7,1.2,3.5,2.3,5.2l0.1,0.1l-0.1,0.1
								c-0.9,1.4-1.8,3-2.8,4.6l0-0.2c2,1.9,4.1,4,6.4,6.1l-0.3,0c1.4-0.9,2.9-1.9,4.5-2.9l0.1-0.1l0.1,0.1c1.6,0.9,3.4,1.6,5.3,2.1
								l0.1,0l0,0.1c0.4,1.6,0.8,3.4,1.3,5.2l-0.2-0.2c2.8,0,5.8-0.1,8.8-0.2l-0.2,0.2c0.3-1.6,0.7-3.4,1.1-5.2l0-0.1l0.1,0
								c1.7-0.5,3.5-1.2,5.2-2.3l0.1-0.1l0.1,0.1c1.4,0.9,3,1.8,4.6,2.8l-0.3,0c1.9-2,4-4.2,6.2-6.4l0,0.3c-0.9-1.4-1.9-2.9-2.9-4.5
								l-0.1-0.1l0.1-0.1c0.9-1.6,1.6-3.4,2.1-5.3l0,0l0-0.2l0.2,0c1.7-0.4,3.5-0.8,5.2-1.3l-0.2,0.3c0-3-0.1-5.9-0.1-8.8l0.2,0.2
								c-1.8-0.4-3.5-0.7-5.2-1.1l-0.2,0l0-0.1c-0.5-1.9-1.3-3.6-2.3-5.2l-0.1-0.1l0.1-0.1c0.9-1.5,1.9-3.1,2.8-4.6l0,0.3
								c-2.2-2.1-4.3-4.2-6.4-6.2l0.3,0c-1.5,1-3,2-4.5,2.9l-0.1,0.1l-0.1-0.1c-1.7-1-3.5-1.7-5.3-2.1l-0.1,0l0-0.1
								c-0.4-1.8-0.8-3.5-1.3-5.2l0.2,0.2c-3.1,0-6.1,0.1-8.9,0.1l0.2-0.2c-0.4,1.8-0.8,3.6-1.1,5.2l0,0.1l-0.1,0
								c-2,0.6-3.7,1.3-5.3,2.3l-0.1,0.1l-0.1-0.1c-1.7-1-3.2-1.9-4.6-2.8l0.2,0c-2.4,2.5-4.4,4.5-6.2,6.3l0-0.1
								c1.2,1.8,2.1,3.3,2.9,4.5l0,0l0,0c-1,1.7-1.5,3.1-1.8,4c-0.1,0.4-0.2,0.8-0.3,1C373.3,243.9,373.2,244,373.2,244
								s0-0.1,0.1-0.4c0.1-0.2,0.1-0.6,0.3-1c0.3-0.9,0.8-2.3,1.7-4l0,0.1c-0.8-1.2-1.8-2.7-3-4.5l-0.1-0.1l0.1-0.1
								c1.7-1.8,3.8-3.9,6.1-6.4l0.1-0.1l0.1,0.1c1.4,0.9,2.9,1.8,4.6,2.8h-0.2c1.6-0.9,3.3-1.8,5.3-2.3l-0.1,0.1
								c0.3-1.7,0.7-3.4,1.1-5.2l0-0.2l0.2,0c2.8-0.1,5.7-0.1,8.8-0.2l0.2,0l0,0.2c0.4,1.7,0.8,3.4,1.3,5.2l-0.2-0.2
								c1.9,0.5,3.7,1.2,5.4,2.1l-0.2,0c1.5-1,3-1.9,4.5-2.9l0.2-0.1l0.1,0.1c2.1,2,4.2,4.1,6.4,6.1l0.1,0.1l-0.1,0.2
								c-0.9,1.5-1.8,3-2.8,4.6v-0.3c1,1.6,1.8,3.5,2.3,5.4l-0.2-0.2c1.7,0.4,3.5,0.7,5.2,1.1l0.2,0l0,0.2c0,2.9,0.1,5.9,0.1,8.8
								l0,0.2l-0.2,0c-1.7,0.4-3.5,0.8-5.2,1.3l0.2-0.2l0,0c-0.5,1.9-1.2,3.8-2.1,5.4l0-0.3c1,1.5,2,3.1,2.9,4.5l0.1,0.2l-0.1,0.1
								c-2.1,2.2-4.2,4.3-6.2,6.4l-0.1,0.1l-0.2-0.1c-1.6-1-3.1-1.9-4.6-2.8h0.3c-1.7,1-3.6,1.8-5.4,2.3l0.2-0.2
								c-0.4,1.8-0.8,3.6-1.1,5.2l0,0.2l-0.2,0c-3.1,0-6.1,0.1-8.9,0.1l-0.2,0l0-0.2c-0.4-1.8-0.9-3.6-1.3-5.2l0.2,0.2
								c-2-0.5-3.8-1.3-5.4-2.2l0.2,0c-1.6,1-3.1,2-4.5,2.9l-0.1,0.1l-0.1-0.1c-2.2-2.2-4.3-4.2-6.3-6.2l-0.1-0.1l0.1-0.1
								c1-1.6,1.9-3.1,2.8-4.6v0.2c-1.1-1.8-1.8-3.6-2.3-5.3l0.1,0.1c-1.9-0.4-3.6-0.8-5.2-1.1l-0.1,0l0-0.1c0-3.6-0.1-6.6-0.1-8.9
								l0-0.1l0.1,0c1.7-0.4,3-0.7,3.9-0.9c0.4-0.1,0.8-0.2,1-0.2C373.1,244,373.2,244,373.2,244z"/>
						</g>
					</g>
				</g>
			</g>
		</g>
		<g>
			<g>
				<g>
					<path class="st2" d="M114.4,219.6c0.5-2.1,1.3-4.1,2.4-6l-3.3-5l6.9-7.1l5.1,3.1c1.8-1.1,3.8-2,5.9-2.6l1.2-5.9l9.9-0.2
						l1.4,5.8c2.1,0.5,4.1,1.3,6,2.4l5-3.3l7.1,6.9l-3.1,5.1c1.1,1.8,2,3.8,2.6,5.9l5.9,1.2l0.2,9.9l-5.8,1.4
						c-0.5,2.1-1.3,4.1-2.4,6l3.3,5l-6.9,7.1l-5.1-3.1c-1.8,1.1-3.8,2-5.9,2.6l-1.2,5.9l-9.9,0.2l-1.4-5.8c-2.1-0.5-4.1-1.3-6-2.4
						l-5,3.3l-7.1-6.9l3.1-5.1c-1.1-1.8-2-3.8-2.6-5.9l-5.9-1.2l-0.2-9.9L114.4,219.6L114.4,219.6z M127.5,225.2
						c0.1,5.9,4.9,10.5,10.8,10.4c5.9-0.1,10.5-4.9,10.4-10.8c-0.1-5.9-4.9-10.5-10.8-10.4C132,214.5,127.4,219.4,127.5,225.2z"/>
				</g>
			</g>
		</g>
		<g>
			<g>
				<g>
					<path class="st2" d="M342.5,194c0.2-0.6,0.4-1.2,0.7-1.7l-0.9-1.4l2-2.1l1.5,0.9c0.5-0.3,1.1-0.6,1.7-0.7l0.4-1.7l2.9,0
						l0.4,1.7c0.6,0.2,1.2,0.4,1.7,0.7l1.4-0.9l2.1,2l-0.9,1.5c0.3,0.5,0.6,1.1,0.7,1.7l1.7,0.4l0,2.9l-1.7,0.4
						c-0.2,0.6-0.4,1.2-0.7,1.7l0.9,1.4l-2,2.1l-1.5-0.9c-0.5,0.3-1.1,0.6-1.7,0.7l-0.4,1.7l-2.9,0l-0.4-1.7
						c-0.6-0.2-1.2-0.4-1.7-0.7l-1.4,0.9l-2.1-2l0.9-1.5c-0.3-0.5-0.6-1.1-0.7-1.7l-1.7-0.4l0-2.9L342.5,194L342.5,194z
						 M346.2,195.7c0,1.7,1.4,3,3.1,3s3-1.4,3-3.1c0-1.7-1.4-3-3.1-3C347.6,192.6,346.2,194,346.2,195.7z"/>
				</g>
			</g>
		</g>
		<g>
			<g>
				<g>
					<path class="st3" d="M48.6,223.6c0.2-0.8,0.5-1.7,0.9-2.4l-1.3-2l2.8-2.8l2,1.2c0.7-0.4,1.5-0.8,2.4-1l0.5-2.3l4-0.1l0.6,2.3
						c0.8,0.2,1.7,0.5,2.4,0.9l2-1.3l2.8,2.8l-1.2,2c0.4,0.7,0.8,1.5,1,2.4l2.3,0.5l0.1,4l-2.3,0.6c-0.2,0.8-0.5,1.7-0.9,2.4l1.3,2
						l-2.8,2.8l-2-1.2c-0.7,0.4-1.5,0.8-2.4,1l-0.5,2.3l-4,0.1l-0.6-2.3c-0.8-0.2-1.7-0.5-2.4-0.9l-2,1.3l-2.8-2.8l1.2-2
						c-0.4-0.7-0.8-1.5-1-2.4l-2.3-0.5l-0.1-4L48.6,223.6L48.6,223.6z M53.8,225.9c0,2.3,2,4.2,4.3,4.2c2.3,0,4.2-2,4.2-4.3
						c0-2.3-2-4.2-4.3-4.2C55.6,221.6,53.8,223.5,53.8,225.9z"/>
				</g>
			</g>
		</g>
		<g>
			<g>
				<g>
					<path class="st3" d="M408.3,159.9c0.5-1.9,1.2-3.8,2.2-5.5l-3-4.6l6.3-6.5l4.7,2.8c1.7-1,3.5-1.8,5.4-2.3l1.1-5.4l9.1-0.1
						l1.3,5.3c1.9,0.5,3.8,1.2,5.5,2.2l4.6-3l6.5,6.3l-2.8,4.7c1,1.7,1.8,3.5,2.3,5.4l5.4,1.1l0.1,9.1l-5.3,1.3
						c-0.5,1.9-1.2,3.8-2.2,5.5l3,4.6l-6.3,6.5l-4.7-2.8c-1.7,1-3.5,1.8-5.4,2.3l-1.1,5.4l-9.1,0.1l-1.3-5.3
						c-1.9-0.5-3.8-1.2-5.5-2.2l-4.6,3l-6.5-6.3l2.8-4.7c-1-1.7-1.8-3.5-2.3-5.4l-5.4-1.1l-0.1-9.1L408.3,159.9L408.3,159.9z
						 M420.3,165c0.1,5.4,4.5,9.6,9.9,9.6c5.4-0.1,9.6-4.5,9.6-9.9c-0.1-5.4-4.5-9.6-9.9-9.6C424.5,155.3,420.2,159.7,420.3,165z"/>
				</g>
			</g>
		</g>
		<g>
			<g>
				<g>
					<path class="st4" d="M62.9,310.8c0.4-1.8,1.1-3.4,2-5l-2.7-4.1l5.7-5.9l4.2,2.6c1.5-0.9,3.2-1.6,4.9-2.1l1-4.8l8.2-0.1l1.2,4.8
						c1.8,0.4,3.4,1.1,5,2l4.1-2.7l5.9,5.7l-2.6,4.2c0.9,1.5,1.6,3.2,2.1,4.9l4.8,1l0.1,8.2l-4.8,1.2c-0.4,1.8-1.1,3.4-2,5l2.7,4.1
						l-5.7,5.9L93,333c-1.5,0.9-3.2,1.6-4.9,2.1l-1,4.8l-8.2,0.1l-1.2-4.8c-1.8-0.4-3.4-1.1-5-2l-4.1,2.7l-5.9-5.7l2.6-4.2
						c-0.9-1.5-1.6-3.2-2.1-4.9l-4.8-1l-0.1-8.2L62.9,310.8L62.9,310.8z M73.7,315.5c0.1,4.9,4.1,8.7,8.9,8.6
						c4.9-0.1,8.7-4.1,8.6-8.9c-0.1-4.9-4.1-8.7-8.9-8.6C77.5,306.6,73.7,310.6,73.7,315.5z"/>
				</g>
			</g>
		</g>
		<g>
			<g>
				<g>
					<path class="st4" d="M234.9,141.3c0.2-0.8,0.5-1.5,0.9-2.2l-1.2-1.8l2.5-2.6l1.8,1.1c0.7-0.4,1.4-0.7,2.1-0.9l0.4-2.1l3.6-0.1
						l0.5,2.1c0.8,0.2,1.5,0.5,2.2,0.9l1.8-1.2l2.6,2.5l-1.1,1.8c0.4,0.7,0.7,1.4,0.9,2.1l2.1,0.4l0.1,3.6l-2.1,0.5
						c-0.2,0.8-0.5,1.5-0.9,2.2l1.2,1.8l-2.5,2.6l-1.8-1.1c-0.7,0.4-1.4,0.7-2.1,0.9l-0.4,2.1l-3.6,0.1l-0.5-2.1
						c-0.8-0.2-1.5-0.5-2.2-0.9l-1.8,1.2l-2.6-2.5l1.1-1.8c-0.4-0.7-0.7-1.4-0.9-2.1l-2.1-0.4l-0.1-3.6L234.9,141.3L234.9,141.3z
						 M239.6,143.3c0,2.1,1.8,3.8,3.9,3.8c2.1,0,3.8-1.8,3.8-3.9s-1.8-3.8-3.9-3.8C241.2,139.4,239.6,141.2,239.6,143.3z"/>
				</g>
			</g>
		</g>
		<g>
			<g>
				<path class="st5" d="M67.4,169.2c0,0,0.6-0.1,1.8,0c0.6,0,1.3,0,2.1,0.1c0.8,0.1,1.8,0.1,2.8,0.2c2.1,0.2,4.5,0.6,7.2,1.1
					c2.7,0.6,5.6,1.4,8.5,2.5c3,1.1,5.7,2.4,8.1,3.6c2.4,1.3,4.5,2.6,6.2,3.8c0.9,0.6,1.6,1.1,2.3,1.6c0.7,0.5,1.2,0.9,1.7,1.3
					c0.9,0.7,1.4,1.2,1.3,1.2c0,0-0.5-0.3-1.5-1c-0.5-0.3-1-0.8-1.7-1.2c-0.7-0.5-1.4-1-2.3-1.6c-1.7-1.1-3.8-2.4-6.2-3.6
					c-2.4-1.2-5.1-2.5-8.1-3.5c-2.9-1.1-5.8-1.9-8.5-2.5c-2.7-0.6-5.1-1-7.1-1.2c-1-0.2-1.9-0.2-2.8-0.3c-0.8-0.1-1.5-0.1-2.1-0.2
					C68.1,169.3,67.4,169.2,67.4,169.2z"/>
			</g>
		</g>
		<g>
			<g>
				<path class="st5" d="M48.9,280.6c0,0,0.2-0.2,0.5-0.5c0.4-0.3,0.9-0.7,1.6-1.2c0.7-0.5,1.6-1.2,2.6-1.8c1-0.7,2.2-1.5,3.5-2.3
					c1.3-0.8,2.8-1.7,4.4-2.6c1.6-0.9,3.4-1.8,5.2-2.7c3.8-1.7,8-3.5,12.5-4.9c4.6-1.4,9-2.5,13.1-3.2c2-0.3,4-0.7,5.8-0.8
					c1.8-0.2,3.5-0.4,5.1-0.5c1.6-0.1,3-0.1,4.2-0.2c1.2,0,2.3,0,3.2,0c0.8,0,1.5,0.1,2,0.1c0.5,0,0.7,0,0.7,0.1c0,0-0.2,0-0.7,0
					c-0.5,0-1.2,0-2,0c-0.9,0-1.9,0-3.2,0.1c-1.2,0.1-2.6,0.1-4.2,0.2c-1.6,0.1-3.3,0.3-5.1,0.5c-1.8,0.2-3.7,0.5-5.8,0.9
					c-4,0.8-8.5,1.8-13,3.2c-4.5,1.5-8.7,3.1-12.5,4.9c-1.9,0.9-3.6,1.7-5.2,2.6c-1.6,0.8-3.1,1.7-4.4,2.5c-1.4,0.8-2.5,1.6-3.6,2.2
					c-1.1,0.7-1.9,1.3-2.6,1.8c-0.7,0.5-1.2,0.8-1.7,1.1C49.1,280.5,48.9,280.6,48.9,280.6z"/>
			</g>
		</g>
		<g>
			<g>
				<path class="st5" d="M120.8,334.3c0,0,0-0.2,0.1-0.5c0.1-0.4,0.2-0.9,0.3-1.5c0.1-0.7,0.3-1.5,0.5-2.4c0.2-0.9,0.5-2,0.8-3.2
					c0.6-2.3,1.5-5.1,2.7-8.1c1.1-3,2.5-6.2,4.2-9.6c1.7-3.3,3.4-6.4,5.2-9.1c1.7-2.7,3.4-5.1,4.9-7c0.7-1,1.4-1.8,2-2.6
					c0.6-0.8,1.1-1.4,1.6-1.9c0.4-0.5,0.8-0.9,1-1.2c0.2-0.3,0.4-0.4,0.4-0.4c0,0-0.1,0.2-0.3,0.4c-0.3,0.3-0.6,0.7-1,1.2
					c-0.4,0.5-1,1.2-1.5,1.9c-0.6,0.8-1.3,1.6-2,2.6c-1.4,1.9-3.1,4.3-4.8,7c-1.7,2.7-3.4,5.8-5.1,9.1c-1.6,3.3-3,6.5-4.2,9.5
					c-1.1,3-2.1,5.7-2.8,8c-0.4,1.1-0.6,2.2-0.9,3.1c-0.3,0.9-0.5,1.7-0.6,2.4c-0.2,0.6-0.3,1.1-0.4,1.5
					C120.8,334.2,120.8,334.3,120.8,334.3z"/>
			</g>
		</g>
		<g>
			<g>
				<path class="st5" d="M256.6,59.8c0,0-0.1,0.2-0.4,0.6c-0.3,0.4-0.7,1-1.2,1.7c-0.5,0.7-1.2,1.6-1.9,2.7
					c-0.7,1.1-1.6,2.2-2.4,3.6c-0.9,1.3-1.8,2.8-2.7,4.5c-1,1.6-1.9,3.4-2.9,5.2c-2,3.7-4,7.9-5.8,12.5c-1.8,4.5-3.3,8.9-4.5,13
					c-0.6,2-1.1,4-1.5,5.8c-0.5,1.8-0.8,3.5-1.1,5.1c-0.4,1.6-0.6,3-0.8,4.2c-0.2,1.3-0.4,2.3-0.5,3.2c-0.1,0.8-0.2,1.5-0.3,2
					c-0.1,0.5-0.1,0.7-0.1,0.7c0,0,0-0.3,0-0.7c0.1-0.5,0.1-1.2,0.2-2.1c0.1-0.9,0.2-2,0.4-3.2c0.2-1.3,0.4-2.7,0.7-4.3
					c0.3-1.6,0.6-3.3,1.1-5.1c0.4-1.8,1-3.8,1.5-5.8c1.2-4.1,2.7-8.5,4.5-13.1c1.9-4.5,3.9-8.7,5.9-12.5c1-1.9,2-3.6,3-5.2
					c1-1.6,1.9-3.1,2.8-4.4c0.9-1.4,1.7-2.5,2.5-3.6c0.7-1,1.4-1.9,1.9-2.6c0.5-0.7,1-1.2,1.3-1.6C256.4,60,256.6,59.8,256.6,59.8z"
					/>
			</g>
		</g>
		<g>
			<g>
				<path class="st5" d="M346.7,163.7c0,0-0.2,0.1-0.6,0.1c-0.5,0.1-1,0.1-1.7,0.2c-0.4,0-0.8,0.1-1.3,0.2c-0.5,0.1-0.9,0.2-1.5,0.3
					c-1.1,0.2-2.3,0.4-3.6,0.8c-0.7,0.2-1.3,0.3-2.1,0.5c-0.7,0.2-1.4,0.5-2.2,0.7c-1.5,0.5-3.1,1.1-4.7,1.8
					c-3.3,1.5-6.7,3.3-10.1,5.7c-3.4,2.4-6.3,5-8.8,7.6c-1.2,1.3-2.4,2.6-3.3,3.8c-0.5,0.6-1,1.2-1.4,1.8c-0.4,0.6-0.8,1.2-1.2,1.8
					c-0.8,1.1-1.4,2.2-1.9,3.1c-0.3,0.5-0.5,0.9-0.8,1.3c-0.2,0.4-0.4,0.8-0.6,1.1c-0.3,0.6-0.6,1.1-0.8,1.6
					c-0.2,0.4-0.3,0.5-0.3,0.5c0,0,0.1-0.2,0.2-0.6c0.2-0.4,0.4-0.9,0.7-1.6c0.2-0.4,0.3-0.7,0.5-1.1c0.2-0.4,0.5-0.8,0.7-1.3
					c0.5-0.9,1.1-2,1.9-3.2c0.4-0.6,0.8-1.2,1.2-1.8c0.4-0.6,0.9-1.2,1.4-1.9c0.9-1.3,2.1-2.6,3.3-3.9c2.5-2.6,5.4-5.3,8.8-7.7
					c3.4-2.4,6.9-4.2,10.2-5.7c1.7-0.7,3.3-1.3,4.8-1.8c0.8-0.2,1.5-0.5,2.2-0.7c0.7-0.2,1.4-0.3,2.1-0.5c1.3-0.4,2.5-0.5,3.6-0.7
					c0.5-0.1,1-0.2,1.5-0.2c0.5,0,0.9-0.1,1.3-0.1c0.7-0.1,1.3-0.1,1.7-0.1C346.4,163.7,346.7,163.7,346.7,163.7z"/>
			</g>
		</g>
		<g>
			<g>
				<path class="st5" d="M420.2,223.2c0,0-0.1,0-0.3-0.1c-0.2-0.1-0.4-0.2-0.8-0.3c-0.7-0.2-1.7-0.6-2.9-1c-0.6-0.2-1.3-0.5-2.1-0.8
					c-0.8-0.3-1.6-0.5-2.5-0.8c-1.8-0.6-3.8-1.3-6.1-1.9c-1.1-0.3-2.3-0.6-3.6-1c-1.2-0.3-2.6-0.6-3.9-0.9c-2.7-0.7-5.6-1.2-8.7-1.7
					c-6.2-1-13-1.7-20.2-2c-7.2-0.2-14.1,0.1-20.3,0.7c-3.1,0.4-6.1,0.7-8.8,1.2c-1.4,0.2-2.7,0.4-4,0.7c-1.3,0.3-2.5,0.5-3.6,0.8
					c-2.3,0.4-4.4,1-6.2,1.5c-0.9,0.2-1.8,0.4-2.5,0.6c-0.8,0.2-1.5,0.4-2.1,0.6c-1.2,0.4-2.2,0.6-2.9,0.9c-0.3,0.1-0.6,0.2-0.8,0.2
					c-0.2,0-0.3,0.1-0.3,0.1c0,0,0.1,0,0.3-0.1c0.2-0.1,0.4-0.2,0.8-0.3c0.7-0.2,1.7-0.5,2.9-0.9c0.6-0.2,1.3-0.4,2.1-0.7
					c0.8-0.2,1.6-0.4,2.5-0.7c1.8-0.5,3.9-1.1,6.2-1.6c1.2-0.3,2.4-0.5,3.6-0.8c1.3-0.3,2.6-0.5,4-0.7c2.7-0.5,5.7-0.8,8.8-1.2
					c6.2-0.6,13.1-1,20.4-0.8c7.2,0.3,14.1,1,20.3,2c3.1,0.6,6,1.1,8.7,1.8c1.4,0.3,2.7,0.6,3.9,0.9c1.2,0.4,2.4,0.7,3.6,1
					c2.3,0.6,4.3,1.3,6.1,1.9c0.9,0.3,1.7,0.6,2.5,0.8c0.7,0.3,1.4,0.6,2.1,0.8c1.2,0.5,2.2,0.9,2.8,1.1c0.3,0.1,0.5,0.2,0.7,0.3
					C420.1,223.2,420.2,223.2,420.2,223.2z"/>
			</g>
		</g>
	</g>
	<g id="Speech_Bubble">
		<g>
			<g>
				<g>
					<path class="st6" d="M264.8,59.3v28.5c-6.5,6.4-29.9,29.9-29.9,29.9h29.9v22.4c0,7.9,6.4,14.4,14.3,14.5l165.5,1.6
						c8,0.1,14.6-6.4,14.6-14.5V59.3c0-8-6.5-14.5-14.5-14.5H279.2C271.2,44.9,264.8,51.3,264.8,59.3z"/>
				</g>
				<g>
					<g>
						<path class="st7" d="M264.8,59.3c0,0,0-0.5,0.1-1.6c0.1-1.1,0.4-2.7,1.3-4.6c0.4-1,1.1-2,1.8-3c0.8-1,1.8-2,3.1-2.9
							c1.3-0.9,2.8-1.6,4.5-2c1.7-0.5,3.6-0.5,5.6-0.5c15.9,0,38.9-0.1,67.2-0.1c14.2,0,29.7,0,46.4,0c8.3,0,17,0,25.9,0
							c4.4,0,9,0,13.5,0c2.3,0,4.6,0,6.9,0c1.2,0,2.3,0,3.5,0c0.6,0,1.2,0,1.8,0.1c0.6,0.1,1.2,0.1,1.8,0.3
							c4.7,1.1,8.8,4.6,10.4,9.3c0.5,1.1,0.7,2.4,0.8,3.6c0.1,1.2,0.1,2.5,0.1,3.7c0,2.4,0,4.9,0,7.3c0,9.8,0,19.9,0,30.1
							c0,10.2,0,20.6,0,31.1c0,2.6,0,5.3,0,7.9c0,1.3,0,2.7,0,4c0,1.4-0.2,2.7-0.6,4c-0.8,2.6-2.3,5-4.4,6.9c-1,0.9-2.2,1.7-3.4,2.3
							c-1.2,0.6-2.6,1-3.9,1.3c-1.3,0.2-2.6,0.2-3.9,0.2l-3.9,0c-2.6,0-5.1,0-7.7-0.1c-5.1,0-10.2-0.1-15.2-0.1
							c-10.1-0.1-20-0.2-29.8-0.3c-19.5-0.2-38.4-0.4-56.4-0.6c-18-0.2-35.2-0.4-51.3-0.5c-4.1,0-8.1-1.9-10.7-4.8
							c-2.7-2.9-4-6.9-3.9-10.7c0-7.5,0-14.7,0-21.7l0.2,0.2c-10.9,0-20.7,0-29.9,0h-0.5l0.4-0.4c12.1-12.1,22.1-22.1,29.9-29.9
							l0,0.1c0-9.3,0-16.4,0.1-21.2c0-2.4,0-4.2,0-5.5C264.7,60,264.8,59.3,264.8,59.3s0,0.6,0,1.9c0,1.2,0,3.1,0,5.5
							c0,4.8,0,12,0.1,21.2v0.1l0,0c-7.8,7.8-17.7,17.8-29.8,30l-0.1-0.4c9.1,0,19,0,29.9,0h0.2v0.2c0,6.9,0,14.2,0,21.7
							c-0.1,3.7,1.1,7.5,3.7,10.3c2.6,2.8,6.4,4.6,10.4,4.6c16.1,0.1,33.3,0.3,51.3,0.5c18,0.2,36.9,0.3,56.4,0.5
							c9.8,0.1,19.7,0.2,29.8,0.3c5,0,10.1,0.1,15.2,0.1c2.5,0,5.1,0,7.7,0.1l3.9,0c1.3,0,2.5,0,3.8-0.2c5.3-0.8,9.8-4.9,11.2-9.9
							c0.4-1.3,0.5-2.6,0.6-3.9c0-1.3,0-2.7,0-4c0-2.7,0-5.3,0-7.9c0-10.5,0-20.9,0-31.1c0-10.2,0-20.2,0-30.1c0-2.5,0-4.9,0-7.3
							c0-1.2,0-2.4-0.1-3.6c-0.2-1.2-0.4-2.3-0.8-3.4c-1.6-4.4-5.5-7.9-10-8.9c-2.2-0.6-4.6-0.4-6.9-0.4c-2.3,0-4.6,0-6.9,0
							c-4.6,0-9.1,0-13.5,0c-8.9,0-17.5,0-25.9,0c-16.7,0-32.2,0-46.4,0C320,45,297,45,281.1,45c-2,0-3.9,0-5.5,0.5
							c-1.7,0.4-3.2,1.2-4.4,2c-1.3,0.9-2.3,1.8-3.1,2.8c-0.8,1-1.4,2-1.9,2.9C264.5,57,264.9,59.4,264.8,59.3z"/>
					</g>
				</g>
			</g>
			<g>
				<path d="M347.3,128.5v1.5h-11.9v-16.8H347v1.5h-9.7v6h8.7v1.5h-8.7v6.2L347.3,128.5L347.3,128.5z"/>
				<path d="M357.5,117.4v1.7c-0.1,0-0.3,0-0.4,0c-2.6,0-4.2,1.7-4.2,4.6v6.4h-1.7v-12.6h1.6v2.5
					C353.5,118.3,355.1,117.4,357.5,117.4z"/>
				<path d="M366.9,117.4v1.7c-0.1,0-0.3,0-0.4,0c-2.6,0-4.2,1.7-4.2,4.6v6.4h-1.7v-12.6h1.6v2.5C363,118.3,364.6,117.4,366.9,117.4
					z"/>
				<path d="M368.6,123.8c0-3.7,2.7-6.4,6.4-6.4c3.7,0,6.4,2.7,6.4,6.4s-2.7,6.4-6.4,6.4C371.3,130.2,368.6,127.5,368.6,123.8z
					 M379.6,123.8c0-2.9-2-4.9-4.7-4.9c-2.7,0-4.7,2-4.7,4.9c0,2.9,2,4.9,4.7,4.9C377.7,128.7,379.6,126.7,379.6,123.8z"/>
				<path d="M391.2,117.4v1.7c-0.1,0-0.3,0-0.4,0c-2.6,0-4.2,1.7-4.2,4.6v6.4h-1.7v-12.6h1.6v2.5
					C387.3,118.3,388.9,117.4,391.2,117.4z"/>
			</g>
			<g>
				<path d="M303.9,84.5c0-7.9,6.1-13.7,14.5-13.7c8.3,0,14.5,5.8,14.5,13.7s-6.2,13.7-14.5,13.7C310,98.2,303.9,92.4,303.9,84.5z
					 M326.7,84.5c0-5-3.6-8.5-8.3-8.5c-4.7,0-8.3,3.4-8.3,8.5c0,5,3.6,8.5,8.3,8.5C323.1,93,326.7,89.5,326.7,84.5z"/>
				<path d="M335.6,87.6c0-6.1,4.7-10.5,11.2-10.5s11.2,4.4,11.2,10.5c0,6.1-4.7,10.5-11.2,10.5C340.3,98,335.6,93.7,335.6,87.6z
					 M352,87.6c0-3.5-2.2-5.6-5.2-5.6s-5.2,2.1-5.2,5.6c0,3.5,2.3,5.6,5.2,5.6S352,91.1,352,87.6z"/>
				<path d="M384,87.6c0,6.4-4.4,10.5-10.1,10.5c-2.5,0-4.6-0.8-6.1-2.5v9.5h-5.9V77.4h5.6v2.3c1.5-1.8,3.7-2.6,6.4-2.6
					C379.6,77.1,384,81.2,384,87.6z M378.1,87.6c0-3.5-2.2-5.6-5.2-5.6c-3,0-5.2,2.1-5.2,5.6c0,3.5,2.2,5.6,5.2,5.6
					C375.8,93.2,378.1,91.1,378.1,87.6z"/>
				<path d="M386,95.9l2-4.2c1.8,1.2,4.6,2,7.1,2c2.7,0,3.7-0.7,3.7-1.9c0-3.3-12.3,0.1-12.3-8.1c0-3.9,3.5-6.6,9.4-6.6
					c2.8,0,5.9,0.6,7.8,1.8l-2,4.2c-2-1.1-4-1.5-5.9-1.5c-2.6,0-3.8,0.8-3.8,1.9c0,3.5,12.3,0.1,12.3,8.1c0,3.8-3.5,6.5-9.6,6.5
					C391.4,98,387.9,97.1,386,95.9z"/>
				<path d="M407.2,94.6c0-1.9,1.5-3.4,3.6-3.4s3.6,1.4,3.6,3.4c0,1.9-1.5,3.4-3.6,3.4C408.7,98,407.2,96.5,407.2,94.6z M407.3,71.3
					h7l-1.2,17.3h-4.7L407.3,71.3z"/>
			</g>
		</g>
	</g>
	<g id="Robot">
		<g>
			<g>
				<path class="st8" d="M190.2,76.6l-0.9,0.9l-22.3-22.5l0.9-0.9c5.5-5.4,14.3-5.4,19.7,0.1l2.7,2.7
					C195.7,62.4,195.6,71.2,190.2,76.6z"/>
				<path class="st7" d="M189.2,77.6L189.2,77.6l-22.4-22.5l0,0l0.9-0.9c2.6-2.6,6.1-4.1,9.8-4.1c0,0,0,0,0.1,0
					c3.7,0,7.2,1.5,9.9,4.1l2.7,2.7c2.6,2.6,4.1,6.2,4.1,9.9c0,3.7-1.5,7.2-4.1,9.9L189.2,77.6z M166.9,55.1l22.3,22.4l0.9-0.9
					c2.6-2.6,4.1-6.1,4.1-9.8c0-3.7-1.4-7.2-4-9.9l-2.7-2.7c-2.6-2.6-6.1-4.1-9.8-4.1c0,0,0,0-0.1,0c-3.7,0-7.2,1.4-9.8,4
					L166.9,55.1z"/>
			</g>
			<g>
				<path class="st8" d="M99.4,121.3l1-0.9l21.5,23.3l-1,0.9c-5.7,5.2-14.5,4.9-19.7-0.8l-2.6-2.8C93.4,135.3,93.7,126.5,99.4,121.3
					z"/>
				<path class="st7" d="M111.4,148.3c-0.2,0-0.4,0-0.6,0c-3.7-0.1-7.2-1.7-9.7-4.5l-2.6-2.8c-2.5-2.7-3.8-6.3-3.7-10
					c0.1-3.7,1.7-7.2,4.5-9.7l1-0.9l0,0l21.5,23.3l0,0l-1,0.9C118.3,146.9,114.9,148.3,111.4,148.3z M99.4,121.3
					c-2.7,2.5-4.3,6-4.5,9.7c-0.1,3.7,1.2,7.3,3.7,10l2.6,2.8c2.5,2.7,6,4.3,9.7,4.5c0.2,0,0.4,0,0.6,0c3.5,0,6.8-1.3,9.4-3.7l1-0.9
					l-21.4-23.2L99.4,121.3z"/>
			</g>
			<g>
				
					<rect x="93.2" y="89.5" transform="matrix(0.6278 -0.7784 0.7784 0.6278 -42.5854 110.6838)" class="st8" width="2.5" height="20.7"/>
			</g>
			<g>
				<path class="st7" d="M88.2,88.3c2.2,1.8,2.5,5,0.8,7.2c-1.8,2.2-5,2.5-7.2,0.8c-2.2-1.8-2.5-5-0.8-7.2
					C82.8,86.9,86,86.5,88.2,88.3z"/>
			</g>
			<g>
				<path class="st9" d="M201.9,111.6l-47,46.6c-6.5,6.4-16.9,6.4-23.3-0.1l-29.5-29.7c-6.4-6.5-6.4-16.9,0.1-23.3l47-46.6
					c6.5-6.4,16.9-6.4,23.3,0.1L202,88.2C208.4,94.7,208.4,105.2,201.9,111.6z"/>
			</g>
			<g>
				<polygon class="st8" points="150.5,57.2 148.3,48.7 142.5,49.7 140.9,43.6 142.8,43.2 144.1,47.6 149.8,46.8 152.2,55.5 				"/>
			</g>
			<g>
				<path class="st7" d="M175.4,91.3l-40.6,40.3c-5.5,5.4-14.3,5.4-19.7-0.1l-1.9-1.9c-5.4-5.5-5.4-14.3,0.1-19.7l40.6-40.3
					c5.5-5.4,14.3-5.4,19.7,0.1l1.9,1.9C180.9,77,180.9,85.8,175.4,91.3z"/>
			</g>
			<g>
				<g>
					<path class="st7" d="M177.7,95c0,0,0.1-0.2,0.4-0.5c0.2-0.3,0.7-0.7,1.1-1.3c0.9-1.2,2.1-3.1,2.9-5.9c0.4-1.4,0.6-3,0.7-4.7
						c0-1.7-0.3-3.6-0.9-5.6c-0.6-1.9-1.7-3.9-3.1-5.7c-0.4-0.4-0.8-0.9-1.2-1.3c-0.4-0.4-0.8-0.8-1.3-1.3c-0.9-0.9-1.7-1.8-2.8-2.5
						c-2-1.5-4.5-2.7-7.2-3.3c-2.7-0.5-5.7-0.4-8.6,0.5c-1.4,0.4-2.8,1.1-4.1,1.9c-1.3,0.8-2.5,1.9-3.6,3c-2.3,2.3-4.6,4.6-7.1,7
						c-9.7,9.6-20.3,20.2-31.4,31.2c-2.7,2.8-4.5,6.3-5,10.1c-0.2,1.9-0.2,3.8,0.2,5.6c0.4,1.8,1,3.6,1.9,5.2c0.4,0.8,1,1.5,1.5,2.3
						c0.6,0.7,1.2,1.4,1.8,2c1.3,1.3,2.5,2.6,3.9,3.6c2.8,2.1,6.3,3.2,9.6,3.3c3.4,0.1,6.7-0.8,9.4-2.4c0.7-0.4,1.3-0.9,2-1.3
						c0.6-0.5,1.2-1,1.7-1.6c1.1-1.1,2.2-2.2,3.3-3.3c4.3-4.3,8.3-8.2,12-11.8c7.3-7.2,13.3-13.1,17.4-17.1c2-2,3.6-3.6,4.7-4.6
						c0.5-0.5,0.9-0.9,1.2-1.2C177.5,95.1,177.7,95,177.7,95s-0.1,0.2-0.4,0.4c-0.3,0.3-0.7,0.7-1.2,1.2c-1.1,1.1-2.7,2.7-4.7,4.7
						c-4.1,4.1-10,10-17.3,17.3c-3.6,3.6-7.6,7.6-11.9,11.9c-1.1,1.1-2.2,2.2-3.3,3.3c-0.6,0.6-1.2,1.1-1.8,1.6
						c-0.7,0.5-1.3,1-2,1.4c-2.8,1.7-6.2,2.6-9.6,2.5c-3.4-0.1-7-1.2-9.9-3.4c-1.5-1-2.7-2.4-4-3.7c-0.6-0.6-1.3-1.3-1.9-2
						c-0.6-0.7-1.1-1.5-1.6-2.3c-0.9-1.6-1.6-3.4-2-5.3c-0.4-1.9-0.4-3.8-0.2-5.8c0.4-3.9,2.3-7.6,5.1-10.4
						c11.2-11.1,21.8-21.6,31.5-31.2c2.4-2.4,4.8-4.7,7.1-7c1.1-1.2,2.4-2.2,3.7-3.1c1.3-0.8,2.8-1.5,4.2-2c2.9-0.9,6-1,8.8-0.5
						c2.8,0.6,5.3,1.8,7.4,3.4c1,0.8,1.9,1.7,2.8,2.6c0.4,0.4,0.9,0.9,1.3,1.3c0.4,0.4,0.8,0.9,1.2,1.3c1.5,1.8,2.5,3.8,3.1,5.8
						c0.6,2,0.9,3.9,0.9,5.7c0,1.8-0.3,3.4-0.7,4.8c-0.8,2.8-2.1,4.7-3,5.9c-0.4,0.6-0.9,1-1.1,1.3C177.8,94.8,177.7,95,177.7,95z"
						/>
				</g>
			</g>
			<g>
				<g>
					<g>
						<path class="st10" d="M125.8,126.4c-0.1,0-0.3-4-0.4-9c-0.1-5,0-9,0.1-9c0.1,0,0.3,4,0.4,9C126,122.4,125.9,126.4,125.8,126.4
							z"/>
					</g>
				</g>
				<g>
					<g>
						<path class="st10" d="M134.5,116.7c0,0.1-4,0.4-9,0.7c-5,0.2-9,0.3-9,0.1c0-0.1,4-0.4,9-0.7
							C130.4,116.6,134.5,116.6,134.5,116.7z"/>
					</g>
				</g>
			</g>
			<g>
				<g>
					<g>
						<path class="st10" d="M161.4,90.1c-0.1,0-0.3-4-0.4-9c-0.1-5,0-9,0.1-9s0.3,4,0.4,9C161.6,86.1,161.5,90.1,161.4,90.1z"/>
					</g>
				</g>
				<g>
					<g>
						<path class="st10" d="M170.1,80.4c0,0.1-4,0.4-9,0.7c-5,0.2-9,0.3-9,0.1c0-0.1,4-0.4,9-0.7C166.1,80.3,170.1,80.3,170.1,80.4z
							"/>
					</g>
				</g>
			</g>
			<g>
				<path class="st7" d="M144.3,36.4c2,2,2,5.2,0,7.2c-2,2-5.2,2-7.2,0s-2-5.2,0-7.2C139.1,34.4,142.3,34.4,144.3,36.4z"/>
			</g>
			<g>
				<g>
					<path class="st7" d="M156.5,156.7c0,0-0.3-0.2-0.9-0.7s-1.3-1.2-2.3-2.1c-1.9-1.8-4.5-4.3-7.3-7.1c-2.8-2.8-5.4-5.4-7.2-7.3
						c-1.8-1.9-2.9-3.1-2.8-3.2c0,0,0.3,0.3,0.8,0.8c0.6,0.6,1.4,1.3,2.2,2.1c2,1.9,4.5,4.4,7.3,7.2c2.8,2.8,5.4,5.4,7.2,7.2
						c0.8,0.9,1.6,1.6,2.1,2.2C156.3,156.3,156.5,156.6,156.5,156.7z"/>
				</g>
			</g>
			<g>
				<g>
					<path class="st7" d="M199.8,113.1c0,0-0.3-0.2-0.9-0.7s-1.3-1.2-2.3-2.1c-1.9-1.8-4.5-4.3-7.3-7.1c-2.8-2.8-5.4-5.4-7.2-7.3
						c-1.8-1.9-2.9-3.1-2.8-3.2c0,0,0.3,0.3,0.8,0.8c0.6,0.6,1.4,1.3,2.2,2.1c2,1.9,4.5,4.4,7.3,7.2c2.8,2.8,5.4,5.4,7.2,7.2
						c0.8,0.9,1.6,1.6,2.1,2.2C199.6,112.7,199.9,113,199.8,113.1z"/>
				</g>
			</g>
			<g>
				<g>
					
						<rect x="136.8" y="116.6" transform="matrix(0.7014 -0.7128 0.7128 0.7014 -36.4975 151.7632)" class="st7" width="52.2" height="5.7"/>
				</g>
			</g>
			<g>
				<path class="st7" d="M137.6,142.8c0,0.6-0.5,1.1-1.1,1c-0.6,0-1.1-0.5-1-1.1c0-0.6,0.5-1.1,1.1-1
					C137.2,141.7,137.6,142.2,137.6,142.8z"/>
			</g>
			<g>
				<path class="st7" d="M145.9,151.6c0,0.6-0.5,1.1-1.1,1c-0.6,0-1.1-0.5-1-1.1c0-0.6,0.5-1.1,1.1-1
					C145.5,150.5,146,151,145.9,151.6z"/>
			</g>
			<g>
				<path class="st7" d="M186.6,92.9c0,0.6-0.5,1.1-1.1,1c-0.6,0-1.1-0.5-1-1.1c0-0.6,0.5-1.1,1.1-1
					C186.2,91.8,186.6,92.3,186.6,92.9z"/>
			</g>
			<g>
				<path class="st7" d="M195,101.7c0,0.6-0.5,1.1-1.1,1c-0.6,0-1.1-0.5-1-1.1c0-0.6,0.5-1.1,1.1-1C194.5,100.6,195,101.1,195,101.7
					z"/>
			</g>
			<g>
				<g>
					<path class="st10" d="M105.5,144c-0.1,0-0.8-0.9-2.3-2.1c-0.8-0.6-1.7-1.2-2.7-2.1c-1-0.8-1.9-2-2.5-3.3
						c-1.3-2.7-1.3-5.6-0.8-7.5c0.2-1,0.6-1.7,0.8-2.2c0.3-0.5,0.4-0.7,0.5-0.7c0.1,0-0.6,1.1-0.9,2.9c-0.4,1.8-0.4,4.6,0.9,7.2
						c1.2,2.7,3.5,4.1,5,5.4C104.9,142.9,105.5,143.9,105.5,144z"/>
				</g>
			</g>
			<g>
				<g>
					<path class="st10" d="M148.9,63.5c0.1,0.1-10.4,10.5-23.5,23.2c-13.1,12.7-23.7,22.9-23.8,22.8c-0.1-0.1,10.4-10.5,23.5-23.2
						C138.1,73.6,148.8,63.4,148.9,63.5z"/>
				</g>
			</g>
			<g>
				<g>
					<path class="st10" d="M83.9,95.9c0,0.1-0.5,0-1.2-0.4c-0.7-0.4-1.5-1.3-1.7-2.6c-0.3-1.2,0.1-2.4,0.5-3
						c0.4-0.7,0.9-0.9,0.9-0.9c0.1,0.1-0.3,0.4-0.6,1.1c-0.3,0.7-0.6,1.7-0.4,2.8c0.2,1.1,0.9,1.9,1.4,2.4
						C83.5,95.6,84,95.8,83.9,95.9z"/>
				</g>
			</g>
			<g>
				<g>
					<path class="st10" d="M139.5,43.7c0,0.1-0.6,0-1.3-0.5c-0.7-0.5-1.5-1.5-1.7-2.9c-0.2-1.4,0.4-2.5,0.9-3.2
						c0.6-0.7,1.1-0.9,1.1-0.8c0.1,0.1-0.4,0.4-0.8,1c-0.4,0.7-0.9,1.7-0.7,2.9c0.2,1.2,0.8,2.1,1.4,2.6
						C139,43.4,139.5,43.6,139.5,43.7z"/>
				</g>
			</g>
			<g>
				<g>
					<path class="st10" d="M177.3,51.7c0,0.2-1.9,0.1-4.1,0.9c-2.2,0.8-3.5,2.3-3.6,2.1c-0.1-0.1,1.1-1.7,3.4-2.6
						C175.3,51.2,177.4,51.6,177.3,51.7z"/>
				</g>
			</g>
			<g>
				<g>
					<path class="st10" d="M135.8,158.5c-0.1,0.1-3.4-3.2-7.5-7.3c-4-4.2-7.2-7.6-7.1-7.7c0.1-0.1,3.4,3.2,7.5,7.4
						C132.7,154.9,135.9,158.4,135.8,158.5z"/>
				</g>
			</g>
		</g>
		<g>
			<g>
				<g>
					<rect x="208.4" y="398.6" class="st9" width="42.8" height="60.6"/>
				</g>
				<g>
					<path class="st7" d="M256.6,464.5h-53.5v-0.5c0-3.1,2.6-5.7,5.7-5.7h42.1c3.1,0,5.7,2.6,5.7,5.7V464.5z"/>
				</g>
				<g>
					<rect x="198.2" y="464.5" class="st9" width="65" height="9.9"/>
				</g>
				<g>
					<g>
						<g>
							<path class="st7" d="M251,452.6c0,0.1-9.5,0.3-21.2,0.3c-11.7,0-21.2-0.1-21.2-0.3s9.5-0.3,21.2-0.3
								C241.5,452.3,251,452.5,251,452.6z"/>
						</g>
					</g>
					<g>
						<g>
							<path class="st7" d="M251,445.4c0,0.1-9.5,0.3-21.2,0.3c-11.7,0-21.2-0.1-21.2-0.3c0-0.1,9.5-0.3,21.2-0.3
								C241.5,445.1,251,445.3,251,445.4z"/>
						</g>
					</g>
					<g>
						<g>
							<path class="st7" d="M251,438.3c0,0.1-9.5,0.3-21.2,0.3c-11.7,0-21.2-0.1-21.2-0.3s9.5-0.3,21.2-0.3
								C241.5,438,251,438.2,251,438.3z"/>
						</g>
					</g>
					<g>
						<g>
							<path class="st7" d="M251,431.1c0,0.1-9.5,0.3-21.2,0.3c-11.7,0-21.2-0.1-21.2-0.3c0-0.1,9.5-0.3,21.2-0.3
								C241.5,430.8,251,431,251,431.1z"/>
						</g>
					</g>
					<g>
						<g>
							<path class="st7" d="M251,424c0,0.1-9.5,0.3-21.2,0.3c-11.7,0-21.2-0.1-21.2-0.3c0-0.1,9.5-0.3,21.2-0.3
								C241.5,423.8,251,423.9,251,424z"/>
						</g>
					</g>
					<g>
						<g>
							<path class="st7" d="M251,416.8c0,0.1-9.5,0.3-21.2,0.3c-11.7,0-21.2-0.1-21.2-0.3s9.5-0.3,21.2-0.3
								C241.5,416.5,251,416.7,251,416.8z"/>
						</g>
					</g>
					<g>
						<g>
							<path class="st7" d="M251,409.7c0,0.1-9.5,0.3-21.2,0.3c-11.7,0-21.2-0.1-21.2-0.3s9.5-0.3,21.2-0.3
								C241.5,409.5,251,409.6,251,409.7z"/>
						</g>
					</g>
					<g>
						<g>
							<path class="st7" d="M251,402.5c0,0.1-9.5,0.3-21.2,0.3c-11.7,0-21.2-0.1-21.2-0.3s9.5-0.3,21.2-0.3
								C241.5,402.2,251,402.4,251,402.5z"/>
						</g>
					</g>
				</g>
				<g class="st11">
					<polygon points="208.4,407.1 251,405.9 251,399.7 208.1,399.7 					"/>
				</g>
			</g>
			<g>
				<g>
					<rect x="275.5" y="398.6" class="st12" width="42.8" height="60.6"/>
				</g>
				<g>
					<path class="st7" d="M323.6,464.5h-53.5v-0.5c0-3.1,2.6-5.7,5.7-5.7h42.1c3.1,0,5.7,2.6,5.7,5.7L323.6,464.5L323.6,464.5z"/>
				</g>
				<g>
					<rect x="265.2" y="464.5" class="st9" width="65" height="9.9"/>
				</g>
				<g>
					<g>
						<g>
							<path class="st7" d="M318,452.6c0,0.1-9.5,0.3-21.2,0.3c-11.7,0-21.2-0.1-21.2-0.3s9.5-0.3,21.2-0.3
								C308.6,452.3,318,452.5,318,452.6z"/>
						</g>
					</g>
					<g>
						<g>
							<path class="st7" d="M318,445.4c0,0.1-9.5,0.3-21.2,0.3c-11.7,0-21.2-0.1-21.2-0.3c0-0.1,9.5-0.3,21.2-0.3
								C308.6,445.1,318,445.3,318,445.4z"/>
						</g>
					</g>
					<g>
						<g>
							<path class="st7" d="M318,438.3c0,0.1-9.5,0.3-21.2,0.3c-11.7,0-21.2-0.1-21.2-0.3s9.5-0.3,21.2-0.3
								C308.6,438,318,438.2,318,438.3z"/>
						</g>
					</g>
					<g>
						<g>
							<path class="st7" d="M318,431.1c0,0.1-9.5,0.3-21.2,0.3c-11.7,0-21.2-0.1-21.2-0.3c0-0.1,9.5-0.3,21.2-0.3
								C308.6,430.8,318,431,318,431.1z"/>
						</g>
					</g>
					<g>
						<g>
							<path class="st7" d="M318,424c0,0.1-9.5,0.3-21.2,0.3c-11.7,0-21.2-0.1-21.2-0.3c0-0.1,9.5-0.3,21.2-0.3
								C308.6,423.8,318,423.9,318,424z"/>
						</g>
					</g>
					<g>
						<g>
							<path class="st7" d="M318,416.8c0,0.1-9.5,0.3-21.2,0.3c-11.7,0-21.2-0.1-21.2-0.3s9.5-0.3,21.2-0.3
								C308.6,416.5,318,416.7,318,416.8z"/>
						</g>
					</g>
					<g>
						<g>
							<path class="st7" d="M318,409.7c0,0.1-9.5,0.3-21.2,0.3c-11.7,0-21.2-0.1-21.2-0.3s9.5-0.3,21.2-0.3
								C308.6,409.5,318,409.6,318,409.7z"/>
						</g>
					</g>
					<g>
						<g>
							<path class="st7" d="M318,402.5c0,0.1-9.5,0.3-21.2,0.3c-11.7,0-21.2-0.1-21.2-0.3s9.5-0.3,21.2-0.3
								C308.6,402.2,318,402.4,318,402.5z"/>
						</g>
					</g>
				</g>
				<g class="st11">
					<polygon points="275.5,407.1 318,405.9 318,399.7 275.1,399.7 					"/>
				</g>
			</g>
			<g>
				<g>
					<g>
						<path class="st7" d="M137.8,348.1c0,0,0.4,0.4,1,1.1c0.6,0.7,1.5,1.8,2.5,3.2c2,2.8,4.5,6.8,6.6,11.6
							c2.1,4.8,3.5,9.3,4.3,12.6c0.4,1.7,0.6,3,0.8,4c0.1,0.9,0.2,1.5,0.2,1.5c0,0-0.2-0.5-0.4-1.4c-0.2-0.9-0.5-2.3-0.9-3.9
							c-0.9-3.3-2.3-7.8-4.4-12.5c-2.1-4.7-4.6-8.8-6.5-11.6c-0.9-1.4-1.7-2.5-2.3-3.3C138.1,348.6,137.8,348.1,137.8,348.1z"/>
					</g>
				</g>
				<g>
					<g>
						<path class="st7" d="M133.6,344.6c0.1-0.1,0.6,0.2,1.1,0.6c0.5,0.4,0.8,0.9,0.7,1c-0.1,0.1-0.6-0.2-1.1-0.6
							C133.8,345.1,133.5,344.7,133.6,344.6z"/>
					</g>
				</g>
				<g>
					<g>
						<path class="st7" d="M134.6,341.6c0.1-0.1,0.6,0.5,1.1,1.3c0.5,0.8,0.8,1.5,0.7,1.6s-0.6-0.5-1.1-1.3
							C134.7,342.4,134.4,341.7,134.6,341.6z"/>
					</g>
				</g>
				<g>
					<g>
						<path class="st8" d="M153.1,382.7c0,0,0-0.3,0.2-0.8c0.1-0.6,0.3-1.3,0.5-2.3c0.5-2,1.1-4.8,1.9-8.4c1.5-7.1,3.4-17,4.8-28
							c0.7-5.5,1-10.8,2.3-15.5c0.6-2.3,1.5-4.5,2.7-6.3c1.2-1.8,2.6-3.3,4-4.5c2.9-2.3,5.8-3.3,7.7-3.8c1-0.2,1.8-0.3,2.3-0.3
							c0.5,0,0.8,0,0.8,0c0,0-0.3,0.1-0.8,0.1c-0.5,0.1-1.3,0.2-2.3,0.4c-1.9,0.5-4.8,1.5-7.5,3.9c-1.4,1.1-2.7,2.6-3.9,4.4
							c-1.1,1.8-2,3.9-2.6,6.2c-1.2,4.6-1.5,9.9-2.2,15.4c-1.4,11-3.3,20.9-4.9,28c-0.8,3.5-1.5,6.4-2.1,8.4
							c-0.3,0.9-0.5,1.7-0.6,2.3C153.2,382.5,153.1,382.7,153.1,382.7z"/>
					</g>
				</g>
				<g>
					<g>
						<path class="st7" d="M154.2,303.4c0.1-0.1,0.6,1.7,2.5,3.7c1.9,2,5.4,4.1,9.6,4.7c4.2,0.6,8.1,0,10.9-0.5
							c1.3-0.2,2.4-0.4,3.3-0.6c0.8-0.1,1.2-0.2,1.2-0.2c0,0-0.4,0.2-1.2,0.4c-0.8,0.2-1.9,0.5-3.3,0.7c-2.8,0.5-6.7,1.2-11.1,0.6
							c-4.4-0.6-7.9-2.8-9.8-4.9c-1-1.1-1.6-2.1-1.9-2.8C154.3,303.9,154.2,303.4,154.2,303.4z"/>
					</g>
				</g>
				<g>
					<g>
						<path class="st7" d="M150.4,300.3c0.1-0.1,0.6,0.2,1.1,0.7c0.5,0.5,0.8,1,0.7,1.1s-0.6-0.2-1.1-0.7
							C150.7,300.8,150.3,300.4,150.4,300.3z"/>
					</g>
				</g>
				<g>
					<g>
						<path class="st7" d="M151.6,298.5c0.1-0.1,0.6,0.4,1,1.1s0.7,1.3,0.6,1.4c-0.1,0.1-0.6-0.4-1-1.1
							C151.7,299.2,151.5,298.6,151.6,298.5z"/>
					</g>
				</g>
				<g>
					<g>
						<path class="st7" d="M154.7,298.3c0.1,0,0.2,0.6,0.1,1.3c-0.1,0.7-0.3,1.3-0.5,1.2c-0.1,0-0.2-0.6-0.1-1.3
							C154.4,298.8,154.6,298.3,154.7,298.3z"/>
					</g>
				</g>
				<g>
					<g>
						<path class="st8" d="M164.1,337.3c0,0,0,0.6-0.1,1.8c-0.1,1.1-0.3,2.8-0.5,4.8c-0.5,4.1-1.3,9.7-2.6,15.8
							c-1.3,6.1-2.7,11.6-3.8,15.6c-0.6,2-1.1,3.5-1.4,4.6c-0.4,1.1-0.6,1.7-0.6,1.7c0,0,0.1-0.6,0.4-1.7c0.3-1.2,0.8-2.8,1.3-4.7
							c1.1-4,2.4-9.4,3.7-15.6c1.2-6.1,2.1-11.7,2.7-15.8c0.3-2,0.5-3.6,0.7-4.8C164,338,164.1,337.3,164.1,337.3z"/>
					</g>
				</g>
				<g>
					<g>
						<path class="st8" d="M181.9,314.2c0,0.1-1.4,0.1-3.6,0.7c-2.2,0.6-5.2,1.9-7.7,4.2c-2.6,2.4-4.1,5.2-4.8,7.4
							c-0.8,2.2-0.9,3.6-1,3.6c0,0,0-0.4,0-1c0.1-0.6,0.2-1.6,0.6-2.7c0.7-2.2,2.2-5.2,4.8-7.6c2.6-2.4,5.7-3.7,8-4.2
							c1.1-0.3,2.1-0.4,2.7-0.4C181.5,314.1,181.9,314.2,181.9,314.2z"/>
					</g>
				</g>
				<g>
					<g>
						<path class="st8" d="M157.8,382.5c0,0,0-0.3,0-0.8c0-0.5,0.1-1.2,0.3-2.1c0.3-1.8,0.7-4.6,2.4-7.6c0.8-1.5,2-2.9,2.9-4.6
							c0.5-0.9,0.9-1.8,1-2.8c0.2-1,0.2-2.1,0.1-3.2c-0.2-2.2-0.8-4.5-0.3-7c0.2-1.2,0.9-2.4,1.6-3.4c0.7-1,1.6-2,2.2-3
							c0.7-1,1.1-2.2,1.1-3.4c0-1.2-0.2-2.4-0.5-3.6c-0.6-2.3-0.8-4.7-0.6-7c0.4-4.5,2.2-8.3,4.4-10.9c2.2-2.6,4.5-4.2,6.1-5
							c0.8-0.4,1.5-0.7,2-0.9c0.5-0.2,0.7-0.2,0.7-0.2s-0.2,0.1-0.7,0.3c-0.4,0.2-1.1,0.5-1.9,1c-1.6,0.9-3.9,2.5-6,5.1
							c-2.1,2.6-3.8,6.3-4.2,10.7c-0.2,2.2,0,4.5,0.6,6.8c0.3,1.2,0.5,2.4,0.5,3.7c0,1.3-0.5,2.6-1.2,3.7c-0.7,1.1-1.6,2.1-2.3,3
							c-0.7,1-1.3,2-1.5,3.2c-0.5,2.3,0.1,4.6,0.3,6.8c0.1,1.1,0.1,2.2-0.1,3.3c-0.2,1.1-0.6,2-1.1,2.9c-1,1.7-2.2,3.2-3,4.6
							c-1.7,2.9-2.1,5.6-2.5,7.4c-0.1,0.9-0.3,1.6-0.3,2.1C157.9,382.3,157.8,382.5,157.8,382.5z"/>
					</g>
				</g>
				<g>
					<g>
						<path class="st1" d="M183,324.6c0,0.1-0.9-0.1-2.5,0.3c-1.5,0.4-3.6,1.7-5.2,4.1c-1.6,2.4-2.3,5.8-2.7,9.6
							c-0.4,3.8-0.9,8-1.8,12.3c-1.8,8.7-4.2,16.3-6,21.8c-0.9,2.8-1.7,5-2.2,6.5c-0.3,0.7-0.5,1.3-0.6,1.8
							c-0.1,0.4-0.2,0.6-0.3,0.6c0,0,0-0.2,0.2-0.6c0.1-0.5,0.3-1.1,0.5-1.8c0.5-1.6,1.2-3.8,2-6.5c1.7-5.5,4-13.2,5.8-21.8
							c0.9-4.3,1.5-8.5,1.9-12.3c0.4-3.8,1.2-7.3,2.9-9.7c1.7-2.5,3.8-3.7,5.4-4.1c0.8-0.2,1.4-0.2,1.9-0.2
							C182.8,324.5,183,324.5,183,324.6z"/>
					</g>
				</g>
				<g>
					<g>
						<g>
							<g>
								<path class="st9" d="M146.3,378.9h19.4c0,0-11.7,93.3-76.6,93l0.8-18.2C89.9,453.7,134,451,146.3,378.9z"/>
							</g>
							<g>
								<g>
									<g>
										<path class="st9" d="M82.7,448.5l-0.1,8l-17.7-0.3c-1,0-1.8-0.9-1.8-1.9l0.1-4.3c0-1,0.9-1.8,1.9-1.8L82.7,448.5z"/>
									</g>
									<g class="st11">
										<path class="st9" d="M82.4,448.3l-0.1,8L64.6,456c-1,0-1.8-0.9-1.8-1.9l0.1-4.3c0-1,0.9-1.8,1.9-1.8L82.4,448.3z"/>
									</g>
									<g>
										<path class="st9" d="M82.5,460.9l-0.2,12l-16.5-0.3c-1.7,0-3-1.4-3-3.1l0.1-5.9c0-1.7,1.4-3,3.1-3L82.5,460.9z"/>
									</g>
									<g>
										
											<rect x="68.4" y="454.8" transform="matrix(1.760079e-02 -0.9998 0.9998 1.760079e-02 -381.2959 529.1649)" class="st9" width="20.4" height="7.7"/>
									</g>
								</g>
								<g>
									
										<rect x="79.2" y="447.2" transform="matrix(0.9999 -1.220031e-02 1.220031e-02 0.9999 -5.6184 1.076)" class="st7" width="12.4" height="27.7"/>
								</g>
								<g>
									<g>
										<path class="st8" d="M91.6,471.9c0,0.2-2.7,0.4-6.1,0.4c-3.4,0-6.1-0.1-6.1-0.3c0-0.1,2.7-0.3,6.1-0.3c1.7,0,3.2,0,4.3,0
											c0.4,0,0.9,0,1.3,0C91.5,471.9,91.6,471.9,91.6,471.9z"/>
									</g>
								</g>
								<g>
									<g>
										<path class="st8" d="M91.6,466.9c0,0.2-2.7,0.4-6.1,0.4c-3.4,0-6.1-0.1-6.1-0.3s2.7-0.3,6.1-0.3c1.7,0,3.2,0,4.3,0
											c0.4,0,0.9,0,1.3,0C91.4,466.9,91.6,466.9,91.6,466.9z"/>
									</g>
								</g>
								<g>
									<g>
										<path class="st8" d="M91.7,461.9c0,0.2-2.7,0.4-6.1,0.4c-3.4,0-6.1-0.1-6.1-0.3s2.7-0.3,6.1-0.3c1.7,0,3.2,0,4.3,0
											c0.4,0,0.9,0,1.3,0C91.6,461.9,91.7,461.9,91.7,461.9z"/>
									</g>
								</g>
								<g>
									<g>
										<path class="st8" d="M91.5,457c0,0.2-2.7,0.4-6.1,0.4c-3.4,0-6.1-0.1-6.1-0.3s2.7-0.3,6.1-0.3c1.7,0,3.2,0,4.3,0
											c0.4,0,0.9,0,1.3,0C91.3,456.9,91.4,456.9,91.5,457z"/>
									</g>
								</g>
								<g>
									<g>
										<path class="st8" d="M91.6,452.2c0,0.2-2.7,0.4-6.1,0.4c-3.4,0-6.1-0.1-6.1-0.3s2.7-0.3,6.1-0.3c1.7,0,3.2,0,4.3,0
											c0.4,0,0.9,0,1.3,0C91.5,452.2,91.6,452.2,91.6,452.2z"/>
									</g>
								</g>
							</g>
						</g>
						<g>
							<g>
								<path class="st7" d="M98.4,471c0,0,0,0.2,0.1,0.5l0,0.6l-0.2-0.6c-0.4-1.2-1.2-4.8-1.9-9.2c-0.4-2.7-0.7-5.1-0.9-6.9
									c-0.2-1.8-0.2-2.9-0.1-2.9c0.1,0,0.2,1.1,0.5,2.8c0.3,1.8,0.6,4.2,1,6.9c0.7,4.3,1.4,8,1.5,9.2l-0.2,0
									C98.4,471.1,98.4,471,98.4,471z"/>
							</g>
						</g>
						<g>
							<g>
								<path class="st7" d="M107.6,469.2c-0.1,0-1.6-4.2-3.2-9.4c-1.6-5.2-2.9-9.5-2.7-9.6s1.6,4.2,3.2,9.4
									C106.6,464.9,107.8,469.2,107.6,469.2z"/>
							</g>
						</g>
						<g>
							<g>
								<path class="st7" d="M118.5,464.6c-0.1,0.1-2.3-4-4.8-9.1c-2.5-5.1-4.4-9.2-4.3-9.3c0.1-0.1,2.3,4,4.8,9.1
									C116.7,460.4,118.6,464.6,118.5,464.6z"/>
							</g>
						</g>
						<g>
							<g>
								<path class="st7" d="M128.1,457.4c-0.1,0.1-2.9-3.5-6.2-7.9c-3.3-4.5-5.9-8.1-5.8-8.2c0.1-0.1,2.9,3.5,6.2,7.9
									C125.7,453.7,128.3,457.3,128.1,457.4z"/>
							</g>
						</g>
						<g>
							<g>
								<path class="st7" d="M136.5,449.4c-0.1,0.1-3.3-3-7.2-6.9c-3.9-3.9-6.9-7.1-6.8-7.2c0.1-0.1,3.3,3,7.2,6.9
									C133.6,446.1,136.6,449.3,136.5,449.4z"/>
							</g>
						</g>
						<g>
							<g>
								<path class="st7" d="M143.5,439.9c0,0.1-1-0.5-2.5-1.3c-1.7-1-3.7-2.2-5.9-3.5c-2.2-1.3-4.3-2.5-5.9-3.5
									c-1.5-0.9-2.4-1.5-2.4-1.5c0-0.1,1,0.4,2.6,1.2c1.6,0.8,3.7,2,6,3.3c2.3,1.4,4.4,2.6,5.8,3.6
									C142.6,439.2,143.5,439.8,143.5,439.9z"/>
							</g>
						</g>
						<g>
							<g>
								<path class="st7" d="M148.2,430.2c0,0.1-1-0.4-2.4-1.1c-1.5-0.7-3.5-1.7-5.8-2.8c-2.3-1-4.3-2-5.8-2.6
									c-1.5-0.7-2.4-1.1-2.4-1.1c0-0.1,1,0.2,2.5,0.8c1.5,0.6,3.6,1.4,5.9,2.5c2.3,1.1,4.3,2.1,5.7,2.9
									C147.3,429.5,148.2,430.1,148.2,430.2z"/>
							</g>
						</g>
						<g>
							<g>
								<path class="st7" d="M153.8,420.8c0,0.1-1.1-0.1-2.8-0.5c-1.7-0.4-4-0.9-6.6-1.7c-2.5-0.7-4.8-1.5-6.4-2.1
									c-1.6-0.6-2.6-1-2.6-1.1c0-0.1,1.1,0.2,2.7,0.7c1.7,0.5,3.9,1.2,6.5,2c2.5,0.7,4.8,1.4,6.5,1.8
									C152.8,420.4,153.8,420.7,153.8,420.8z"/>
							</g>
						</g>
						<g>
							<g>
								<path class="st7" d="M156.8,411.3c0,0.1-4.2-0.3-9.2-0.9c-5.1-0.6-9.2-1.3-9.2-1.4c0-0.1,4.2,0.3,9.2,0.9
									C152.7,410.5,156.8,411.2,156.8,411.3z"/>
							</g>
						</g>
						<g>
							<g>
								<path class="st7" d="M159.9,402.1c0,0.1-1,0-2.7-0.1c-1.7-0.1-3.9-0.3-6.5-0.6c-2.5-0.3-4.8-0.5-6.5-0.7s-2.7-0.4-2.7-0.5
									c0-0.1,1,0,2.7,0.1s3.9,0.3,6.5,0.6c2.5,0.3,4.8,0.5,6.4,0.7C158.9,401.8,159.9,402,159.9,402.1z"/>
							</g>
						</g>
						<g>
							<g>
								<path class="st7" d="M162.4,393.1c0,0.1-4.3,0.4-9.6,0.6c-5.3,0.2-9.7,0.2-9.7,0s4.3-0.4,9.6-0.6
									C158.1,393,162.4,393,162.4,393.1z"/>
							</g>
						</g>
						<g>
							<g>
								<path class="st7" d="M163.4,385.8c0,0.1-1,0.2-2.6,0.4s-3.9,0.3-6.4,0.3c-2.5,0-4.8-0.1-6.4-0.3s-2.6-0.3-2.6-0.4
									c0-0.1,1,0,2.7,0c1.6,0.1,3.9,0.1,6.4,0.1c2.5,0,4.8-0.1,6.4-0.2C162.4,385.8,163.4,385.7,163.4,385.8z"/>
							</g>
						</g>
					</g>
					<g>
						<g>
							<path class="st10" d="M147.1,381.7c0,0,0,0.1,0,0.3c0,0.2,0,0.4,0,0.7c0,0.6,0,1.6-0.1,2.8c-0.1,2.5-0.4,6-1.2,10.4
								c-0.8,4.3-2.2,9.5-4.3,14.9c-2.2,5.4-5.2,11.2-9.1,16.6c-4,5.5-8.4,10.2-12.9,13.9c-4.5,3.8-8.9,6.7-12.8,8.8
								c-3.9,2.1-7.2,3.6-9.5,4.4c-1.1,0.5-2.1,0.7-2.7,1c-0.3,0.1-0.5,0.2-0.7,0.2c-0.2,0-0.2,0.1-0.2,0.1c0,0,0.1,0,0.2-0.1
								c0.2-0.1,0.4-0.2,0.7-0.3c0.6-0.3,1.5-0.6,2.6-1c2.3-0.9,5.5-2.4,9.4-4.6c3.8-2.2,8.2-5.1,12.6-8.9
								c4.4-3.8,8.9-8.4,12.8-13.9c3.9-5.5,6.9-11.1,9.1-16.5c2.2-5.4,3.6-10.5,4.4-14.8c0.8-4.3,1.2-7.9,1.4-10.3
								c0.1-1.2,0.1-2.2,0.2-2.8c0-0.3,0-0.5,0-0.7C147.1,381.8,147.1,381.7,147.1,381.7z"/>
						</g>
					</g>
				</g>
			</g>
			<g>
				<g>
					<g>
						<path class="st8" d="M363.4,332.6c0,0,0,0.6,0.1,1.8c0.1,1.1,0.3,2.8,0.5,4.8c0.5,4.1,1.3,9.7,2.6,15.8
							c1.3,6.1,2.7,11.6,3.8,15.6c0.6,2,1.1,3.5,1.4,4.6c0.4,1.1,0.6,1.7,0.6,1.7c0,0-0.1-0.6-0.4-1.7c-0.3-1.2-0.8-2.8-1.3-4.7
							c-1.1-4-2.4-9.4-3.7-15.6c-1.2-6.1-2.1-11.7-2.7-15.8c-0.3-2-0.5-3.6-0.7-4.8C363.5,333.2,363.4,332.6,363.4,332.6z"/>
					</g>
				</g>
				<g>
					<g>
						<path class="st8" d="M345.7,309.4c0,0.1,1.4,0.1,3.6,0.7c2.2,0.6,5.2,1.9,7.7,4.2c2.6,2.4,4.1,5.2,4.8,7.4
							c0.8,2.2,0.9,3.6,1,3.6c0,0,0-0.4,0-1c-0.1-0.6-0.2-1.6-0.6-2.7c-0.7-2.2-2.2-5.2-4.8-7.6c-2.6-2.4-5.7-3.7-8-4.2
							c-1.1-0.3-2.1-0.4-2.7-0.4C346,309.4,345.7,309.4,345.7,309.4z"/>
					</g>
				</g>
				<g>
					<g>
						<path class="st8" d="M369.7,377.8c0,0,0-0.3,0-0.8c0-0.5-0.1-1.2-0.3-2.1c-0.3-1.8-0.7-4.6-2.4-7.6c-0.8-1.5-2-2.9-2.9-4.6
							c-0.5-0.9-0.9-1.8-1-2.8c-0.2-1-0.2-2.1-0.1-3.2c0.2-2.2,0.8-4.5,0.3-7c-0.2-1.2-0.9-2.4-1.6-3.4c-0.7-1-1.6-2-2.2-3
							c-0.7-1-1.1-2.2-1.1-3.4c0-1.2,0.2-2.4,0.5-3.6c0.6-2.3,0.8-4.7,0.6-7c-0.4-4.5-2.2-8.3-4.4-10.9c-2.2-2.6-4.5-4.2-6.1-5
							c-0.8-0.4-1.5-0.7-2-0.9c-0.5-0.2-0.7-0.2-0.7-0.2c0,0,0.2,0.1,0.7,0.3c0.4,0.2,1.1,0.5,1.9,1c1.6,0.9,3.9,2.5,6,5.1
							c2.1,2.6,3.8,6.3,4.2,10.7c0.2,2.2,0,4.5-0.6,6.8c-0.3,1.2-0.5,2.4-0.5,3.7c0,1.3,0.5,2.6,1.2,3.7c0.7,1.1,1.6,2.1,2.3,3
							c0.7,1,1.3,2,1.5,3.2c0.5,2.3-0.1,4.6-0.3,6.8c-0.1,1.1-0.1,2.2,0.1,3.3c0.2,1.1,0.6,2,1.1,2.9c1,1.7,2.2,3.2,3,4.6
							c1.7,2.9,2.1,5.6,2.5,7.4c0.1,0.9,0.3,1.6,0.3,2.1C369.7,377.5,369.7,377.8,369.7,377.8z"/>
					</g>
				</g>
				<g>
					<g>
						<path class="st1" d="M344.5,319.8c0,0.1,0.9-0.1,2.5,0.3c1.5,0.4,3.6,1.7,5.2,4.1c1.6,2.4,2.3,5.8,2.7,9.6
							c0.4,3.8,1,8,1.8,12.3c1.8,8.7,4.2,16.3,6,21.8c0.9,2.8,1.7,5,2.2,6.5c0.3,0.7,0.5,1.3,0.6,1.8c0.1,0.4,0.2,0.6,0.3,0.6
							c0,0,0-0.2-0.2-0.6c-0.1-0.5-0.3-1.1-0.5-1.8c-0.5-1.6-1.2-3.8-2-6.5c-1.7-5.5-4-13.2-5.8-21.8c-0.9-4.3-1.5-8.5-1.9-12.3
							c-0.4-3.8-1.2-7.3-2.9-9.7c-1.7-2.5-3.8-3.7-5.4-4.1c-0.8-0.2-1.4-0.2-1.9-0.2C344.7,319.7,344.5,319.8,344.5,319.8z"/>
					</g>
				</g>
			</g>
			<g>
				<g>
					<g>
						<g>
							<path class="st13" d="M450.5,343.7l-8,0.2l-0.5-17.7c0-1,0.8-1.9,1.8-1.9l4.3-0.1c1,0,1.9,0.8,1.9,1.8L450.5,343.7z"/>
						</g>
						<g>
							<path class="st9" d="M450.5,343.7l-8,0.2l-0.5-17.7c0-1,0.8-1.9,1.8-1.9l4.3-0.1c1,0,1.9,0.8,1.9,1.8L450.5,343.7z"/>
						</g>
						<g>
							<path class="st9" d="M438.1,344l-12,0.3l-0.4-16.5c0-1.7,1.3-3.1,3-3.1l5.9-0.2c1.7,0,3.1,1.3,3.1,3L438.1,344z"/>
						</g>
						<g>
							
								<rect x="430" y="336.3" transform="matrix(0.9997 -2.611641e-02 2.611641e-02 0.9997 -8.7333 11.6133)" class="st9" width="20.4" height="7.7"/>
						</g>
					</g>
					<g>
						<path class="st9" d="M376.3,369.7c0,0,9.9,30.4,38.6,19.6c22-8.3,12.8-41.9,12.8-41.9l21.2,3.3c0,0,7.6,40.2-18.8,56
							c-29.8,17.8-61.9,5-71.5-32L376.3,369.7z"/>
					</g>
					<g>
						
							<rect x="424.2" y="340.7" transform="matrix(0.9984 -5.587804e-02 5.587804e-02 0.9984 -18.7033 25.0214)" class="st7" width="27.7" height="12.4"/>
					</g>
					<g>
						<g>
							<path class="st8" d="M427.5,353.7c-0.2,0-0.5-2.7-0.7-6.1c-0.2-3.4-0.2-6.1,0-6.1c0.1,0,0.4,2.7,0.5,6.1
								c0.1,1.7,0.1,3.2,0.2,4.3c0,0.4,0,0.9,0,1.3C427.5,353.5,427.5,353.7,427.5,353.7z"/>
						</g>
					</g>
					<g>
						<g>
							<path class="st8" d="M432.5,353.4c-0.2,0-0.5-2.7-0.7-6.1c-0.2-3.4-0.2-6.1,0-6.1c0.1,0,0.4,2.7,0.5,6.1
								c0.1,1.7,0.1,3.2,0.2,4.3c0,0.4,0,0.9,0,1.3C432.5,353.3,432.5,353.4,432.5,353.4z"/>
						</g>
					</g>
					<g>
						<g>
							<path class="st8" d="M437.5,353.3c-0.2,0-0.5-2.7-0.7-6.1c-0.2-3.4-0.2-6.1,0-6.1c0.1,0,0.4,2.7,0.5,6.1
								c0.1,1.7,0.1,3.2,0.2,4.3c0,0.4,0,0.9,0,1.3C437.5,353.2,437.5,353.3,437.5,353.3z"/>
						</g>
					</g>
					<g>
						<g>
							<path class="st8" d="M442.4,352.9c-0.2,0-0.5-2.7-0.7-6.1c-0.2-3.4-0.2-6.1,0-6.1s0.4,2.7,0.5,6.1c0.1,1.7,0.1,3.2,0.2,4.3
								c0,0.4,0,0.9,0,1.3C442.5,352.7,442.4,352.8,442.4,352.9z"/>
						</g>
					</g>
					<g>
						<g>
							<path class="st8" d="M447.2,352.8c-0.2,0-0.5-2.7-0.7-6.1c-0.2-3.4-0.2-6.1,0-6.1c0.1,0,0.4,2.7,0.5,6.1
								c0.1,1.7,0.1,3.2,0.2,4.3c0,0.4,0,0.9,0,1.3C447.2,352.7,447.2,352.8,447.2,352.8z"/>
						</g>
					</g>
				</g>
				<g>
					<g>
						<path class="st7" d="M360.6,381.3c0-0.1,0.9-0.6,2.4-1.4c1.5-0.8,3.7-1.8,6.1-2.7c2.4-1,4.7-1.8,6.3-2.3
							c1.6-0.5,2.7-0.8,2.7-0.7c0,0.1-1,0.5-2.6,1.1c-1.6,0.6-3.8,1.4-6.2,2.4c-2.4,1-4.6,1.9-6.1,2.6
							C361.6,380.9,360.7,381.4,360.6,381.3z"/>
					</g>
				</g>
				<g>
					<g>
						<path class="st7" d="M364.8,390.4c-0.1-0.1,3.7-2.5,8.4-5.4c4.7-2.8,8.6-5.1,8.7-4.9c0.1,0.1-3.7,2.5-8.4,5.4
							C368.7,388.3,364.9,390.6,364.8,390.4z"/>
					</g>
				</g>
				<g>
					<g>
						<path class="st7" d="M373,402c-0.1-0.1,0.8-0.9,2.1-2.4c1.4-1.5,3.2-3.4,5.2-5.5c2-2.1,3.8-4,5.2-5.5c1.3-1.4,2.2-2.3,2.2-2.2
							c0.1,0-0.7,1-2,2.5c-1.3,1.5-3.1,3.5-5.1,5.6c-2,2.2-3.9,4.1-5.3,5.4C373.9,401.2,373,402,373,402z"/>
					</g>
				</g>
				<g>
					<g>
						<path class="st7" d="M384.7,410.4c-0.1-0.1,1.8-4.7,4.4-10.4c2.5-5.7,4.7-10.3,4.8-10.2c0.1,0.1-1.8,4.7-4.4,10.4
							C387,405.8,384.8,410.4,384.7,410.4z"/>
					</g>
				</g>
				<g>
					<g>
						<path class="st7" d="M398.5,414c-0.1,0,0.4-5,1.1-11.2c0.8-6.2,1.5-11.2,1.6-11.2c0.1,0-0.4,5-1.1,11.2
							C399.4,409,398.7,414,398.5,414z"/>
					</g>
				</g>
				<g>
					<g>
						<path class="st7" d="M412.3,413.8c-0.1,0-0.3-1.3-0.6-3.3c-0.3-2.2-0.8-5-1.2-8.1c-0.5-3.1-0.9-5.8-1.2-8
							c-0.3-2.1-0.5-3.3-0.4-3.4c0.1,0,0.4,1.2,0.8,3.3c0.4,2,0.9,4.9,1.4,8c0.5,3.1,0.8,6,1.1,8.1
							C412.3,412.5,412.4,413.8,412.3,413.8z"/>
					</g>
				</g>
				<g>
					<g>
						<path class="st7" d="M425.2,408.5c-0.1,0-0.8-1-1.8-2.6c-1-1.7-2.4-4-3.8-6.7c-1.4-2.7-2.5-5.1-3.3-6.9c-0.8-1.8-1.2-3-1.1-3
							c0.1,0,0.6,1.1,1.5,2.8c0.9,1.8,2.1,4.2,3.4,6.9c1.4,2.7,2.7,5,3.7,6.7C424.7,407.4,425.2,408.5,425.2,408.5z"/>
					</g>
				</g>
				<g>
					<g>
						<path class="st7" d="M436.9,401c-0.1,0.1-3.5-3.4-7.5-7.8c-4-4.4-7.2-8.1-7.1-8.2c0.1-0.1,3.5,3.4,7.5,7.8
							C433.8,397.3,437,400.9,436.9,401z"/>
					</g>
				</g>
				<g>
					<g>
						<path class="st7" d="M445,390.2c-0.1,0.1-4.1-2.4-9.1-5.7c-4.9-3.3-8.9-6-8.8-6.2c0.1-0.1,4.1,2.4,9.1,5.7
							C441.1,387.3,445.1,390.1,445,390.2z"/>
					</g>
				</g>
				<g>
					<g>
						<path class="st7" d="M448.9,374.7c0,0.1-4.5-1-9.9-2.5c-5.4-1.5-9.8-2.8-9.7-3c0-0.1,4.5,1,9.9,2.5
							C444.6,373.2,449,374.5,448.9,374.7z"/>
					</g>
				</g>
				<g>
					<g>
						<path class="st7" d="M450.4,361.3c0,0.1-4.6,0.1-10.3-0.2c-5.7-0.3-10.3-0.6-10.3-0.7c0-0.1,4.6-0.1,10.3,0.2
							C445.8,360.9,450.4,361.2,450.4,361.3z"/>
					</g>
				</g>
				<g class="st11">
					<g>
						<path d="M399.2,391.3c-6.9-1.1-11.6-4.7-14.6-7.9c-3.4-3.7-5.1-6.7-5.1-6.7c-1.5,6.8,2.5,13.9,8.2,17.9
							c5.7,4,13.2,4.8,19.9,3.1c3.2-0.8,6.3-2.1,8.8-4.3s4.9-5.1,5.4-8.4c0,0-1.6,1.7-4.6,3.2C413.2,390.3,406.5,392.4,399.2,391.3z
							"/>
					</g>
				</g>
			</g>
			<g>
				<g>
					<path class="st13" d="M236.9,273c0,0-10.7-14.5-35.5-12.4c0,0,25.3-19.4,10.4-39.3c0,0,31.9,9.4,32.3-30.4
						c0,0,5.8,37,35.9,26.5c0,0,2.1,29.4,23,23.9c-10.1,9.9-19.9,18.6-17.9,31.3"/>
				</g>
				<g class="st14">
					<path class="st10" d="M236.9,273c0,0-10.7-14.5-35.5-12.4c0,0,25.3-19.4,10.4-39.3c0,0,31.9,9.4,32.3-30.4
						c0,0,5.8,37,35.9,26.5c0,0,2.1,29.4,23,23.9c-10.1,9.9-19.9,18.6-17.9,31.3"/>
				</g>
				<g>
					<path class="st13" d="M236.9,273c0,0-0.3-16.9-20.2-15.2c0,0,18.5-10.7,6.6-26.7c0,0,25.6,7.6,25.9-24.5
						c0,0,4.7,29.7,28.8,21.3c0,0-2.9,21.5,13.8,17.2c-8.1,8-11.4,17-9.8,27.2"/>
				</g>
				<g class="st15">
					<path class="st10" d="M236.9,273c0,0-0.3-16.9-20.2-15.2c0,0,18.5-10.7,6.6-26.7c0,0,25.6,7.6,25.9-24.5
						c0,0,4.7,29.7,28.8,21.3c0,0-2.9,21.5,13.8,17.2c-8.1,8-11.4,17-9.8,27.2"/>
				</g>
				<g>
					<g>
						<g>
							<path class="st13" d="M269.6,160.8c0,0-0.1,0.2-0.2,0.6c-0.2,0.5-0.5,1-0.8,1.8c-0.4,0.8-0.8,1.7-1.2,2.8
								c-0.5,1.1-1,2.3-1.5,3.7c-0.5,1.4-1.1,2.9-1.7,4.6c-0.6,1.7-1.1,3.5-1.7,5.4c-1.1,3.8-2.1,8-3,12.5
								c-0.8,4.5-1.3,8.8-1.6,12.8c-0.1,2-0.3,3.9-0.3,5.6c-0.1,1.8-0.1,3.4,0,4.9c0,1.5,0.1,2.8,0.1,4c0,1.2,0.1,2.2,0.2,3
								c0,0.8,0.1,1.4,0.1,1.9c0,0.4,0,0.7,0,0.7c0,0-0.1-0.2-0.1-0.7c-0.1-0.5-0.1-1.1-0.2-1.9c-0.1-0.8-0.2-1.9-0.3-3
								c-0.1-1.2-0.2-2.5-0.2-4c0-1.5-0.1-3.1,0-4.9c0-1.8,0.1-3.6,0.2-5.6c0.3-4,0.8-8.3,1.6-12.8c0.8-4.5,1.9-8.8,3-12.6
								c0.6-1.9,1.1-3.7,1.8-5.4c0.6-1.7,1.2-3.2,1.7-4.6c0.5-1.4,1.1-2.6,1.6-3.7c0.5-1.1,0.9-2,1.3-2.8c0.4-0.7,0.6-1.3,0.9-1.7
								C269.5,160.9,269.6,160.7,269.6,160.8z"/>
						</g>
					</g>
					<g>
						<g>
							<path class="st13" d="M198.1,153.9c-0.1,0.1-2.3-2.5-6-4.5c-3.7-2-7.1-2.3-7.1-2.5c0-0.1,0.9-0.1,2.2,0.2
								c1.4,0.3,3.2,0.8,5.1,1.8c1.9,1,3.4,2.2,4.3,3.2C197.6,153.1,198.1,153.9,198.1,153.9z"/>
						</g>
					</g>
					<g>
						<g>
							<path class="st13" d="M205.8,197.4c0,0,0.2,0.1,0.4,0.4c0.3,0.3,0.7,0.7,1.1,1.2c1,1,2.3,2.6,3.9,4.6c1.6,2,3.4,4.4,5.4,7.1
								c1.9,2.8,3.9,5.9,5.9,9.2c1.9,3.4,3.6,6.6,5.1,9.7c1.4,3,2.6,5.8,3.5,8.2c0.9,2.4,1.6,4.3,2,5.7c0.2,0.6,0.4,1.1,0.5,1.6
								c0.1,0.4,0.2,0.5,0.1,0.6s-0.1-0.2-0.2-0.5c-0.2-0.4-0.3-0.9-0.6-1.5c-0.5-1.3-1.2-3.2-2.2-5.6c-0.9-2.3-2.2-5.1-3.6-8.1
								c-1.5-3-3.1-6.3-5.1-9.6c-1.9-3.3-3.9-6.4-5.8-9.2c-1.9-2.7-3.7-5.2-5.3-7.2c-1.6-2-2.9-3.6-3.8-4.7c-0.4-0.5-0.8-0.9-1-1.3
								C205.9,197.6,205.7,197.4,205.8,197.4z"/>
						</g>
					</g>
					<g>
						<g>
							<path class="st13" d="M274.5,202.5c0,0-0.1,0.2-0.2,0.5c-0.2,0.3-0.4,0.8-0.7,1.3c-0.3,0.5-0.7,1.2-1.1,2
								c-0.4,0.8-0.9,1.7-1.3,2.7c-1,2-2,4.4-3,7.2c-1,2.8-1.9,5.8-2.6,9.1c-0.7,3.3-1.2,6.5-1.5,9.4c-0.3,2.9-0.4,5.5-0.4,7.7
								c0,1.1,0,2.1,0,3c0,0.9,0.1,1.6,0.1,2.2c0,0.6,0.1,1,0.1,1.4c0,0.3,0,0.5,0,0.5s0-0.2-0.1-0.5c0-0.4-0.1-0.9-0.2-1.4
								c-0.1-0.6-0.2-1.4-0.2-2.3c0-0.9-0.1-1.9-0.1-3c-0.1-2.2,0-4.9,0.3-7.8c0.3-2.9,0.7-6.1,1.5-9.4c0.8-3.3,1.7-6.4,2.7-9.2
								c1-2.7,2.1-5.2,3.1-7.2c0.5-1,1-1.9,1.4-2.6c0.4-0.8,0.8-1.4,1.1-2c0.3-0.5,0.6-0.9,0.8-1.2
								C274.4,202.7,274.5,202.5,274.5,202.5z"/>
						</g>
					</g>
					<g>
						<g>
							<path class="st13" d="M294.2,206.4c0,0.1-0.8,0.7-2.2,1.9c-1.3,1.2-3.1,2.9-4.8,5c-1.7,2.1-2.9,4.2-3.8,5.7
								c-0.8,1.6-1.3,2.6-1.3,2.5c-0.1,0,0.3-1.1,1-2.7c0.8-1.6,2-3.8,3.7-5.9c1.7-2.1,3.5-3.8,4.9-4.9
								C293.2,206.9,294.1,206.4,294.2,206.4z"/>
						</g>
					</g>
					<g>
						<g>
							<path class="st13" d="M210.6,231.9c0-0.1,1,0.5,2.4,1.5c1.4,1,3.3,2.7,5.2,4.7c1.8,2,3.2,4.1,4.1,5.6
								c0.9,1.5,1.3,2.6,1.3,2.6c-0.1,0-0.6-0.9-1.6-2.4c-1-1.5-2.4-3.5-4.2-5.5c-1.8-2-3.6-3.6-5-4.7
								C211.5,232.6,210.6,232,210.6,231.9z"/>
						</g>
					</g>
					<g>
						<g>
							<path class="st13" d="M205.6,222.6c-0.1,0.1-2.1-1-4.9-1.7c-2.8-0.7-5.1-0.7-5.1-0.9c0-0.1,2.4-0.4,5.2,0.4
								C203.7,221.1,205.7,222.5,205.6,222.6z"/>
						</g>
					</g>
				</g>
				<g>
					<g>
						<g>
							<path class="st16" d="M185,191.3c0.1-0.6,0.4-1.1,0.7-1.7l-0.9-1.4l1.9-2l1.4,0.9c0.5-0.3,1.1-0.5,1.6-0.7l0.3-1.6l2.7,0
								l0.4,1.6c0.6,0.1,1.1,0.4,1.7,0.7l1.4-0.9l2,1.9l-0.9,1.4c0.3,0.5,0.5,1.1,0.7,1.6l1.6,0.3l0,2.7l-1.6,0.4
								c-0.1,0.6-0.4,1.1-0.7,1.7l0.9,1.4l-1.9,2l-1.4-0.9c-0.5,0.3-1.1,0.5-1.6,0.7L193,201l-2.7,0l-0.4-1.6
								c-0.6-0.1-1.1-0.4-1.7-0.7l-1.4,0.9l-2-1.9l0.9-1.4c-0.3-0.5-0.5-1.1-0.7-1.6l-1.6-0.3l0-2.7L185,191.3L185,191.3z
								 M188.6,192.9c0,1.6,1.4,2.9,3,2.9c1.6,0,2.9-1.4,2.9-3c0-1.6-1.4-2.9-3-2.9C189.9,189.9,188.6,191.2,188.6,192.9z"/>
						</g>
					</g>
				</g>
				<g>
					<g>
						<g>
							<path class="st17" d="M299.6,265.2c0.1-0.4,0.3-0.8,0.5-1.2l-0.7-1l1.4-1.4l1,0.6c0.4-0.2,0.8-0.4,1.2-0.5l0.3-1.2l2,0
								l0.3,1.2c0.4,0.1,0.8,0.3,1.2,0.5l1-0.7l1.4,1.4l-0.6,1c0.2,0.4,0.4,0.8,0.5,1.2l1.2,0.3l0,2l-1.2,0.3
								c-0.1,0.4-0.3,0.8-0.5,1.2l0.7,1l-1.4,1.4l-1-0.6c-0.4,0.2-0.8,0.4-1.2,0.5l-0.3,1.2l-2,0l-0.3-1.2c-0.4-0.1-0.8-0.3-1.2-0.5
								l-1,0.7l-1.4-1.4l0.6-1c-0.2-0.4-0.4-0.8-0.5-1.2l-1.2-0.3l0-2L299.6,265.2L299.6,265.2z M302.2,266.3c0,1.2,1,2.1,2.2,2.1
								c1.2,0,2.1-1,2.1-2.2c0-1.2-1-2.1-2.2-2.1C303.2,264.2,302.2,265.1,302.2,266.3z"/>
						</g>
					</g>
				</g>
				<g>
					<g>
						<g>
							
								<rect x="274.2" y="182.1" transform="matrix(0.4291 -0.9033 0.9033 0.4291 -7.0874 357.6798)" class="st1" width="10.4" height="4.7"/>
						</g>
						<g>
							<g>
								<path class="st7" d="M275,188.2c0,0,0.5,0.2,1.2,0.5c0.8,0.3,1.8,0.8,3.1,1.4l-0.3,0.1c1.1-2.5,2.7-5.8,4.4-9.4
									c-0.1-0.3,0.2,0.4,0.1,0.3h0l0,0l0,0l0,0l0,0l0,0l-0.1,0l-0.1-0.1l-0.3-0.1l-0.6-0.3c-0.4-0.2-0.7-0.3-1.1-0.5
									c-0.7-0.3-1.4-0.7-2.1-1l0.3-0.1c-1.3,2.7-2.4,5-3.3,6.6c-0.4,0.8-0.7,1.4-1,1.9C275.2,187.9,275.1,188.2,275,188.2
									c0,0,0.1-0.2,0.3-0.7c0.2-0.5,0.5-1.2,0.9-2c0.7-1.7,1.8-4.1,3.1-6.9l0.1-0.2l0.2,0.1c0.7,0.3,1.4,0.6,2.1,1
									c0.4,0.2,0.7,0.3,1.1,0.5l0.6,0.3l0.3,0.1l0.1,0.1l0.1,0l0,0l0,0l0,0l0,0l0,0l0,0c0-0.1,0.2,0.7,0.1,0.3
									c-1.7,3.7-3.3,7-4.5,9.4l-0.1,0.2l-0.2-0.1c-1.3-0.7-2.4-1.2-3.1-1.6C275.4,188.4,275,188.2,275,188.2z"/>
							</g>
						</g>
					</g>
					<g>
						<g>
							<path class="st1" d="M283.4,175.8c-2.2-1-4.8-0.1-5.8,2.1l7.9,3.7C286.4,179.4,285.5,176.8,283.4,175.8z"/>
						</g>
						<g>
							<g>
								<path class="st7" d="M283.4,175.8c0,0,0.2,0,0.5,0.2c0.3,0.2,0.7,0.4,1.1,0.9c0.4,0.5,0.8,1.1,1,2c0.2,0.8,0.1,1.9-0.3,2.8
									l-0.1,0.2l-0.2-0.1c-1.2-0.6-2.5-1.2-3.9-1.8c-1.4-0.7-2.7-1.3-3.9-1.9l-0.2-0.1l0.1-0.2c0.5-0.9,1.2-1.7,2-2
									c0.8-0.4,1.5-0.5,2.2-0.5c0.6,0,1.1,0.2,1.4,0.3C283.2,175.6,283.4,175.7,283.4,175.8c0,0.1-0.7-0.3-1.8-0.3
									c-0.6,0-1.3,0.2-2,0.5c-0.7,0.4-1.3,1-1.8,1.9l-0.1-0.3c1.2,0.6,2.6,1.2,3.9,1.8c1.4,0.7,2.7,1.3,3.9,1.9l-0.3,0.1
									c0.4-0.9,0.5-1.8,0.4-2.6c-0.1-0.8-0.5-1.4-0.8-1.9C284,176.1,283.3,175.8,283.4,175.8z"/>
							</g>
						</g>
					</g>
					<g>
						<g>
							<path class="st1" d="M283.5,178.2c0.3-1-0.1-2.1-0.9-2.8"/>
						</g>
						<g>
							<g>
								<path class="st7" d="M282.6,175.4c0.1-0.1,0.8,0.3,1.1,1.2c0.3,0.9-0.1,1.7-0.2,1.6c-0.1,0,0-0.7-0.3-1.4
									C283,176,282.5,175.6,282.6,175.4z"/>
							</g>
						</g>
					</g>
					<g>
						<g>
							<path class="st7" d="M278.6,180.1c0.1-0.1,1.1,0.4,2.3,0.9c1.2,0.6,2.3,0.9,2.2,1.1c0,0.1-1.2,0-2.4-0.6
								C279.4,180.9,278.6,180.2,278.6,180.1z"/>
						</g>
					</g>
					<g>
						<g>
							<path class="st7" d="M278.1,181.2c0.1-0.1,1.1,0.4,2.3,0.9c1.2,0.6,2.3,0.9,2.2,1.1c0,0.1-1.2,0-2.4-0.6
								C278.9,182,278,181.3,278.1,181.2z"/>
						</g>
					</g>
					<g>
						<g>
							<path class="st7" d="M277.6,182.3c0.1-0.1,1.1,0.4,2.3,0.9c1.2,0.6,2.3,0.9,2.2,1.1c0,0.1-1.2,0-2.4-0.6
								C278.4,183.1,277.5,182.4,277.6,182.3z"/>
						</g>
					</g>
					<g>
						<g>
							<path class="st7" d="M277.1,183.4c0.1-0.1,1.1,0.4,2.3,0.9c1.2,0.6,2.3,0.9,2.2,1.1c0,0.1-1.2,0-2.4-0.6
								C277.9,184.2,277,183.5,277.1,183.4z"/>
						</g>
					</g>
					<g>
						<g>
							<path class="st7" d="M276.5,184.5c0.1-0.1,1.1,0.4,2.3,0.9c1.2,0.6,2.3,0.9,2.2,1.1c0,0.1-1.2,0-2.4-0.6
								C277.3,185.3,276.5,184.6,276.5,184.5z"/>
						</g>
					</g>
					<g>
						<g>
							<path class="st7" d="M276,185.6c0.1-0.1,1.1,0.4,2.3,0.9c1.2,0.6,2.3,0.9,2.2,1.1c0,0.1-1.2,0-2.4-0.6
								C276.8,186.4,275.9,185.7,276,185.6z"/>
						</g>
					</g>
					<g>
						<g>
							<path class="st7" d="M275.5,186.7c0.1-0.1,1.1,0.4,2.3,0.9c1.2,0.6,2.3,0.9,2.2,1.1c0,0.1-1.2,0-2.4-0.6
								C276.3,187.5,275.4,186.8,275.5,186.7z"/>
						</g>
					</g>
				</g>
				<g>
					<g>
						<g>
							
								<rect x="171.8" y="261.9" transform="matrix(0.9107 -0.4131 0.4131 0.9107 -93.3524 96.7414)" class="st1" width="10.4" height="4.7"/>
						</g>
						<g>
							<g>
								<path class="st7" d="M182.8,264.3c0,0-0.3-0.4-0.6-1.2c-0.4-0.7-0.9-1.8-1.5-3l0.2,0.1c-2.4,1.2-5.8,2.7-9.5,4.4
									c-0.1,0.3,0.2-0.4,0.1-0.3l0,0l0,0l0,0l0,0l0,0l0,0l0,0.1l0.1,0.1l0.1,0.3l0.3,0.6c0.2,0.4,0.3,0.7,0.5,1.1
									c0.3,0.7,0.6,1.4,0.9,2.1l-0.3-0.1c2.7-1.2,5.1-2.2,6.8-3c0.8-0.3,1.5-0.6,2-0.8C182.5,264.3,182.7,264.2,182.8,264.3
									s-0.2,0.1-0.6,0.4c-0.5,0.3-1.2,0.6-1.9,0.9c-1.7,0.8-4,1.9-6.8,3.2l-0.2,0.1l-0.1-0.2c-0.3-0.7-0.6-1.4-1-2.1
									c-0.2-0.4-0.3-0.7-0.5-1.1l-0.3-0.6l-0.1-0.3l-0.1-0.1l0-0.1l0,0l0,0l0,0l0,0l0,0l0,0c0,0.1,0.2-0.7,0.1-0.3
									c3.7-1.7,7.1-3.2,9.5-4.2l0.2-0.1l0.1,0.2c0.6,1.4,1.1,2.5,1.4,3.2C182.7,263.9,182.8,264.3,182.8,264.3z"/>
							</g>
						</g>
					</g>
					<g>
						<g>
							<path class="st1" d="M168.4,268.4c1,2.2,3.6,3.2,5.8,2.2l-3.6-7.9C168.4,263.6,167.4,266.2,168.4,268.4z"/>
						</g>
						<g>
							<g>
								<path class="st7" d="M168.4,268.4c0,0-0.1-0.1-0.3-0.4c-0.1-0.3-0.3-0.8-0.3-1.4c0-0.6,0.1-1.4,0.5-2.2
									c0.4-0.8,1.1-1.5,2.1-2l0.2-0.1l0.1,0.2c0.6,1.2,1.2,2.6,1.8,4c0.6,1.4,1.2,2.7,1.8,4l0.1,0.2l-0.2,0.1
									c-1,0.4-2,0.5-2.8,0.3c-0.9-0.2-1.5-0.6-2-1c-0.5-0.4-0.7-0.8-0.9-1.1C168.4,268.5,168.4,268.4,168.4,268.4
									c0.1,0,0.3,0.7,1.2,1.4c0.5,0.4,1.1,0.7,1.9,0.9c0.8,0.2,1.7,0.1,2.6-0.3l-0.1,0.3c-0.6-1.2-1.2-2.6-1.8-4
									c-0.6-1.4-1.2-2.7-1.8-4l0.3,0.1c-0.9,0.4-1.5,1-1.9,1.7c-0.4,0.7-0.6,1.4-0.6,2C168.1,267.7,168.5,268.3,168.4,268.4z"/>
							</g>
						</g>
					</g>
					<g>
						<g>
							<path class="st1" d="M169.9,266.4c-0.9,0.6-1.3,1.7-1.1,2.7"/>
						</g>
						<g>
							<g>
								<path class="st7" d="M168.8,269.1c-0.1,0.1-0.4-0.7-0.1-1.6c0.4-0.9,1.2-1.2,1.2-1.1c0.1,0.1-0.4,0.6-0.7,1.3
									C168.9,268.4,168.9,269.1,168.8,269.1z"/>
							</g>
						</g>
					</g>
					<g>
						<g>
							<path class="st7" d="M174.8,268.1c-0.1,0-0.6-1-1.1-2.2c-0.6-1.2-1.1-2.2-1-2.3c0.1-0.1,0.9,0.8,1.5,2
								C174.7,266.9,174.9,268.1,174.8,268.1z"/>
						</g>
					</g>
					<g>
						<g>
							<path class="st7" d="M175.9,267.6c-0.1,0-0.6-1-1.1-2.2c-0.6-1.2-1.1-2.2-1-2.3c0.1-0.1,0.9,0.8,1.5,2
								C175.8,266.4,176,267.6,175.9,267.6z"/>
						</g>
					</g>
					<g>
						<g>
							<path class="st7" d="M177,267.1c-0.1,0-0.6-1-1.1-2.2c-0.6-1.2-1.1-2.2-1-2.3c0.1-0.1,0.9,0.8,1.5,2
								C177,265.9,177.2,267.1,177,267.1z"/>
						</g>
					</g>
					<g>
						<g>
							<path class="st7" d="M178.1,266.6c-0.1,0-0.6-1-1.1-2.2c-0.6-1.2-1.1-2.2-1-2.3c0.1-0.1,0.9,0.8,1.5,2
								C178.1,265.4,178.3,266.6,178.1,266.6z"/>
						</g>
					</g>
					<g>
						<g>
							<path class="st7" d="M179.2,266.1c-0.1,0-0.6-1-1.1-2.2c-0.6-1.2-1.1-2.2-1-2.3c0.1-0.1,0.9,0.8,1.5,2
								C179.2,264.9,179.4,266,179.2,266.1z"/>
						</g>
					</g>
					<g>
						<g>
							<path class="st7" d="M180.4,265.6c-0.1,0-0.6-1-1.1-2.2c-0.6-1.2-1.1-2.2-1-2.3c0.1-0.1,0.9,0.8,1.5,2
								C180.3,264.4,180.5,265.5,180.4,265.6z"/>
						</g>
					</g>
					<g>
						<g>
							<path class="st7" d="M181.5,265.1c-0.1,0-0.6-1-1.1-2.2c-0.6-1.2-1.1-2.2-1-2.3c0.1-0.1,0.9,0.8,1.5,2
								C181.4,263.9,181.6,265,181.5,265.1z"/>
						</g>
					</g>
				</g>
				<g>
					<g>
						<path class="st13" d="M201.5,142.4c0,0,12.1,12,15.1,19.4c2.9,7.1,4.8,13.7,4.8,13.7s3.1-5.5,6.6,0
							c3.5,5.5,20.1,71.8,22.8,96.7h10.6c0,0-4.9-41.7-7.3-46.4s-4.3-6.2-4.3-6.2s-2.7-17.6-4.7-20.3c-1.9-2.7-4.3-3.9-4.3-3.9
							s-3.5-19.1-8.6-23s-9-1.9-9-1.9S220.1,150,201.5,142.4z"/>
					</g>
				</g>
				<g>
					<g>
						<path class="st8" d="M300.7,231c0,0.2-3.3,0.7-7,2.4c-3.7,1.7-6.3,3.9-6.4,3.7c0,0,0.5-0.7,1.6-1.5c1.1-0.8,2.7-1.9,4.6-2.7
							c1.9-0.9,3.7-1.4,5-1.7C299.8,230.9,300.7,230.9,300.7,231z"/>
					</g>
				</g>
				<g>
					<g>
						<path class="st8" d="M300.3,228.9c0,0.2-3.3,1.1-7.1,3.1c-3.7,2.1-6.3,4.4-6.4,4.3c0,0,0.5-0.7,1.6-1.6
							c1.1-0.9,2.6-2.1,4.5-3.1c1.9-1,3.7-1.8,5.1-2.2C299.4,228.9,300.2,228.8,300.3,228.9z"/>
					</g>
				</g>
				<g>
					<g>
						<path class="st8" d="M298.2,234c0,0.2-2.2,0.2-4.8,0.9c-2.6,0.7-4.5,1.9-4.6,1.7c-0.1-0.1,1.8-1.5,4.4-2.2
							C296,233.6,298.2,233.8,298.2,234z"/>
					</g>
				</g>
				<g>
					<path class="st7" d="M274.9,272.2c-1.8-14,2.8-30.4,14-38.3l2.7,2.2c0,0-13.9,8.3-12.9,36.2"/>
				</g>
				<g>
					<g>
						<g>
							<path class="st8" d="M217.4,252c0,0.2-2.6,0.7-5.4,2.4c-2.8,1.7-4.4,3.8-4.6,3.7c-0.1-0.1,1.4-2.4,4.3-4.2
								C214.6,252.2,217.4,251.9,217.4,252z"/>
						</g>
					</g>
					<g>
						<g>
							<path class="st8" d="M217.1,250.8c0,0.1-2.4,1-5.4,2.1c-3,1.1-5.4,2.1-5.5,2c-0.1-0.1,2.3-1.3,5.3-2.5
								C214.5,251.2,217.1,250.6,217.1,250.8z"/>
						</g>
					</g>
					<g>
						<path class="st7" d="M247.9,275.6l-4.8-1.3c0.7-2.8,0.3-6-1.3-8.5c-0.6-1-1.4-1.9-2.4-2.6c-0.5,3.2-2.5,6-5.3,7.1
							c-2.1,0.9-4.6,0.7-6.6-0.4c-1.9-1-3.2-2.8-3.6-4.7c-0.6-3,1-6.3,3.9-8c1.1-0.6,2.3-1.1,3.7-1.2c-0.1-0.1-0.2-0.2-0.4-0.3
							c-4.2-3.2-10.7-3.4-15.1-0.4l-2.8-4.1c6.2-4.2,15-4,20.9,0.6c1.9,1.5,3.4,3.3,4.3,5.2c3.1,1.2,5.9,3.5,7.6,6.3
							C248.3,266.9,249,271.5,247.9,275.6z M233,260.8c-1.1,0-2,0.2-2.8,0.7c-1,0.6-1.7,1.8-1.5,2.8c0.1,0.7,0.8,1.1,1.1,1.3
							c0.8,0.4,1.7,0.5,2.4,0.2c1.5-0.6,2.5-2.6,2.3-4.6c0-0.1,0-0.1,0-0.2C234,260.9,233.5,260.8,233,260.8z"/>
					</g>
				</g>
				<g>
					<g>
						<path class="st13" d="M207.3,182.8c0,0,0.5,0.2,1.3,0.7c0.9,0.5,2,1.2,3.5,2.2c1.4,1,3.1,2.3,4.8,3.8c1.7,1.5,3.6,3.3,5.4,5.3
							c1.8,2,3.4,4,4.7,5.9c1.3,1.9,2.4,3.7,3.3,5.2c0.9,1.5,1.5,2.8,1.9,3.7c0.4,0.9,0.6,1.4,0.6,1.4c0,0-0.3-0.5-0.8-1.3
							c-0.4-0.9-1.1-2.1-2-3.6c-0.9-1.5-2-3.2-3.3-5.1c-1.4-1.9-2.9-3.8-4.7-5.8c-1.8-2-3.6-3.7-5.3-5.2c-1.7-1.5-3.3-2.8-4.7-3.8
							c-1.4-1-2.6-1.8-3.4-2.4C207.8,183.1,207.3,182.8,207.3,182.8z"/>
					</g>
				</g>
			</g>
			<g>
				<g>
					<path class="st7" d="M191.3,344.7h-0.9c-5,0-9-4-9-9v-32.6c0-5,4-9,9-9h0.9V344.7z"/>
				</g>
				<g>
					<path class="st7" d="M336.8,344.7h-0.9v-50.5h0.9c4.9,0,8.9,4,8.9,8.9v32.8C345.7,340.7,341.7,344.7,336.8,344.7z"/>
				</g>
				<g>
					<path class="st9" d="M324,394.3H202.8c-7.8,0-14.1-6.3-14.1-14.1v-81.8c0-7.8,6.3-14.1,14.1-14.1H324c7.8,0,14.1,6.3,14.1,14.1
						v81.8C338.1,388,331.8,394.3,324,394.3z"/>
				</g>
				<g>
					<path class="st10" d="M282.4,296c-18.9,0-34.2,15.3-34.2,34.2h68.5C316.6,311.3,301.3,296,282.4,296z"/>
				</g>
				<g>
					<g>
						<g>
							<path class="st1" d="M310,328.6c1.4,0,2.7,0,3.7,0c0.9,0,1.5,0.1,1.5,0.1c0,0-0.6,0.1-1.5,0.1c-0.9,0-2.2,0-3.7,0
								c-1.4,0-2.7,0-3.7,0c-0.5,0-0.9,0-1.1,0c-0.3,0-0.4,0-0.4,0c0,0,0.1,0,0.4,0c0.3,0,0.6,0,1.1,0
								C307.2,328.6,308.5,328.6,310,328.6z"/>
						</g>
					</g>
					<g>
						<g>
							<path class="st1" d="M307.6,318.2c2.6-1.2,4.8-2.1,4.8-2c0.1,0.2-2,1.2-4.6,2.4c-2.6,1.2-4.8,2.1-4.8,2
								C302.9,320.6,305,319.5,307.6,318.2z"/>
						</g>
					</g>
					<g>
						<g>
							<path class="st1" d="M301.2,309.8c1.9-2.2,3.5-3.8,3.7-3.7c0.1,0.1-1.3,1.9-3.3,4c-1.9,2.1-3.6,3.8-3.7,3.7
								C297.8,313.7,299.3,311.9,301.2,309.8z"/>
						</g>
					</g>
					<g>
						<g>
							<path class="st1" d="M292,304.4c1-2.7,1.9-4.9,2.1-4.8c0.2,0.1-0.5,2.3-1.6,5c-1,2.7-2,4.8-2.1,4.8
								C290.3,309.3,291,307.1,292,304.4z"/>
						</g>
					</g>
					<g>
						<g>
							<path class="st1" d="M281.5,302.6c0-2.9,0.1-5.2,0.3-5.2c0.2,0,0.3,2.3,0.3,5.2c0,2.9-0.1,5.2-0.3,5.2
								C281.6,307.8,281.5,305.5,281.5,302.6z"/>
						</g>
					</g>
					<g>
						<g>
							<path class="st1" d="M271,304.5c-1-2.7-1.7-4.9-1.6-5s1.1,2.1,2.1,4.8c1,2.7,1.7,4.9,1.6,5C273,309.4,272.1,307.2,271,304.5z
								"/>
						</g>
					</g>
					<g>
						<g>
							<path class="st1" d="M262,310.1c-1.9-2.1-3.4-3.9-3.3-4s1.8,1.5,3.7,3.7c1.9,2.2,3.4,4,3.3,4
								C265.6,313.9,263.9,312.2,262,310.1z"/>
						</g>
					</g>
					<g>
						<g>
							<path class="st1" d="M255.7,318.7c-2.6-1.2-4.7-2.3-4.6-2.4s2.2,0.7,4.8,2c2.6,1.2,4.7,2.3,4.6,2.4
								C260.5,320.7,258.3,319.9,255.7,318.7z"/>
						</g>
					</g>
					<g>
						<g>
							<path class="st1" d="M253.5,328.8c-1.4,0-2.7,0-3.7,0c-0.9,0-1.5-0.1-1.5-0.1s0.6-0.1,1.5-0.1c0.9,0,2.2,0,3.7,0
								c1.4,0,2.7,0.1,3.7,0.1c0.5,0,0.9,0,1.1,0c0.3,0,0.4,0,0.4,0c0,0-0.1,0-0.4,0c-0.3,0-0.6,0-1.1,0
								C256.3,328.8,255,328.8,253.5,328.8z"/>
						</g>
					</g>
				</g>
				<g>
					<path class="st10" d="M225.3,302c0,2.5-2,4.5-4.5,4.5c-2.5,0-4.5-2-4.5-4.5c0-2.5,2-4.5,4.5-4.5
						C223.3,297.5,225.3,299.5,225.3,302z"/>
				</g>
				<g>
					<path class="st8" d="M225.3,315.7c0,2.5-2,4.5-4.5,4.5c-2.5,0-4.5-2-4.5-4.5c0-2.5,2-4.5,4.5-4.5
						C223.3,311.2,225.3,313.2,225.3,315.7z"/>
				</g>
				<g>
					<g>
						<path class="st7" d="M311.4,384.8c0,0,0-0.3,0-0.9c0-0.6,0-1.4,0-2.5c0-2.2,0-5.3,0-9.4c0-8.1-0.1-19.8-0.1-34.3l0.2,0.2
							c-24.5,0-57.2,0-93.2,0.1h0l0.3-0.3c0,16.6,0,32.5,0,47l-0.2-0.2c27.2,0,50.4,0.1,66.9,0.1c8.2,0,14.8,0.1,19.3,0.1
							c2.2,0,4,0,5.2,0c0.6,0,1,0,1.3,0C311.3,384.8,311.4,384.8,311.4,384.8s-0.1,0-0.4,0c-0.3,0-0.7,0-1.3,0c-1.2,0-2.9,0-5.1,0
							c-4.5,0-11,0-19.2,0.1c-16.5,0-39.8,0.1-67.1,0.1H218v-0.2c0-14.5,0-30.4,0-47v-0.3h0.3h0c35.9,0,68.7,0,93.2,0.1h0.2l0,0.2
							c0,14.5-0.1,26.3-0.1,34.4c0,4,0,7.2,0,9.3c0,1.1,0,1.9,0,2.4C311.4,384.6,311.4,384.8,311.4,384.8z"/>
					</g>
				</g>
				<g>
					<path class="st7" d="M316.4,400.9H210.3c-3.4,0-6.2-2.8-6.2-6.2v-0.6h118.6v0.6C322.7,398.1,319.9,400.9,316.4,400.9z"/>
				</g>
				<g>
					<g class="st11">
						<g>
							<path d="M301.5,344.4c-0.2,1.3,0.7,2.6,1.9,3s2.7-0.2,3.4-1.2s0.7-2.6,0-3.7c0,0.8-0.2,1.7-0.8,2.3c-0.6,0.6-1.4,1-2.3,0.9
								c-0.8-0.1-1.6-0.8-1.7-1.6"/>
						</g>
					</g>
					<g>
						<g>
							<g>
								<path class="st1" d="M306.8,343.3c0,1.5-1.2,2.8-2.8,2.8s-2.8-1.2-2.8-2.8s1.2-2.8,2.8-2.8S306.8,341.8,306.8,343.3z"/>
							</g>
							<g>
								<g>
									<path class="st7" d="M306.8,343.3c0,0-0.1-0.2-0.2-0.6c-0.1-0.4-0.4-1-1-1.4c-0.6-0.4-1.5-0.7-2.4-0.3
										c-0.9,0.3-1.7,1.3-1.6,2.4c0,1.1,0.8,2.1,1.6,2.4c0.9,0.3,1.8,0.1,2.4-0.3c0.6-0.4,0.9-1,1-1.4
										C306.8,343.6,306.8,343.3,306.8,343.3c0,0,0.1,0.2,0,0.7c-0.1,0.4-0.3,1.1-1,1.6c-0.6,0.5-1.7,0.9-2.8,0.5
										c-1.1-0.3-2-1.5-2-2.8c0-1.3,0.9-2.5,2-2.8c1.1-0.4,2.2-0.1,2.8,0.5c0.7,0.5,0.9,1.2,1,1.6
										C306.9,343.1,306.8,343.3,306.8,343.3z"/>
								</g>
							</g>
						</g>
						<g>
							<g>
								<path class="st7" d="M305.3,342.1c0.1,0.1-0.6,0.5-1.2,1.1c-0.6,0.6-0.9,1.3-1.1,1.2c-0.1,0,0-0.9,0.7-1.6
									C304.4,342.2,305.3,342,305.3,342.1z"/>
							</g>
						</g>
						<g>
							<g>
								<path class="st7" d="M305.3,344.2c-0.1,0.1-0.6-0.4-1.3-0.9c-0.7-0.5-1.3-0.7-1.3-0.8c0-0.1,0.8-0.1,1.6,0.4
									C305.1,343.4,305.4,344.1,305.3,344.2z"/>
							</g>
						</g>
					</g>
				</g>
				<g>
					<g class="st11">
						<g>
							<path d="M302.8,378.6c-0.2,1.3,0.7,2.6,1.9,3s2.7-0.2,3.4-1.2s0.7-2.6,0-3.7c0,0.8-0.2,1.7-0.8,2.3s-1.4,1-2.3,0.9
								c-0.8-0.1-1.6-0.8-1.7-1.6"/>
						</g>
					</g>
					<g>
						<g>
							<g>
								<circle class="st1" cx="305.3" cy="377.5" r="2.8"/>
							</g>
							<g>
								<g>
									<path class="st7" d="M308.1,377.5c0,0-0.1-0.2-0.2-0.6c-0.1-0.4-0.4-1-1-1.4c-0.6-0.4-1.5-0.7-2.4-0.3
										c-0.9,0.3-1.7,1.3-1.6,2.4c0,1.1,0.8,2.1,1.6,2.4c0.9,0.3,1.8,0.1,2.4-0.3c0.6-0.4,0.9-1,1-1.4
										C308.1,377.8,308.1,377.5,308.1,377.5c0,0,0.1,0.2,0,0.7c-0.1,0.4-0.3,1.1-1,1.6c-0.6,0.5-1.7,0.9-2.8,0.5
										c-1.1-0.3-2-1.5-2-2.8c0-1.3,0.9-2.5,2-2.8c1.1-0.4,2.2-0.1,2.8,0.5c0.7,0.5,0.9,1.2,1,1.6
										C308.2,377.3,308.1,377.5,308.1,377.5z"/>
								</g>
							</g>
						</g>
						<g>
							<g>
								<path class="st7" d="M306.6,376.3c0.1,0.1-0.6,0.5-1.2,1.1c-0.6,0.6-0.9,1.3-1.1,1.2c-0.1,0,0-0.9,0.7-1.6
									C305.7,376.4,306.6,376.2,306.6,376.3z"/>
							</g>
						</g>
						<g>
							<g>
								<path class="st7" d="M306.6,378.4c-0.1,0.1-0.6-0.4-1.3-0.9c-0.7-0.5-1.3-0.7-1.3-0.8c0-0.1,0.8-0.1,1.6,0.4
									C306.4,377.6,306.7,378.3,306.6,378.4z"/>
							</g>
						</g>
					</g>
				</g>
				<g>
					<g class="st11">
						<g>
							<path d="M222.4,344.4c-0.2,1.3,0.7,2.6,1.9,3s2.7-0.2,3.4-1.2c0.7-1.1,0.7-2.6,0-3.7c0,0.8-0.2,1.7-0.8,2.3s-1.4,1-2.3,0.9
								c-0.8-0.1-1.6-0.8-1.7-1.6"/>
						</g>
					</g>
					<g>
						<g>
							<g>
								<circle class="st1" cx="225" cy="343.3" r="2.8"/>
							</g>
							<g>
								<g>
									<path class="st7" d="M227.7,343.3c0,0-0.1-0.2-0.2-0.6c-0.1-0.4-0.4-1-1-1.4c-0.6-0.4-1.5-0.7-2.4-0.3
										c-0.9,0.3-1.7,1.3-1.6,2.4c0,1.1,0.8,2.1,1.6,2.4c0.9,0.3,1.8,0.1,2.4-0.3c0.6-0.4,0.9-1,1-1.4
										C227.7,343.5,227.7,343.3,227.7,343.3c0,0,0.1,0.2,0,0.7c-0.1,0.4-0.3,1.1-1,1.6c-0.6,0.5-1.7,0.9-2.8,0.5
										c-1.1-0.3-2-1.5-2-2.8c0-1.3,0.9-2.5,2-2.8c1.1-0.4,2.2-0.1,2.8,0.5c0.7,0.5,0.9,1.2,1,1.6
										C227.8,343,227.8,343.3,227.7,343.3z"/>
								</g>
							</g>
						</g>
						<g>
							<g>
								<path class="st7" d="M226.2,342.1c0.1,0.1-0.6,0.5-1.2,1.1c-0.6,0.6-0.9,1.3-1.1,1.2c-0.1,0,0-0.9,0.7-1.6
									C225.4,342.1,226.2,342,226.2,342.1z"/>
							</g>
						</g>
						<g>
							<g>
								<path class="st7" d="M226.2,344.1c-0.1,0.1-0.6-0.4-1.3-0.9c-0.7-0.5-1.3-0.7-1.3-0.8c0-0.1,0.8-0.1,1.6,0.4
									C226,343.4,226.4,344.1,226.2,344.1z"/>
							</g>
						</g>
					</g>
				</g>
				<g>
					<g class="st11">
						<g>
							<path d="M221.8,378.3c-0.2,1.3,0.7,2.6,1.9,3s2.7-0.2,3.4-1.2c0.7-1.1,0.7-2.6,0-3.7c0,0.8-0.2,1.7-0.8,2.3s-1.4,1-2.3,0.9
								c-0.8-0.1-1.6-0.8-1.7-1.6"/>
						</g>
					</g>
					<g>
						<g>
							<g>
								<circle class="st1" cx="224.4" cy="377.2" r="2.8"/>
							</g>
							<g>
								<g>
									<path class="st7" d="M227.1,377.2c0,0-0.1-0.2-0.2-0.6c-0.1-0.4-0.4-1-1-1.4c-0.6-0.4-1.5-0.7-2.4-0.3
										c-0.9,0.3-1.7,1.3-1.6,2.4c0,1.1,0.8,2.1,1.6,2.4c0.9,0.3,1.8,0.1,2.4-0.3c0.6-0.4,0.9-1,1-1.4
										C227.1,377.4,227.1,377.2,227.1,377.2c0,0,0.1,0.2,0,0.7c-0.1,0.4-0.3,1.1-1,1.6c-0.6,0.5-1.7,0.9-2.8,0.5
										c-1.1-0.3-2-1.5-2-2.8c0-1.3,0.9-2.5,2-2.8c1.1-0.4,2.2-0.1,2.8,0.5c0.7,0.5,0.9,1.2,1,1.6
										C227.2,376.9,227.2,377.2,227.1,377.2z"/>
								</g>
							</g>
						</g>
						<g>
							<g>
								<path class="st7" d="M225.7,376c0.1,0.1-0.6,0.5-1.2,1.1c-0.6,0.6-0.9,1.3-1.1,1.2c-0.1,0,0-0.9,0.7-1.6
									C224.8,376,225.6,375.9,225.7,376z"/>
							</g>
						</g>
						<g>
							<g>
								<path class="st7" d="M225.7,378c-0.1,0.1-0.6-0.4-1.3-0.9c-0.7-0.5-1.3-0.7-1.3-0.8c0-0.1,0.8-0.1,1.6,0.4
									C225.5,377.3,225.8,378,225.7,378z"/>
							</g>
						</g>
					</g>
				</g>
				<g class="st11">
					<g>
						<path d="M218.3,385.1c10.8,2.4,23.5,2.4,35.1,1.9c5.6-0.3,11.8-0.6,16.3,2.8c1,0.7,2.1,1.7,3.3,1.3c1.7-0.6,1.7-3.7,3.5-3.8
							c0.9,0,1.6,0.8,1.9,1.7c0.3,0.9,0.4,1.8,0.8,2.6c0.5,0.8,1.6,1.3,2.3,0.8c1.1-0.9-0.2-2.7,0.3-4.1c0.4-1.4,2.5-1.5,3.8-1
							c1.4,0.6,2.7,1.5,4.2,1.3c1.1-0.2,1.9-0.9,2.8-1.5c2.6-1.6,5.9-1.7,9-1.8c3.3-0.1,6.6-0.4,9.9-0.4L218.3,385.1z"/>
					</g>
				</g>
				<g>
					<g>
						<path class="st7" d="M292.8,349.8c0,0-0.2,0.1-0.5,0.2c-0.3,0.1-0.8,0.2-1.5,0.5c-1.2,0.5-2.9,1.4-4.9,2.8
							c-2,1.4-4.1,3.2-6.8,4.9c-1.4,0.8-2.9,1.5-4.6,1.9c-1.7,0.4-3.5,0.3-5.3,0.4c-3.6,0-6.8,1.5-9.6,3c-2.8,1.5-5.3,2.8-7.3,4.2
							c-2,1.3-3.4,2.6-4.3,3.6c-0.9,1-1.4,1.6-1.4,1.5c0,0,0.1-0.2,0.3-0.5c0.2-0.3,0.5-0.7,1-1.2c0.9-1,2.3-2.4,4.3-3.7
							c2-1.4,4.5-2.8,7.2-4.3c1.4-0.8,2.9-1.5,4.5-2.1c1.6-0.6,3.5-0.9,5.3-1c1.8-0.1,3.6,0,5.2-0.4c1.6-0.4,3.1-1.1,4.5-1.8
							c2.7-1.6,4.9-3.5,6.9-4.8c2-1.4,3.7-2.2,5-2.7c0.6-0.2,1.1-0.3,1.5-0.4C292.6,349.8,292.8,349.8,292.8,349.8z"/>
					</g>
				</g>
				<g>
					<g>
						<path class="st7" d="M269.1,357.7c0,0.1-1.1-0.1-2.9-0.4c-1.8-0.4-4.2-1.1-6.8-2.1c-2.6-1-4.8-2.2-6.3-3.2
							c-1.5-0.9-2.4-1.6-2.4-1.7c0-0.1,1,0.5,2.6,1.4c1.6,0.9,3.8,2,6.4,3c2.5,1,4.9,1.8,6.7,2.2C268,357.4,269.1,357.6,269.1,357.7
							z"/>
					</g>
				</g>
				<g>
					<path class="st13" d="M284.1,325.1c0.8-0.4,23.2-7.6,23.2-7.6l-21.5,12L284.1,325.1z"/>
				</g>
				<g>
					<path class="st7" d="M281.8,322.6c-4.2,0-7.6,3.4-7.6,7.6h15.2C289.4,326,286,322.6,281.8,322.6z"/>
				</g>
				<g>
					<g>
						<path class="st7" d="M205.3,394.1c-0.1,0-0.3-24.4-0.3-54.5c0-30.1,0.1-54.5,0.3-54.5c0.1,0,0.3,24.4,0.3,54.5
							C205.6,369.7,205.5,394.1,205.3,394.1z"/>
					</g>
				</g>
				<g>
					<g>
						<path class="st7" d="M324.2,394.1c-0.1,0-0.3-24.4-0.3-54.5c0-30.1,0.1-54.5,0.3-54.5s0.3,24.4,0.3,54.5
							C324.5,369.7,324.3,394.1,324.2,394.1z"/>
					</g>
				</g>
				<g>
					<circle class="st7" cx="200.4" cy="298.6" r="1.2"/>
				</g>
				<g>
					<circle class="st7" cx="200.4" cy="320.5" r="1.2"/>
				</g>
				<g>
					<circle class="st7" cx="200.4" cy="342.4" r="1.2"/>
				</g>
				<g>
					<circle class="st7" cx="200.4" cy="364.3" r="1.2"/>
				</g>
				<g>
					<circle class="st7" cx="200.4" cy="386.2" r="1.2"/>
				</g>
				<g>
					<circle class="st7" cx="330.3" cy="298.6" r="1.2"/>
				</g>
				<g>
					<circle class="st7" cx="330.3" cy="320.5" r="1.2"/>
				</g>
				<g>
					<circle class="st7" cx="330.3" cy="342.4" r="1.2"/>
				</g>
				<g>
					<circle class="st7" cx="330.3" cy="364.3" r="1.2"/>
				</g>
				<g>
					<circle class="st7" cx="330.3" cy="386.2" r="1.2"/>
				</g>
				<g>
					<g>
						<rect x="234.3" y="272.3" class="st8" width="51.1" height="12"/>
					</g>
					<g>
						<g>
							<path class="st7" d="M238,284.3c-0.1,0-0.3-2.6-0.3-5.8c0-3.2,0.1-5.8,0.3-5.8c0.1,0,0.3,2.6,0.3,5.8
								C238.2,281.7,238.1,284.3,238,284.3z"/>
						</g>
					</g>
					<g>
						<g>
							<path class="st7" d="M243.2,284.3c-0.1,0-0.3-2.6-0.3-5.8c0-3.2,0.1-5.8,0.3-5.8c0.1,0,0.3,2.6,0.3,5.8
								C243.5,281.7,243.4,284.3,243.2,284.3z"/>
						</g>
					</g>
					<g>
						<g>
							<path class="st7" d="M248.5,284.3c-0.1,0-0.3-2.6-0.3-5.8c0-3.2,0.1-5.8,0.3-5.8c0.1,0,0.3,2.6,0.3,5.8
								C248.7,281.7,248.6,284.3,248.5,284.3z"/>
						</g>
					</g>
					<g>
						<g>
							<path class="st7" d="M253.7,284.3c-0.1,0-0.3-2.6-0.3-5.8c0-3.2,0.1-5.8,0.3-5.8c0.1,0,0.3,2.6,0.3,5.8
								C254,281.7,253.9,284.3,253.7,284.3z"/>
						</g>
					</g>
					<g>
						<g>
							<path class="st7" d="M259,284.3c-0.1,0-0.3-2.6-0.3-5.8c0-3.2,0.1-5.8,0.3-5.8s0.3,2.6,0.3,5.8
								C259.2,281.7,259.1,284.3,259,284.3z"/>
						</g>
					</g>
					<g>
						<g>
							<path class="st7" d="M264.2,284.3c-0.1,0-0.3-2.6-0.3-5.8c0-3.2,0.1-5.8,0.3-5.8s0.3,2.6,0.3,5.8
								C264.5,281.7,264.4,284.3,264.2,284.3z"/>
						</g>
					</g>
					<g>
						<g>
							<path class="st7" d="M269.5,284.3c-0.1,0-0.3-2.6-0.3-5.8c0-3.2,0.1-5.8,0.3-5.8s0.3,2.6,0.3,5.8
								C269.7,281.7,269.6,284.3,269.5,284.3z"/>
						</g>
					</g>
					<g>
						<g>
							<path class="st7" d="M274.7,284.3c-0.1,0-0.3-2.6-0.3-5.8c0-3.2,0.1-5.8,0.3-5.8s0.3,2.6,0.3,5.8
								C275,281.7,274.9,284.3,274.7,284.3z"/>
						</g>
					</g>
					<g>
						<g>
							<path class="st7" d="M280,284.3c-0.1,0-0.3-2.6-0.3-5.8c0-3.2,0.1-5.8,0.3-5.8s0.3,2.6,0.3,5.8
								C280.2,281.7,280.1,284.3,280,284.3z"/>
						</g>
					</g>
				</g>
				<g class="st11">
					<g>
						<path d="M345.7,310.4c1.2,6.3,2.4,12.2,3.6,18.4c-1.2,0.1-3.6,0-3.6,0C345.7,322.8,345.7,316.4,345.7,310.4"/>
					</g>
				</g>
				<g>
					<g>
						<path class="st10" d="M192.1,296.1c0.1,0,0,18.7-0.3,41.7c-0.3,23-0.7,41.7-0.9,41.7c-0.1,0,0-18.7,0.3-41.7
							C191.6,314.7,192,296.1,192.1,296.1z"/>
					</g>
				</g>
				<g>
					<g>
						<path class="st10" d="M213.9,382c-0.1,0-0.3-9.3-0.3-20.8c0-11.5,0.1-20.8,0.3-20.8c0.1,0,0.3,9.3,0.3,20.8
							C214.1,372.7,214,382,213.9,382z"/>
					</g>
				</g>
				<g>
					<g>
						<path class="st10" d="M312.1,287.7c0,0.1-22.9,0.3-51.2,0.3c-28.3,0-51.2-0.1-51.2-0.3c0-0.1,22.9-0.3,51.2-0.3
							C289.2,287.4,312.1,287.5,312.1,287.7z"/>
					</g>
				</g>
			</g>
		</g>
	</g>
	<g>
		<g>
			<g>
				<path class="st4" d="M30.5,115.5c0.4-1.8,1.1-3.4,2-5l-2.7-4.1l5.7-5.9l4.2,2.6c1.5-0.9,3.2-1.6,4.9-2.1l1-4.8l8.2-0.1l1.2,4.8
					c1.8,0.4,3.4,1.1,5,2l4.1-2.7l5.9,5.7l-2.6,4.2c0.9,1.5,1.6,3.2,2.1,4.9l4.8,1l0.1,8.2l-4.8,1.2c-0.4,1.8-1.1,3.4-2,5l2.7,4.1
					l-5.7,5.9l-4.2-2.6c-1.5,0.9-3.2,1.6-4.9,2.1l-1,4.8l-8.2,0.1l-1.2-4.8c-1.8-0.4-3.4-1.1-5-2l-4.1,2.7l-5.9-5.7l2.6-4.2
					c-0.9-1.5-1.6-3.2-2.1-4.9l-4.8-1l-0.1-8.2L30.5,115.5L30.5,115.5z M41.3,120.2c0.1,4.9,4.1,8.7,8.9,8.6
					c4.9-0.1,8.7-4.1,8.6-8.9c-0.1-4.9-4.1-8.7-8.9-8.6C45.1,111.3,41.3,115.3,41.3,120.2z"/>
			</g>
		</g>
	</g>
</g>
<g id="cono">
	<path class="st18" d="M451.5,444.3l-24-9.3l-1.3-3.6c0,0,0,0,0,0l-6.4-18.1l-18.9-53.4c-0.7-2-2.5-3.4-4.7-3.4
		c-2,0-3.6,1.1-4.5,2.7c0,0,0,0,0,0c0,0,0,0,0,0c0,0,0,0,0,0c0,0,0,0,0,0c0,0,0,0,0,0.1c0,0,0,0,0,0c0,0,0,0,0,0.1c0,0,0,0,0,0
		c0,0,0,0,0,0.1c0,0,0,0,0,0c0,0,0,0,0,0c0,0,0,0,0,0.1c0,0,0,0,0,0c0,0,0,0,0,0.1c0,0,0,0,0,0c0,0,0,0,0,0.1c0,0,0,0,0,0
		c0,0,0,0,0,0.1c0,0,0,0,0,0c0,0,0,0,0,0.1c0,0,0,0,0,0c0,0,0,0.1,0,0.1l-5,14.1l-4.3,12.1l-9.5,26.7l0,0l-2.9,8.1l-4.9,13.6
		l-23.8,9.3c-3.5,1.4-3.5,4.6,0,6l52.5,20.4c1.7,0.7,3.9,0.7,5.6,0l19.7-7.7l0,0l32.8-12.7C455,448.9,455,445.6,451.5,444.3z"/>
	<path class="st19" d="M429.5,440.8l-2.1-5.8l-1.3-3.6c-5.7,3.2-16.9,5.4-29.8,5.5c2.3,5.9,5.4,11.4,9.7,16.1c0,0,0,0,0,0
		c14-1.3,24.2-5.3,24.2-9.9C430.3,442.2,430,441.5,429.5,440.8z"/>
	<path class="st19" d="M405.4,415.8c2.9,6.6,5.7,10.6,7.4,10.2c1.7-0.5,2.1-4.9,1.4-11.3c2-0.4,3.9-0.8,5.6-1.3l-6.8-19.2
		c-1,0.2-2.1,0.3-3.1,0.5v0c-2.6-8.7-5.6-15.9-8.2-19.9c1.4-0.1,2.7-0.2,4-0.3c0.1,0,0.2-0.1,0.3-0.1l-5.1-14.4
		c-0.7-2-2.5-3.4-4.7-3.4c-0.4,0-0.8,0-1.1,0.1c-0.8,6-1.7,12-2.5,18.1c0,0,0,0,0,0c1.2,0,2.4,0.1,3.6,0.1c0,0,0.1,0,0.1,0v0
		c-0.5,4.1,0.4,11.8,2.5,20.6c-0.9,0-1.7,0-2.6,0c-1.9,0-3.7,0-5.5-0.1c-0.2,4.4-0.2,8.8,0.1,13.2c0.1,2.5,0.4,5,0.7,7.5
		c0,0,0,0,0,0c1.5,0.1,3.1,0.1,4.7,0.1C399.4,416.1,402.4,416,405.4,415.8C405.4,415.8,405.4,415.8,405.4,415.8z"/>
	<path class="st20" d="M392.5,374.7c0.8-6,1.7-12.1,2.5-18.1c-1.5,0.4-2.8,1.4-3.4,2.8c0,0,0,0,0,0c0,0,0,0,0,0.1c0,0,0,0,0,0
		c0,0,0,0,0,0.1c0,0,0,0,0,0c0,0,0,0,0,0c0,0,0,0,0,0.1c0,0,0,0,0,0c0,0,0,0,0,0.1c0,0,0,0,0,0c0,0,0,0,0,0.1c0,0,0,0,0,0
		c0,0,0,0,0,0.1c0,0,0,0,0,0c0,0,0,0,0,0.1c0,0,0,0,0,0c0,0,0,0.1,0,0.1l-5,14.1C388.3,374.5,390.4,374.6,392.5,374.7z"/>
	<path class="st20" d="M390.7,395.3C390.7,395.3,390.7,395.3,390.7,395.3c-4.1-0.2-7.9-0.6-11.4-1.2l0,0l-6.8,19.2l0,0
		c5.1,1.5,11.7,2.5,19,2.8c-0.3-2.5-0.5-5.1-0.7-7.5C390.6,404.1,390.6,399.7,390.7,395.3z"/>
	<path class="st20" d="M396.4,436.8c-0.1,0-0.1,0-0.2,0c-13,0-24.4-2.2-30.1-5.5l-1.3,3.7l-2.3,6.4c-0.3,0.5-0.4,1-0.4,1.6
		c0,5.7,15.3,10.4,34.1,10.4c3.5,0,6.8-0.2,9.9-0.4C401.9,448.2,398.7,442.7,396.4,436.8C396.4,436.8,396.4,436.8,396.4,436.8z"/>
	<path class="st21" d="M414.2,414.6L414.2,414.6c-0.5-4.9-1.7-10.9-3.5-17.3c-0.3-0.9-0.5-1.8-0.8-2.7v0c-2.6-8.7-5.6-15.9-8.2-19.9
		v0c-1.5-2.3-2.8-3.4-3.8-3.2c-0.8,0.2-1.3,1.4-1.6,3.3v0c-0.5,4.1,0.4,11.8,2.5,20.6c0.4,1.6,0.8,3.1,1.2,4.8
		c1.6,5.9,3.5,11.3,5.4,15.6c0,0,0,0,0,0c2.9,6.6,5.7,10.6,7.4,10.2C414.5,425.5,414.9,421.1,414.2,414.6z"/>
	<path class="st22" d="M401.7,374.6c-1.5-2.3-2.8-3.4-3.8-3.2c-0.8,0.2-1.3,1.4-1.6,3.3c0,0,0,0,0,0
		C398.1,374.8,399.9,374.7,401.7,374.6z"/>
	<path class="st22" d="M398.8,395.4L398.8,395.4c0.4,1.6,0.8,3.1,1.2,4.8c1.6,5.9,3.5,11.3,5.4,15.6c0,0,0,0,0,0
		c3.1-0.3,6.1-0.7,8.8-1.2c-0.5-4.9-1.7-10.9-3.5-17.3c-0.3-0.9-0.5-1.8-0.8-2.7c0,0,0,0,0,0C406.4,395,402.7,395.3,398.8,395.4z"/>
	<path class="st18" d="M112.4,415.8L96,409.2l-0.9-2.5c0,0,0,0,0,0l-4.4-12.6l-12.9-37.2c-0.4-1.4-1.7-2.3-3.2-2.3
		c-1.3,0-2.5,0.8-3,1.9c0,0,0,0,0,0c0,0,0,0,0,0c0,0,0,0,0,0c0,0,0,0,0,0c0,0,0,0,0,0c0,0,0,0,0,0c0,0,0,0,0,0c0,0,0,0,0,0
		c0,0,0,0,0,0c0,0,0,0,0,0c0,0,0,0,0,0c0,0,0,0,0,0c0,0,0,0,0,0c0,0,0,0,0,0c0,0,0,0,0,0c0,0,0,0,0,0c0,0,0,0,0,0c0,0,0,0,0,0
		c0,0,0,0,0,0c0,0,0,0,0,0c0,0,0,0,0,0c0,0,0,0,0,0.1l-3.4,9.8l-3,8.5l-6.5,18.6l0,0l-2,5.7l-3.3,9.5l-16.3,6.5
		c-2.4,0.9-2.4,3.2,0,4.2l35.8,14.2c1.2,0.5,2.7,0.5,3.9,0l13.5-5.3l0,0l22.4-8.9C114.8,419,114.8,416.7,112.4,415.8z"/>
	<path class="st19" d="M97.4,413.3l-1.4-4.1l-0.9-2.5c-3.9,2.3-11.6,3.8-20.3,3.8c1.6,4.1,3.7,8,6.6,11.2c0,0,0,0,0,0
		c9.6-0.9,16.5-3.7,16.5-6.9C97.9,414.3,97.7,413.8,97.4,413.3z"/>
	<path class="st19" d="M80.9,395.9c1.9,4.6,3.9,7.4,5.1,7.1c1.2-0.3,1.4-3.4,0.9-7.9c1.4-0.3,2.7-0.6,3.9-0.9l-4.6-13.4
		c-0.7,0.1-1.4,0.2-2.1,0.3v0c-1.8-6.1-3.8-11.1-5.6-13.9c0.9,0,1.8-0.1,2.7-0.2c0.1,0,0.1-0.1,0.2-0.1l-3.5-10
		c-0.4-1.4-1.7-2.3-3.2-2.3c-0.3,0-0.5,0-0.8,0.1c-0.6,4.2-1.2,8.4-1.7,12.6c0,0,0,0,0,0c0.8,0,1.6,0,2.5,0c0,0,0,0,0.1,0v0
		c-0.3,2.9,0.3,8.2,1.7,14.4c-0.6,0-1.2,0-1.8,0c-1.3,0-2.5,0-3.7-0.1c-0.1,3.1-0.1,6.1,0.1,9.2c0.1,1.7,0.2,3.5,0.5,5.3
		c0,0,0,0,0,0c1.1,0,2.1,0.1,3.2,0.1C76.8,396.2,78.9,396.1,80.9,395.9C80.9,395.9,80.9,395.9,80.9,395.9z"/>
	<path class="st20" d="M72.1,367.3c0.5-4.2,1.1-8.4,1.7-12.6c-1,0.2-1.9,1-2.3,2c0,0,0,0,0,0c0,0,0,0,0,0c0,0,0,0,0,0c0,0,0,0,0,0
		c0,0,0,0,0,0c0,0,0,0,0,0c0,0,0,0,0,0c0,0,0,0,0,0c0,0,0,0,0,0c0,0,0,0,0,0c0,0,0,0,0,0c0,0,0,0,0,0c0,0,0,0,0,0c0,0,0,0,0,0
		c0,0,0,0,0,0c0,0,0,0,0,0c0,0,0,0,0,0.1l-3.4,9.8C69.2,367.2,70.7,367.2,72.1,367.3z"/>
	<path class="st20" d="M70.9,381.6C70.9,381.6,70.9,381.6,70.9,381.6c-2.8-0.1-5.4-0.4-7.8-0.9l0,0l-4.7,13.4l0,0c3.5,1,8,1.7,13,2
		c-0.2-1.8-0.4-3.5-0.5-5.3C70.8,387.7,70.8,384.7,70.9,381.6z"/>
	<path class="st20" d="M74.8,410.5c-0.1,0-0.1,0-0.2,0c-8.9,0-16.7-1.6-20.6-3.8l-0.9,2.6l-1.6,4.4c-0.2,0.4-0.3,0.7-0.3,1.1
		c0,4,10.4,7.2,23.3,7.2c2.4,0,4.6-0.1,6.8-0.3C78.5,418.5,76.3,414.6,74.8,410.5C74.8,410.5,74.8,410.5,74.8,410.5z"/>
	<path class="st21" d="M86.9,395.1L86.9,395.1c-0.4-3.4-1.2-7.6-2.4-12.1c-0.2-0.6-0.4-1.3-0.5-1.9v0c-1.8-6.1-3.8-11.1-5.6-13.9v0
		c-1-1.6-1.9-2.4-2.6-2.2c-0.6,0.2-0.9,1-1.1,2.3v0c-0.3,2.9,0.3,8.2,1.7,14.4c0.3,1.1,0.5,2.2,0.8,3.3c1.1,4.1,2.4,7.9,3.7,10.9
		c0,0,0,0,0,0c1.9,4.6,3.9,7.4,5.1,7.1C87.1,402.7,87.4,399.6,86.9,395.1z"/>
	<path class="st22" d="M78.4,367.2c-1-1.6-1.9-2.4-2.6-2.2c-0.6,0.2-0.9,1-1.1,2.3c0,0,0,0,0,0C75.9,367.3,77.2,367.3,78.4,367.2z"
		/>
	<path class="st22" d="M76.4,381.7L76.4,381.7c0.3,1.1,0.5,2.2,0.8,3.3c1.1,4.1,2.4,7.9,3.7,10.9c0,0,0,0,0,0c2.1-0.2,4.2-0.5,6-0.8
		c-0.4-3.4-1.2-7.6-2.4-12.1c-0.2-0.6-0.4-1.3-0.5-1.9c0,0,0,0,0,0C81.6,381.4,79.1,381.6,76.4,381.7z"/>
</g>
</svg>
