<?xml version="1.0" encoding="utf-8"?>
<!-- Generator: Adobe Illustrator 23.0.5, SVG Export Plug-In . SVG Version: 6.00 Build 0)  -->
<svg version="1.1" id="Capa_1" xmlns="http://www.w3.org/2000/svg" xmlns:xlink="http://www.w3.org/1999/xlink" x="0px" y="0px"
	 viewBox="0 0 44.9 53.2" style="enable-background:new 0 0 44.9 53.2;" xml:space="preserve">
<style type="text/css">
	.st0{fill:url(#SVGID_1_);}
</style>
<g>
	<path d="M30.9,32.2c0,1.5-0.4,2.8-1.1,3.9S28,38,26.6,38.6s-3,0.9-5,0.9c-0.9,0-1.7-0.1-2.5-0.2c-0.8-0.1-1.6-0.3-2.4-0.5
		c-0.8-0.2-1.5-0.5-2.2-0.8v-4.9c1.2,0.5,2.4,1,3.7,1.4s2.5,0.6,3.8,0.6c0.9,0,1.6-0.1,2.1-0.3s0.9-0.5,1.2-0.9
		c0.2-0.4,0.4-0.9,0.4-1.4c0-0.6-0.2-1.2-0.6-1.6s-1-0.9-1.7-1.2c-0.7-0.4-1.6-0.8-2.5-1.2c-0.6-0.3-1.2-0.6-1.9-1
		c-0.7-0.4-1.3-0.9-1.9-1.4c-0.6-0.6-1.1-1.3-1.5-2.1c-0.4-0.8-0.6-1.8-0.6-2.9c0-1.5,0.3-2.8,1-3.8c0.7-1.1,1.7-1.9,2.9-2.4
		c1.3-0.6,2.8-0.8,4.5-0.8c1.3,0,2.5,0.2,3.7,0.5s2.4,0.7,3.7,1.3L29,19.7c-1.2-0.5-2.2-0.8-3.1-1.1c-0.9-0.3-1.8-0.4-2.8-0.4
		c-0.7,0-1.2,0.1-1.7,0.3c-0.5,0.2-0.8,0.5-1.1,0.9c-0.2,0.4-0.4,0.8-0.4,1.3c0,0.6,0.2,1.1,0.5,1.5s0.9,0.8,1.6,1.2
		c0.7,0.4,1.6,0.8,2.6,1.3c1.3,0.6,2.4,1.2,3.3,1.9c0.9,0.7,1.6,1.4,2.1,2.3C30.6,29.8,30.9,30.9,30.9,32.2z"/>
	
		<linearGradient id="SVGID_1_" gradientUnits="userSpaceOnUse" x1="1.1" y1="2406.8999" x2="44.0362" y2="2406.8999" gradientTransform="matrix(1 0 0 1 0 -2380)">
		<stop  offset="1.118836e-07" style="stop-color:#074BA8"/>
		<stop  offset="0.201" style="stop-color:#3657B3"/>
		<stop  offset="0.4731" style="stop-color:#6F65C0"/>
		<stop  offset="0.7067" style="stop-color:#986FC9"/>
		<stop  offset="0.8899" style="stop-color:#B276CF"/>
		<stop  offset="1" style="stop-color:#BB78D1"/>
	</linearGradient>
	<path class="st0" d="M23.7,1.8h-2.1L1.1,13.6v26.3L21.5,52h2.2l20.4-12V13.6L23.7,1.8z M38.9,36.3L23,46.1h-0.7L6.5,36V17.5l15-9.1
		h2.2l15.2,9.1V36.3z"/>
</g>
</svg>
