<?xml version="1.0" encoding="utf-8"?>
<!-- Generator: Adobe Illustrator 23.0.5, SVG Export Plug-In . SVG Version: 6.00 Build 0)  -->
<svg version="1.1" id="Capa_1" xmlns="http://www.w3.org/2000/svg" xmlns:xlink="http://www.w3.org/1999/xlink" x="0px" y="0px"
	 viewBox="0 0 750 500" style="enable-background:new 0 0 750 500;" xml:space="preserve">
<style type="text/css">
	.st0{fill:none;stroke:#FFFFFF;stroke-width:2;stroke-linecap:round;stroke-miterlimit:10;}
	.st1{fill:#FFFFFF;}
	.st2{fill:#425FA3;}
	.st3{fill:none;}
	.st4{fill:#192072;}
	.st5{font-family:'ArialMT';}
	.st6{font-size:30px;}
	.st7{font-size:24px;}
	.st8{clip-path:url(#SVGID_2_);fill:url(#SVGID_3_);}
	.st9{clip-path:url(#SVGID_5_);}
	.st10{fill:#2D2DB7;}
	.st11{opacity:0.2;fill:url(#SVGID_6_);enable-background:new    ;}
	.st12{fill:#699EFC;}
	.st13{fill:#C9688B;}
	.st14{fill:url(#SVGID_7_);}
	.st15{opacity:0.3;fill:url(#SVGID_8_);enable-background:new    ;}
	.st16{opacity:0.5;fill:url(#SVGID_9_);enable-background:new    ;}
	.st17{fill:url(#SVGID_10_);}
	.st18{fill:url(#SVGID_11_);}
	.st19{fill:url(#SVGID_12_);}
	.st20{fill:url(#SVGID_13_);}
	.st21{opacity:0.3;fill:url(#SVGID_14_);enable-background:new    ;}
	.st22{opacity:0.5;fill:url(#SVGID_15_);enable-background:new    ;}
	.st23{fill:url(#SVGID_16_);}
	.st24{fill:url(#SVGID_17_);}
	.st25{fill:url(#SVGID_18_);}
	.st26{fill:url(#SVGID_19_);}
	.st27{opacity:0.3;fill:url(#SVGID_20_);enable-background:new    ;}
	.st28{opacity:0.3;fill:url(#SVGID_21_);enable-background:new    ;}
	.st29{opacity:0.5;fill:url(#SVGID_22_);enable-background:new    ;}
	.st30{opacity:0.5;fill:url(#SVGID_23_);enable-background:new    ;}
	.st31{fill:#191861;}
	.st32{fill:url(#SVGID_24_);}
	.st33{fill:url(#SVGID_25_);}
	.st34{fill:url(#SVGID_26_);}
	.st35{fill:url(#SVGID_27_);}
	.st36{opacity:0.7;fill:url(#SVGID_28_);enable-background:new    ;}
	.st37{fill:url(#SVGID_29_);}
	.st38{fill:url(#SVGID_30_);}
	.st39{fill:url(#SVGID_31_);}
	.st40{fill:url(#SVGID_32_);}
	.st41{fill:url(#SVGID_33_);}
	.st42{fill:url(#SVGID_34_);}
	.st43{fill:url(#SVGID_35_);}
	.st44{fill:url(#SVGID_36_);}
	.st45{fill:url(#SVGID_37_);}
	.st46{fill:url(#SVGID_38_);}
	.st47{fill:#F9EAEC;}
	.st48{clip-path:url(#SVGID_40_);}
	.st49{fill:url(#SVGID_41_);}
	.st50{fill:url(#SVGID_42_);}
	.st51{fill:url(#SVGID_43_);}
	.st52{fill:url(#SVGID_44_);}
	.st53{clip-path:url(#SVGID_46_);}
	.st54{fill:url(#SVGID_47_);}
	.st55{fill:url(#SVGID_48_);}
	.st56{fill:#ECB298;}
	.st57{fill:url(#SVGID_49_);}
	.st58{fill:#B14E78;}
	.st59{fill:#8C4B88;}
	.st60{fill:url(#SVGID_50_);}
	.st61{fill:url(#SVGID_51_);}
	.st62{fill:url(#SVGID_52_);}
	.st63{fill:url(#SVGID_53_);}
	.st64{fill:url(#SVGID_54_);}
	.st65{fill:url(#SVGID_55_);}
	.st66{fill:#6B366B;}
	.st67{fill:#1E227F;}
	.st68{opacity:0.2;}
	.st69{fill:#77449C;}
	.st70{fill:url(#SVGID_56_);}
	.st71{fill:url(#SVGID_57_);}
	.st72{fill:#222289;}
	.st73{clip-path:url(#SVGID_59_);}
	.st74{fill:url(#SVGID_60_);}
	.st75{fill:url(#SVGID_61_);}
	.st76{fill:url(#SVGID_62_);}
	.st77{fill:url(#SVGID_63_);}
	.st78{fill:url(#SVGID_64_);}
	.st79{fill:url(#SVGID_65_);}
	.st80{fill:url(#SVGID_66_);}
	.st81{fill:url(#SVGID_67_);}
	.st82{fill:url(#SVGID_68_);}
	.st83{fill:url(#SVGID_69_);}
	.st84{fill:url(#SVGID_70_);}
	.st85{fill:url(#SVGID_71_);}
	.st86{fill:url(#SVGID_72_);}
	.st87{fill:url(#SVGID_73_);}
	.st88{opacity:0.3;fill:url(#SVGID_74_);enable-background:new    ;}
	.st89{opacity:0.3;fill:url(#SVGID_75_);enable-background:new    ;}
	.st90{opacity:0.7;fill:#FFFFFF;enable-background:new    ;}
	.st91{fill:url(#SVGID_76_);}
	.st92{fill:url(#SVGID_77_);}
	.st93{fill:url(#SVGID_78_);}
	.st94{fill:url(#SVGID_79_);}
	.st95{fill:url(#SVGID_80_);}
	.st96{fill:url(#SVGID_81_);}
	.st97{fill:url(#SVGID_82_);}
	.st98{fill:url(#SVGID_83_);}
	.st99{fill:url(#SVGID_84_);}
	.st100{fill:url(#SVGID_85_);}
	.st101{fill:url(#SVGID_86_);}
	.st102{fill:url(#SVGID_87_);}
	.st103{fill:url(#SVGID_88_);}
	.st104{fill:url(#SVGID_89_);}
	.st105{fill:url(#SVGID_90_);}
	.st106{fill:url(#SVGID_91_);}
	.st107{fill:url(#SVGID_92_);}
	.st108{fill:url(#SVGID_93_);}
	.st109{fill:url(#SVGID_94_);}
	.st110{fill:url(#SVGID_95_);}
	.st111{fill:url(#SVGID_96_);}
	.st112{fill:url(#SVGID_97_);}
	.st113{opacity:0.3;clip-path:url(#SVGID_99_);fill:url(#SVGID_100_);enable-background:new    ;}
	.st114{fill:#F1ECFA;}
	.st115{opacity:0.56;fill:#0D0C15;enable-background:new    ;}
	.st116{font-size:35px;}
</style>
<g id="fondo">
	<g>
		<g>
			<polyline class="st0" points="165.2,22.4 165.2,98.3 239.3,98.3 239.3,335.2 			"/>
			<polyline class="st0" points="63.7,22.4 63.7,217.3 165.2,217.3 165.2,345.7 			"/>
			<polyline class="st0" points="145.5,275.8 145.5,132.4 330.8,132.4 330.8,22.4 530.6,22.4 530.6,64.4 613.5,64.4 			"/>
			<path class="st1" d="M68.8,215.7c0,2.8-2.3,5.1-5.1,5.1s-5.1-2.3-5.1-5.1s2.3-5.1,5.1-5.1C66.5,210.6,68.8,212.9,68.8,215.7z"/>
			<path class="st1" d="M173.3,215.7c0,2.8-2.3,5.1-5.1,5.1s-5.1-2.3-5.1-5.1s2.3-5.1,5.1-5.1C171,210.6,173.3,212.9,173.3,215.7z"
				/>
			<path class="st1" d="M169.9,22.8c0,2.8-2.3,5.1-5.1,5.1s-5.1-2.3-5.1-5.1s2.3-5.1,5.1-5.1C167.7,17.6,169.9,19.9,169.9,22.8z"/>
			<path class="st1" d="M68.8,22.8c0,2.8-2.3,5.1-5.1,5.1s-5.1-2.3-5.1-5.1s2.3-5.1,5.1-5.1C66.5,17.6,68.8,19.9,68.8,22.8z"/>
			<path class="st1" d="M336,23.5c0,2.8-2.3,5.1-5.1,5.1s-5.1-2.3-5.1-5.1s2.3-5.1,5.1-5.1C333.7,18.4,336,20.7,336,23.5z"/>
			<path class="st1" d="M535.7,23.5c0,2.8-2.3,5.1-5.1,5.1s-5.1-2.3-5.1-5.1s2.3-5.1,5.1-5.1C533.4,18.4,535.7,20.7,535.7,23.5z"/>
			<path class="st1" d="M535.7,64.5c0,2.8-2.3,5.1-5.1,5.1s-5.1-2.3-5.1-5.1c0-2.8,2.3-5.1,5.1-5.1
				C533.4,59.4,535.7,61.7,535.7,64.5z"/>
			<path class="st1" d="M644.1,141.2c0,2.8-2.3,5.1-5.1,5.1s-5.1-2.3-5.1-5.1s2.3-5.1,5.1-5.1C641.8,136,644.1,138.3,644.1,141.2z"
				/>
			<path class="st1" d="M530.6,187.3c0,2.8-2.3,5.1-5.1,5.1s-5.1-2.3-5.1-5.1s2.3-5.1,5.1-5.1C528.3,182.2,530.6,184.5,530.6,187.3z
				"/>
			<path class="st1" d="M678,187.3c0,2.8-2.3,5.1-5.1,5.1s-5.1-2.3-5.1-5.1s2.3-5.1,5.1-5.1C675.7,182.2,678,184.5,678,187.3z"/>
			<path class="st1" d="M625.9,264.5c0,2.8-2.3,5.1-5.1,5.1s-5.1-2.3-5.1-5.1s2.3-5.1,5.1-5.1S625.9,261.7,625.9,264.5z"/>
			<path class="st1" d="M625.9,429c0,2.8-2.3,5.1-5.1,5.1s-5.1-2.3-5.1-5.1s2.3-5.1,5.1-5.1S625.9,426.2,625.9,429z"/>
			<path class="st1" d="M678,429c0,2.8-2.3,5.1-5.1,5.1s-5.1-2.3-5.1-5.1s2.3-5.1,5.1-5.1C675.7,423.9,678,426.2,678,429z"/>
			<path class="st1" d="M561.6,141.2c0,2.8-2.3,5.1-5.1,5.1s-5.1-2.3-5.1-5.1s2.3-5.1,5.1-5.1C559.3,136,561.6,138.3,561.6,141.2z"
				/>
			<path class="st1" d="M169.9,99.2c0,2.8-2.3,5.1-5.1,5.1s-5.1-2.3-5.1-5.1s2.3-5.1,5.1-5.1S169.9,96.4,169.9,99.2z"/>
			<path class="st1" d="M244.4,99.2c0,2.8-2.3,5.1-5.1,5.1s-5.1-2.3-5.1-5.1s2.3-5.1,5.1-5.1S244.4,96.4,244.4,99.2z"/>
			<path class="st1" d="M336,132.6c0,2.8-2.3,5.1-5.1,5.1s-5.1-2.3-5.1-5.1s2.3-5.1,5.1-5.1C333.7,127.5,336,129.8,336,132.6z"/>
			<path class="st1" d="M150.6,132.4c0,2.8-2.3,5.1-5.1,5.1s-5.1-2.3-5.1-5.1s2.3-5.1,5.1-5.1S150.6,129.6,150.6,132.4z"/>
			<polyline class="st0" points="525.3,277.2 525.3,187.3 672.9,187.3 672.9,335.2 			"/>
			<polyline class="st0" points="556.5,255.3 556.5,141.2 639,141.2 639,60.3 			"/>
			<polyline class="st0" points="573.1,264.5 620.8,264.5 620.8,429 672.9,429 672.9,480.3 			"/>
		</g>
		<g>
			
				<image style="overflow:visible;enable-background:new    ;" width="683" height="679" xlink:href="2AEB8B.png"  transform="matrix(0.2379 0 0 0.2379 557.72 -20.4041)">
			</image>
		</g>
		<g>
			<path class="st1" d="M663.3,84.9h-48c-4.6,0-8.3-3.7-8.3-8.3V46.7c0-4.6,3.7-8.3,8.3-8.3h48c4.6,0,8.3,3.7,8.3,8.3v29.9
				C671.6,81.1,667.9,84.9,663.3,84.9z"/>
			<g>
				<path class="st2" d="M671.6,47c0-4.8-3.9-8.7-8.7-8.7h-47.3c-4.8,0-8.7,3.9-8.7,8.7v0.4h64.6V47z"/>
			</g>
		</g>
		<g>
			
				<image style="overflow:visible;enable-background:new    ;" width="683" height="683" xlink:href="2AEB89.png"  transform="matrix(0.2379 0 0 0.2379 -14.44 24.7201)">
			</image>
		</g>
		<g>
			<path class="st1" d="M90.9,125.9h-48c-4.6,0-8.3-3.7-8.3-8.3V87.7c0-4.6,3.7-8.3,8.3-8.3h48c4.6,0,8.3,3.7,8.3,8.3v29.9
				C99.2,122.2,95.4,125.9,90.9,125.9z"/>
			<g>
				<path class="st2" d="M99.2,88.1c0-4.8-3.9-8.7-8.7-8.7H43.2c-4.8,0-8.7,3.9-8.7,8.7v0.4h64.6C99.2,88.5,99.2,88.1,99.2,88.1z"/>
			</g>
		</g>
		<g>
			
				<image style="overflow:visible;enable-background:new    ;" width="804" height="679" xlink:href="2AEB8F.png"  transform="matrix(0.2463 0 0 0.2155 162.9525 -21.587)">
			</image>
		</g>
		<g>
			<path class="st1" d="M303.7,69.3h-86c-4.6,0-8.3-3.7-8.3-8.3V31.1c0-4.6,3.7-8.3,8.3-8.3h86c4.6,0,8.3,3.7,8.3,8.3V61
				C312,65.6,308.3,69.3,303.7,69.3z"/>
			<g>
				<path class="st2" d="M312,31.4c0-4.8-3.9-8.7-8.7-8.7h-85.3c-4.8,0-8.7,3.9-8.7,8.7v0.4H312V31.4z"/>
			</g>
		</g>
		<g>
			
				<image style="overflow:visible;enable-background:new    ;" width="683" height="679" xlink:href="2AEB88.png"  transform="matrix(0.2382 0 0 0.2382 593.96 276.5966)">
			</image>
		</g>
		<g>
			
				<image style="overflow:visible;enable-background:new    ;" width="704" height="700" xlink:href="2AEB86.png"  transform="matrix(0.238 0 0 0.238 59.68 152.476)">
			</image>
		</g>
		<g>
			<path class="st1" d="M699.3,380.7h-48c-4.6,0-8.3-3.7-8.3-8.3v-29.9c0-4.6,3.7-8.3,8.3-8.3h48c4.6,0,8.3,3.7,8.3,8.3v29.9
				C707.6,376.9,703.9,380.7,699.3,380.7z"/>
			<g>
				<path class="st2" d="M707.6,342.8c0-4.8-3.9-8.7-8.7-8.7h-47.3c-4.8,0-8.7,3.9-8.7,8.7v0.4h64.6L707.6,342.8L707.6,342.8z"/>
			</g>
		</g>
	</g>
	<rect x="613.5" y="52.2" class="st3" width="53" height="25.8"/>
	<text transform="matrix(1 0 0 1 618.9541 73.5421)" class="st4 st5 st6">&lt; &gt;</text>
	<rect x="40.4" y="94.7" class="st3" width="52.9" height="25.8"/>
	<g>
		<text transform="matrix(1 0 0 1 55.1662 115.9708)" class="st4 st5 st6">{ }</text>
	</g>
	<rect x="216.1" y="38.7" class="st3" width="87.6" height="25.8"/>
	<g>
		<text transform="matrix(1 0 0 1 220.2646 55.704)" class="st4 st5 st7">DevOps</text>
	</g>
	<rect x="648.8" y="349.4" class="st3" width="53" height="25.8"/>
	<g>
		<text transform="matrix(1 0 0 1 643.8187 370.7257)" class="st4 st5 st6">CSS</text>
	</g>
</g>
<g id="OBJECTS_1_">
	<g>
		<g>
			<defs>
				<rect id="SVGID_1_" y="0" width="750" height="500"/>
			</defs>
			<clipPath id="SVGID_2_">
				<use xlink:href="#SVGID_1_"  style="overflow:visible;"/>
			</clipPath>
			
				<linearGradient id="SVGID_3_" gradientUnits="userSpaceOnUse" x1="375.0001" y1="-161.3585" x2="375.0001" y2="258.1208" gradientTransform="matrix(1 0 0 -1 0 499.5749)">
				<stop  offset="4.960300e-04" style="stop-color:#FFFFFF;stop-opacity:0.3"/>
				<stop  offset="1" style="stop-color:#FFFFFF;stop-opacity:0"/>
			</linearGradient>
			<path class="st8" d="M222.9,500h304.3c41.7-40,67.7-96.3,67.7-158.6c0-121.4-98.4-219.8-219.8-219.8S155.2,220,155.2,341.4
				C155.2,403.7,181.2,460,222.9,500z"/>
		</g>
		<g>
			<defs>
				<rect id="SVGID_4_" y="0" width="750" height="500"/>
			</defs>
			<clipPath id="SVGID_5_">
				<use xlink:href="#SVGID_4_"  style="overflow:visible;"/>
			</clipPath>
			<g class="st9">
				<path class="st10" d="M309.2,86c0,0-12-1.6-19.7,10.5c-7.7,12.1,3.6,41.8,12,66.7s-2.1,52.3-14.5,76.9
					c-12.5,24.6-18.9,26.9-9.1,42c9.8,15.1,187.3,0,187.3,0s17.3-11.5,2.9-45s-27.3-42.3-17.6-75.8s8.9-38.3,6.1-46.5
					c0,0,11.3-6.5-0.2-20.3c-11.5-13.8-25.3-15.4-19.2-33C443.2,44,309.2,86,309.2,86z"/>
				
					<linearGradient id="SVGID_6_" gradientUnits="userSpaceOnUse" x1="373.433" y1="403.2422" x2="373.433" y2="248.6756" gradientTransform="matrix(1 0 0 -1 0 499.5749)">
					<stop  offset="5.167000e-04" style="stop-color:#530056"/>
					<stop  offset="1" style="stop-color:#090030"/>
				</linearGradient>
				<path class="st11" d="M468,237.1c-14.4-33.5-27.3-42.3-17.6-75.8s8.9-38.3,6.1-46.5c0,0,11.3-6.5-0.2-20.3
					c-11.5-13.8-25.3-15.4-19.2-33c6-17.6-127.9,24.5-127.9,24.5s-1,33.3-18.6,43.5c3,10.9,7.2,22.8,10.9,33.8
					c8.4,24.9-2.1,52.3-14.5,76.9c-12.5,24.6-18.9,26.9-9.1,42c9.8,15.1,187.3,0,187.3,0S482.4,270.6,468,237.1z"/>
				<path class="st12" d="M408,234.9c-3.1-1.9-6.5-4.1-7.3-7.7c-0.6-2.8,0.6-5.8,2.4-8c1.8-2.2,4.2-3.9,6.5-5.8
					c4-3.3,7.9-7.5,10.5-12.1c2.8-5,4.1-11.3,6-16.8c0.5-1.6,1.1-3.3,2.4-4.4c1.5-1.4,3.8-1.8,5.8-2.4c4.4-1.3,8.3-4,11.2-7.6
					c-2.7,13.6-0.4,27.8,4.3,41.8c2.9,16.6,6.9,32.9,12.1,48.9c-6.6-2.4-12.5-7.8-17.5-12.8c-6.7-6.7-11.3-15.2-15.7-23.6
					c4.6,9.9,8.3,20.6,12.9,30.6C430.4,248.4,419.2,241.7,408,234.9z"/>
				<path class="st12" d="M340.8,234.9c3.1-1.9,6.5-4.1,7.3-7.7c0.6-2.8-0.6-5.8-2.4-8c-1.8-2.2-4.2-3.9-6.5-5.8
					c-4-3.3-7.9-7.5-10.5-12.1c-2.8-5-4.1-11.3-6-16.8c-0.5-1.6-1.1-3.3-2.4-4.4c-1.5-1.4-3.8-1.8-5.8-2.4c-4.4-1.3-8.3-4-11.2-7.6
					c2.7,13.6,0.4,27.8-4.3,41.8c-2.9,16.6-6.9,32.9-12.1,48.9c6.6-2.4,12.5-7.8,17.5-12.8c6.7-6.7,11.3-15.2,15.7-23.6
					c-4.6,9.9-8.3,20.6-12.9,30.6C318.4,248.4,329.6,241.7,340.8,234.9z"/>
				<g>
					<path class="st13" d="M359.6,230.9c10,2.1,20.7,0.9,30.1-3.1c0.6-6.5,1.3-13.6,1.3-13.6h-32.9C358,214.2,359,223.7,359.6,230.9
						z"/>
					<g>
						
							<linearGradient id="SVGID_7_" gradientUnits="userSpaceOnUse" x1="443.9907" y1="116.9494" x2="581.4575" y2="100.6811" gradientTransform="matrix(1 0 0 -1 0 499.5749)">
							<stop  offset="0" style="stop-color:#D2CCF6"/>
							<stop  offset="1" style="stop-color:#F1ECFA"/>
						</linearGradient>
						<path class="st14" d="M476.7,283.3c0,0,28.3,105.6,42.6,124.6c0,0,53.4-7.5,71.5,4c18.1,11.5,7.8,67.1-12.7,80.6
							c-27.8,18.3-84.4-10.7-97-17.8c-12.5-7.1-30.7-100.4-30.7-100.4l7.3-90.7L476.7,283.3z"/>
						
							<linearGradient id="SVGID_8_" gradientUnits="userSpaceOnUse" x1="444.1615" y1="106.0353" x2="580.3948" y2="89.913" gradientTransform="matrix(1 0 0 -1 0 499.5749)">
							<stop  offset="0" style="stop-color:#8F68BE"/>
							<stop  offset="1" style="stop-color:#D5ECFE"/>
						</linearGradient>
						<path class="st15" d="M519.3,407.9c-13.7,0.2-37.5,22.8-38.9-2.9s-15.5-101.3-15.5-101.3L454.7,322l-4.2,52.3
							c0,0,18.1,93.3,30.7,100.4s69.2,36.1,97,17.8c16.7-11,26.6-49.9,20-70.2l-26.5-14.7c0,0-17.6-0.5-34.8,21.1
							s-4.4,54.1-4.4,54.1s-26.8-7.2-34.9-26.9C489.4,436.2,519.3,407.9,519.3,407.9z"/>
						
							<linearGradient id="SVGID_9_" gradientUnits="userSpaceOnUse" x1="515.6524" y1="17.0649" x2="532.8045" y2="101.6004" gradientTransform="matrix(1 0 0 -1 0 499.5749)">
							<stop  offset="0" style="stop-color:#BAD3F5"/>
							<stop  offset="1" style="stop-color:#6B7DC5"/>
						</linearGradient>
						<path class="st16" d="M583.2,415.7c1.4,0.1,2.8,0.4,4.2,0.7l10.7,5.9c6.7,20.3-3.3,59.1-20,70.2c-27.8,18.3-84.4-10.7-97-17.8
							c-4.8-2.7-10.4-17.9-15.4-35.6c5.2,10.4,13,20.4,19.5,29.4c0.6-7.1-0.3-14.7,0.3-21.8c0.1,10.5,0.7,22.1,7.9,29.7
							c4.2,4.4,10,6.8,15.8,8.7c11.3,3.8,23.1,6.1,35,7c-12.2-15.2-14.1-37.6-4.6-54.5C548.1,422.5,566.1,413.8,583.2,415.7z
							 M455.6,398.7c1.3,5.6,2.7,11.8,4.3,18.2c0.1-3,0.6-6,1.6-9c5.2-15.2,8.2-31.2,8.8-47.3C464.4,372.6,458.7,385.6,455.6,398.7z
							"/>
						
							<linearGradient id="SVGID_10_" gradientUnits="userSpaceOnUse" x1="424.2888" y1="134.0683" x2="510.459" y2="159.4125" gradientTransform="matrix(1 0 0 -1 0 499.5749)">
							<stop  offset="0" style="stop-color:#D2CCF6"/>
							<stop  offset="1" style="stop-color:#F1ECFA"/>
						</linearGradient>
						<path class="st17" d="M515.1,400.8c-13-26-32.2-94.7-37.2-113c-2.8,35,5.8,70.9,24.3,100.8
							C505.4,393.7,509.5,399.1,515.1,400.8z"/>
					</g>
					
						<linearGradient id="SVGID_11_" gradientUnits="userSpaceOnUse" x1="-1139.8909" y1="309.1825" x2="-1141.0682" y2="150.8237" gradientTransform="matrix(-1 0 0 -1 -766.0001 499.5749)">
						<stop  offset="7.720000e-02" style="stop-color:#EFC1A9"/>
						<stop  offset="0.7251" style="stop-color:#E69494"/>
					</linearGradient>
					<path class="st18" d="M280.9,275l9.1,35.8c0,0-5.6,37.6-7.1,55.6c-1.5,18,23.6,59.6,23.6,59.6l-14.6,73.6h165.4L442.6,426
						c0,0,25.1-41.6,23.6-59.6s-7.1-55.6-7.1-55.6l9.1-35.8c0,0-79.3-33.9-79.3-36.8c0-2.9,2.1-24.1,2.1-24.1H358
						c0,0,2.1,21.2,2.1,24.1C360.2,241.1,280.9,275,280.9,275z"/>
					
						<linearGradient id="SVGID_12_" gradientUnits="userSpaceOnUse" x1="373.8448" y1="202.3961" x2="374.4414" y2="229.1755" gradientTransform="matrix(1 0 0 -1 0 499.5749)">
						<stop  offset="0" style="stop-color:#E3807E"/>
						<stop  offset="1" style="stop-color:#B76073"/>
					</linearGradient>
					<path class="st19" d="M374.5,299.6c28.2,0,63.6-24.5,74.8-32.7c-0.1,0-0.1-0.1-0.2-0.1c-11.4,7.7-46.6,29.7-74.6,29.7
						s-63.2-22.1-74.6-29.7c-0.1,0-0.1,0.1-0.2,0.1C310.9,275.1,346.3,299.6,374.5,299.6z"/>
					<g>
						
							<linearGradient id="SVGID_13_" gradientUnits="userSpaceOnUse" x1="-1071.0553" y1="116.2395" x2="-939.4583" y2="100.6659" gradientTransform="matrix(-1 0 0 -1 -766.0001 499.5749)">
							<stop  offset="0" style="stop-color:#D2CCF6"/>
							<stop  offset="1" style="stop-color:#F1ECFA"/>
						</linearGradient>
						<path class="st20" d="M272.4,283.3c0,0-28.3,105.6-42.6,124.6c0,0-46.4-6.5-64.5,5s-7.9,67.1,12.7,80.6
							c27.8,18.3,77.4-11.7,90-18.8c12.5-7.1,30.7-100.4,30.7-100.4l-7.3-90.7L272.4,283.3z"/>
						
							<linearGradient id="SVGID_14_" gradientUnits="userSpaceOnUse" x1="-1070.8843" y1="105.3255" x2="-940.5209" y2="89.8979" gradientTransform="matrix(-1 0 0 -1 -766.0001 499.5749)">
							<stop  offset="0" style="stop-color:#8F68BE"/>
							<stop  offset="1" style="stop-color:#D5ECFE"/>
						</linearGradient>
						<path class="st21" d="M229.8,407.9c13.7,0.2,37.6,22.8,38.9-2.9c1.4-25.7,15.5-101.3,15.5-101.3l10.1,18.3l4.2,52.3
							c0,0-18.1,93.3-30.7,100.4c-12.6,7.1-62.1,37.1-90,18.8c-16.7-11-26.6-49.9-20-70.2l26.5-14.7c0,0,17.6-0.5,34.8,21.1
							s4.4,54.1,4.4,54.1s19.8-8.2,27.9-27.9C259.7,436.2,229.8,407.9,229.8,407.9z"/>
						
							<linearGradient id="SVGID_15_" gradientUnits="userSpaceOnUse" x1="-1002.9645" y1="16.2605" x2="-985.5798" y2="101.9425" gradientTransform="matrix(-1 0 0 -1 -766.0001 499.5749)">
							<stop  offset="0" style="stop-color:#BAD3F5"/>
							<stop  offset="1" style="stop-color:#6B7DC5"/>
						</linearGradient>
						<path class="st22" d="M216.4,438.5c9.6,16.9,7.6,39.3-4.6,54.5c11.9-0.9,16.7-4.2,28-8c5.8-1.9,11.6-4.3,15.8-8.7
							c7.2-7.6,7.8-19.2,7.9-29.7c0.6,7.1-0.3,14.7,0.3,21.8c6.5-9.1,14.3-19.1,19.5-29.4c-5.1,17.8-10.7,32.9-15.4,35.6
							c-12.6,7.1-62.1,37.1-90,18.8c-16.7-11-26.6-49.9-20-70.2l10.7-5.9c1.4-0.3,2.8-0.5,4.2-0.7C190,414.8,208,423.5,216.4,438.5z
							 M278.9,360.6c0.6,16.1,3.5,32.1,8.8,47.3c1,3,1.5,6,1.6,9c1.6-6.4,3-12.6,4.3-18.2C290.3,385.6,284.7,372.6,278.9,360.6z"/>
						
							<linearGradient id="SVGID_16_" gradientUnits="userSpaceOnUse" x1="305.2841" y1="129.5153" x2="242.1544" y2="160.3889" gradientTransform="matrix(1 0 0 -1 0 499.5749)">
							<stop  offset="0" style="stop-color:#D2CCF6"/>
							<stop  offset="1" style="stop-color:#F1ECFA"/>
						</linearGradient>
						<path class="st23" d="M233.9,400.8c12.9-26,32.2-94.7,37.2-113c2.8,35-5.8,70.9-24.3,100.8
							C243.7,393.7,239.5,399.1,233.9,400.8z"/>
					</g>
					
						<linearGradient id="SVGID_17_" gradientUnits="userSpaceOnUse" x1="371.4571" y1="256.3442" x2="374.5513" y2="284.8109" gradientTransform="matrix(1 0 0 -1 0 499.5749)">
						<stop  offset="0" style="stop-color:#E3807E"/>
						<stop  offset="1" style="stop-color:#B76073"/>
					</linearGradient>
					<path class="st24" d="M359.6,230.9c10,2.1,20.7,0.9,30.1-3.1c0.6-6.5,1.3-13.6,1.3-13.6h-32.9C358,214.2,359,223.7,359.6,230.9
						z"/>
					<g>
						<g>
							
								<linearGradient id="SVGID_18_" gradientUnits="userSpaceOnUse" x1="365.6168" y1="105.9159" x2="373.649" y2="213.9845" gradientTransform="matrix(1 0 0 -1 0 499.5749)">
								<stop  offset="0" style="stop-color:#D2CCF6"/>
								<stop  offset="1" style="stop-color:#F1ECFA"/>
							</linearGradient>
							<path class="st25" d="M478.2,275.8c-5.1-2.8-14.9-7-25.4-11.2l0-0.4c0,0-44.4,35.4-78.3,35.4s-78.3-35.4-78.3-35.4l0,0
								c0,0-12.3,3.8-26.3,11.6c-17.1,9.5-0.6,18.3-0.6,18.3l13.1,14.6c0,0-7.2,40.1-5.7,55.6c1,9.9,11.1,31.8,18.3,46.3v47.1
								c-2.9,12.9-6.2,27.2-9.6,41.8h9.6v4.3h158.8v-4.3h8.9c-3.1-13.5-6.2-26.6-8.9-38.8v-51.7c7.1-14.5,16.6-35.3,17.5-44.8
								c1.5-15.5-6.6-60.7-6.6-60.7l11.9-20.4C476.7,283.3,495.3,285.3,478.2,275.8z"/>
							
								<linearGradient id="SVGID_19_" gradientUnits="userSpaceOnUse" x1="377.5582" y1="172.523" x2="376.4853" y2="271.2164" gradientTransform="matrix(1 0 0 -1 0 499.5749)">
								<stop  offset="0" style="stop-color:#FFFFFF"/>
								<stop  offset="1" style="stop-color:#F1ECFA"/>
							</linearGradient>
							<path class="st26" d="M452.8,264.5l0-0.4c0,0-44.4,35.4-78.3,35.4c-30.4,0-69.3-28.5-77-34.4l-5.4,0.4
								c-1.6,0.6-3.5,1.3-5.8,2.3c13.3,18.1,32.8,32,54.6,38.9c22.6,7.2,47.6,6.9,70-0.7c21.4-7.3,39.6-20.6,56.5-35.5
								C463.1,268.7,458,266.6,452.8,264.5z"/>
							
								<linearGradient id="SVGID_20_" gradientUnits="userSpaceOnUse" x1="361.5456" y1="34.847" x2="404.5636" y2="246.8651" gradientTransform="matrix(1 0 0 -1 0 499.5749)">
								<stop  offset="0" style="stop-color:#8F68BE"/>
								<stop  offset="1" style="stop-color:#D5ECFE"/>
							</linearGradient>
							<path class="st27" d="M429.5,368c-4.7-0.4-9.5-1.7-13.9-0.1c-4.4,1.7-7,8.3-3.2,11c-23.5-5.9-48.3-23.7-67-39.1
								c0.9,4.6,4.5,15.8,5.4,20.4c-15.5-5.8-28.5-18.1-35.2-33.3c10.9,29.8,26.1,57.9,45,83.3c-33.8-12-63.4-35.4-83.2-65.2
								c-0.7,7.5-1.1,14.6-0.6,19.4c1,9.9,11.1,31.8,18.3,46.3v47.1c-2.9,12.9-6.2,27.2-9.6,41.8h9.6v4.3h158.7v-4.3h8.9
								c-3.1-13.5-6.2-26.6-8.9-38.8v-51.7c7.1-14.5,16.6-35.3,17.5-44.8c0.4-3.9,0.1-9.6-0.4-16c-0.6,0.7-1.3,1.4-1.9,2.1
								C458.9,361.4,444.4,369.4,429.5,368z"/>
							
								<linearGradient id="SVGID_21_" gradientUnits="userSpaceOnUse" x1="408.7737" y1="54.0121" x2="499.6772" y2="-74.5586" gradientTransform="matrix(1 0 0 -1 0 499.5749)">
								<stop  offset="0" style="stop-color:#8F68BE"/>
								<stop  offset="0.8391" style="stop-color:#D5ECFE"/>
							</linearGradient>
							<path class="st28" d="M431,487.6c5.7,3.8,11.5,7.6,16.7,12.1h15.1c-2.3-10-4.6-19.9-6.8-29.3l-66.8-13.9l0.1,3.8
								C403.2,469.3,417.1,478.4,431,487.6z"/>
							
								<linearGradient id="SVGID_22_" gradientUnits="userSpaceOnUse" x1="427.7086" y1="48.7707" x2="439.6212" y2="107.4828" gradientTransform="matrix(1 0 0 -1 0 499.5749)">
								<stop  offset="0" style="stop-color:#BAD3F5"/>
								<stop  offset="1" style="stop-color:#6B7DC5"/>
							</linearGradient>
							<path class="st29" d="M446,424.8L446,424.8c0,0,13.5-25.1,20.9-44.3l0,0c-20,31.2-64.3,71.9-64.3,71.9S436.6,436.4,446,424.8
								z"/>
						</g>
					</g>
					<g>
						
							<linearGradient id="SVGID_23_" gradientUnits="userSpaceOnUse" x1="308.8066" y1="59.3178" x2="317.0627" y2="100.0089" gradientTransform="matrix(1 0 0 -1 0 499.5749)">
							<stop  offset="0" style="stop-color:#BAD3F5"/>
							<stop  offset="1" style="stop-color:#6B7DC5"/>
						</linearGradient>
						<path class="st30" d="M281.5,380.5C281.5,380.5,281.5,380.5,281.5,380.5c7.4,19.1,20.8,44.3,20.9,44.3l0,0l0,0l0,0l0,0
							c9.3,11.6,43.4,27.6,43.4,27.6S301.5,411.7,281.5,380.5z"/>
					</g>
					<g>
						<path class="st31" d="M417,149.4c-0.8,0.3-1.5,0.9-1.8,1.6c0.8-0.2,1.4-0.5,1.8-1.2c0.1-0.2,0.2-0.4,0.3-0.6
							C417.2,149.3,417.1,149.3,417,149.4z M417,147.7c-0.8,0.3-1.4,0.9-1.6,1.7c0.7-0.2,1.2-0.8,1.6-1.4c0.1-0.1,0.2-0.3,0.3-0.5
							C417.2,147.6,417.1,147.6,417,147.7z"/>
						<path class="st31" d="M332,149.4c-0.1,0-0.2-0.1-0.3-0.1c0.1,0.2,0.2,0.4,0.3,0.6c0.4,0.6,1,1,1.8,1.1
							C333.5,150.3,332.8,149.7,332,149.4z M332.1,147.7c-0.1-0.1-0.2-0.1-0.4-0.1c0.1,0.2,0.2,0.3,0.3,0.5c0.4,0.6,0.9,1.2,1.6,1.4
							C333.5,148.6,332.9,148,332.1,147.7z"/>
						<g>
							
								<linearGradient id="SVGID_24_" gradientUnits="userSpaceOnUse" x1="692.8288" y1="334.1678" x2="710.3251" y2="350.9847" gradientTransform="matrix(-1 0 0 -1 1138.7935 499.5749)">
								<stop  offset="1.600000e-02" style="stop-color:#EBAA8B"/>
								<stop  offset="1" style="stop-color:#E69494"/>
							</linearGradient>
							<path class="st32" d="M425.4,144.2c0,0,8.3-14.8,20.3-6.4c12,8.4-1.3,39.2-14.4,38.6c-6.5-0.3-8.9-10-8.9-10L425.4,144.2z"/>
							<g>
								
									<linearGradient id="SVGID_25_" gradientUnits="userSpaceOnUse" x1="436.7975" y1="318.4153" x2="436.9425" y2="327.6942" gradientTransform="matrix(1 0 0 -1 0 499.5749)">
									<stop  offset="0" style="stop-color:#25256A"/>
									<stop  offset="1" style="stop-color:#342780"/>
								</linearGradient>
								<path class="st33" d="M441.5,176.5c0,2.6-2.1,4.6-4.6,4.6c-2.6,0-4.6-2.1-4.6-4.6s2.1-4.6,4.6-4.6
									C439.4,171.9,441.5,174,441.5,176.5z"/>
								
									<linearGradient id="SVGID_26_" gradientUnits="userSpaceOnUse" x1="435.9157" y1="321.3353" x2="436.0154" y2="327.709" gradientTransform="matrix(1 0 0 -1 0 499.5749)">
									<stop  offset="0" style="stop-color:#25256A"/>
									<stop  offset="1" style="stop-color:#342780"/>
								</linearGradient>
								<path class="st34" d="M432.2,176.5c0,0.3,0,0.6,0.1,0.9c0.4,0.3,0.9,0.5,1.4,0.6c2.2,0.5,4.7-0.8,5.6-2.9
									c0.3-0.7,0.4-1.5,0.4-2.3c-0.8-0.6-1.8-1-2.8-1C434.3,171.9,432.2,174,432.2,176.5z"/>
							</g>
							
								<linearGradient id="SVGID_27_" gradientUnits="userSpaceOnUse" x1="694.0134" y1="340.5121" x2="709.5474" y2="340.5121" gradientTransform="matrix(-1 0 0 -1 1138.7935 499.5749)">
								<stop  offset="0" style="stop-color:#E3807E"/>
								<stop  offset="1" style="stop-color:#B76073"/>
							</linearGradient>
							<path class="st35" d="M444.8,146.7c-8,2.7-14.4,10.2-15.5,18.7c-0.2,1.4,0,3,0.8,4.2s2.3,2,3.7,1.7c2-0.4,3.1-2.6,3.5-4.6
								c0.8-3.4,0.8-7,0-10.5C439,153.3,442.1,148.8,444.8,146.7z"/>
							
								<linearGradient id="SVGID_28_" gradientUnits="userSpaceOnUse" x1="437.2938" y1="337.7366" x2="437.4421" y2="356.2006" gradientTransform="matrix(1 0 0 -1 0 499.5749)">
								<stop  offset="0" style="stop-color:#B76073"/>
								<stop  offset="1" style="stop-color:#E3807E"/>
							</linearGradient>
							<path class="st36" d="M425.3,145l-1,7.2l1.2,1.6c7.2,4.3,16.6,4.5,24.2,1c1-4.6,1-9.1-0.5-12.6
								C441.2,140.7,432.8,141.7,425.3,145z"/>
							
								<linearGradient id="SVGID_29_" gradientUnits="userSpaceOnUse" x1="708.4335" y1="351.0662" x2="699.285" y2="359.3677" gradientTransform="matrix(-1 0 0 -1 1138.7935 499.5749)">
								<stop  offset="0" style="stop-color:#EAA594"/>
								<stop  offset="0.984" style="stop-color:#EFC1A9"/>
							</linearGradient>
							<path class="st37" d="M425.4,144.2c0,0,8.3-14.8,20.3-6.4c1.4,1,2.5,2.3,3.3,3.9c-2.6-1-5.4-1.4-8.1-1.3
								c-5.4,0.2-10.6,2.1-15.6,4.4L425.4,144.2z"/>
						</g>
						<g>
							
								<linearGradient id="SVGID_30_" gradientUnits="userSpaceOnUse" x1="303.085" y1="334.1675" x2="320.5814" y2="350.9845" gradientTransform="matrix(1 0 0 -1 0 499.5749)">
								<stop  offset="1.600000e-02" style="stop-color:#EBAA8B"/>
								<stop  offset="1" style="stop-color:#E69494"/>
							</linearGradient>
							<path class="st38" d="M323.6,144.2c0,0-8.3-14.8-20.3-6.4c-12,8.4,1.3,39.2,14.4,38.6c6.5-0.3,8.9-10,8.9-10L323.6,144.2z"/>
							<g>
								
									<linearGradient id="SVGID_31_" gradientUnits="userSpaceOnUse" x1="312.5475" y1="318.0554" x2="312.6925" y2="327.3343" gradientTransform="matrix(1 0 0 -1 0 499.5749)">
									<stop  offset="0" style="stop-color:#25256A"/>
									<stop  offset="1" style="stop-color:#342780"/>
								</linearGradient>
								<path class="st39" d="M317.3,176.9c0,2.6-2.1,4.6-4.6,4.6c-2.6,0-4.6-2.1-4.6-4.6s2.1-4.6,4.6-4.6
									C315.2,172.2,317.3,174.3,317.3,176.9z"/>
								
									<linearGradient id="SVGID_32_" gradientUnits="userSpaceOnUse" x1="311.6657" y1="320.9753" x2="311.7654" y2="327.349" gradientTransform="matrix(1 0 0 -1 0 499.5749)">
									<stop  offset="0" style="stop-color:#25256A"/>
									<stop  offset="1" style="stop-color:#342780"/>
								</linearGradient>
								<path class="st40" d="M308,176.9c0,0.3,0,0.6,0.1,0.9c0.4,0.3,0.9,0.5,1.4,0.6c2.2,0.5,4.7-0.8,5.6-2.9
									c0.3-0.7,0.4-1.5,0.4-2.3c-0.8-0.6-1.8-1-2.8-1C310.1,172.2,308,174.3,308,176.9z"/>
							</g>
							
								<linearGradient id="SVGID_33_" gradientUnits="userSpaceOnUse" x1="304.27" y1="340.5121" x2="319.8039" y2="340.5121" gradientTransform="matrix(1 0 0 -1 0 499.5749)">
								<stop  offset="0" style="stop-color:#E3807E"/>
								<stop  offset="1" style="stop-color:#B76073"/>
							</linearGradient>
							<path class="st41" d="M304.3,146.7c8,2.7,14.4,10.2,15.5,18.7c0.2,1.4,0,3-0.8,4.2s-2.3,2-3.7,1.7c-2-0.4-3.1-2.6-3.5-4.6
								c-0.8-3.4-0.8-7,0-10.5C310,153.3,307,148.8,304.3,146.7z"/>
							
								<linearGradient id="SVGID_34_" gradientUnits="userSpaceOnUse" x1="318.69" y1="351.0663" x2="309.5413" y2="359.368" gradientTransform="matrix(1 0 0 -1 0 499.5749)">
								<stop  offset="0" style="stop-color:#EAA594"/>
								<stop  offset="0.984" style="stop-color:#EFC1A9"/>
							</linearGradient>
							<path class="st42" d="M323.6,144.2c0,0-8.3-14.8-20.3-6.4c-1.4,1-2.5,2.3-3.3,3.9c2.6-1,5.4-1.4,8.1-1.3
								c5.4,0.2,10.6,2.1,15.6,4.4L323.6,144.2z"/>
						</g>
						
							<linearGradient id="SVGID_35_" gradientUnits="userSpaceOnUse" x1="-1141.4753" y1="275.6713" x2="-1141.4753" y2="414.1611" gradientTransform="matrix(-1 0 0 -1 -766.9504 499.5749)">
							<stop  offset="1.600000e-02" style="stop-color:#EFC1A9"/>
							<stop  offset="1" style="stop-color:#E69494"/>
						</linearGradient>
						<path class="st43" d="M374.5,63.1c-47.4,0-59.7,51.8-59.7,51.8s9.1,66.8,15.6,78.9c2,3.6,16.3,31.2,44,31.2h0
							c27.8,0,42.1-27.5,44-31.2c6.5-12.1,15.6-78.9,15.6-78.9S422,63.1,374.5,63.1C374.5,63.1,374.5,63.1,374.5,63.1z"/>
						
							<linearGradient id="SVGID_36_" gradientUnits="userSpaceOnUse" x1="314.81" y1="380.4794" x2="434.07" y2="380.4794" gradientTransform="matrix(1 0 0 -1 0 499.5749)">
							<stop  offset="0" style="stop-color:#E3807E"/>
							<stop  offset="1" style="stop-color:#B76073"/>
						</linearGradient>
						<path class="st44" d="M432.2,112.5c-5.1-9.1-12.9-16.3-20.6-23.4c-7.3-6.7-14.7-13.4-23.7-17.5c-12.5-5.6-26.8-5.4-40.1-1.9
							c-25.5,13.9-33,45.2-33,45.2s2.5,18.1,5.8,37.1l5.3,1.7c4-3.3,5.7-8.7,5.9-13.9s-0.8-10.3-1.4-15.5
							c-0.6-5.2-1.7-12.3,0.3-17.1c1.9-4.8,6-8,11.2-8.1c3.9-7.6,11.9-13.2,20-15.6c5.4-1.6,12.2-1.2,15.3,3.5
							c3.4,5.1,0.4,11.9,0.8,18c0.4,6.8,5.7,12.9,12.4,14.3c-6.2-4.2-9.3-12.6-7.4-19.8c0.2,5.4,4.4,9.8,9,12.4
							c4.7,2.6,10,4,14.7,6.4c9.1,4.6,16.1,13.3,18.8,23.2c2.6,9.9,0.8,20.9-4.9,29.4c1.9-1.4,3.6-2.9,5.2-4.6
							c3.9-20.2,7.4-44.5,8.2-50.2C433.5,114.9,432.9,113.7,432.2,112.5z"/>
						<path class="st12" d="M341.9,99.2c7-21.4,34.7-27.7,50.7-17S400.8,50.6,376,51s-40.8,8.4-42.3,20.6
							C332.2,83.8,341.9,99.2,341.9,99.2z"/>
						<g>
							
								<linearGradient id="SVGID_37_" gradientUnits="userSpaceOnUse" x1="789.0782" y1="335.5084" x2="790.6446" y2="378.0255" gradientTransform="matrix(-1 0 0 -1 1138.7935 499.5749)">
								<stop  offset="1.600000e-02" style="stop-color:#E9A38B"/>
								<stop  offset="1" style="stop-color:#E69494"/>
							</linearGradient>
							<path class="st45" d="M366.5,119.3c0,0-1.3,38-3.3,46.4c0,0-23.4,2.1-29.1-5.4c-5.7-7.6-3.6-23.4,2.1-33.7l5.2-4.8
								L366.5,119.3z"/>
							<path class="st31" d="M366.4,116.8c-11.8-2.7-23.2,0.2-30.3,9.8c5.3-2.9,10.8-4.8,17.2-5.4c2.8-0.3,8.4,1.9,10.9,0.7
								C366.8,120.8,366.6,119.3,366.4,116.8z"/>
							
								<linearGradient id="SVGID_38_" gradientUnits="userSpaceOnUse" x1="776.5334" y1="355.1675" x2="805.5735" y2="355.1675" gradientTransform="matrix(-1 0 0 -1 1138.7935 499.5749)">
								<stop  offset="0" style="stop-color:#B76073"/>
								<stop  offset="1" style="stop-color:#E3807E"/>
							</linearGradient>
							<path class="st46" d="M362.3,153.9c0,0-2.5-13.9-11.4-17.8c-8.3-3.6-15.3,2-17.6,6.5c0,0,6.2-5.4,15.9-3.5
								S362.3,153.9,362.3,153.9z"/>
							<path class="st31" d="M337.8,161.8c1.7,1.4,4,2.2,6.2,2.6c2.3,0.4,4.6,0.4,6.9,0.2c-0.7,0-1.8-0.5-2.4-0.7
								c-0.8-0.3-1.7-0.6-2.5-0.9c-1.6-0.6-3.2-1.4-4.6-2.2c-1.5-0.9-2.9-1.8-4.3-2.9c-0.5-0.4-1.1-1.1-1.8-1.4
								c-0.9-0.3-0.7,0.4-0.5,0.9C335.3,159.2,336.4,160.7,337.8,161.8z"/>
							<path class="st47" d="M333.9,144.6c3.9-5.8,14.6-7,21.8-1.1c7.2,5.9,7.9,14.2,6.3,16.9c-1.6,2.6-15.5,9.1-24.9-0.3
								C332.3,155.2,331.7,147.9,333.9,144.6z"/>
							<g>
								<g>
									<defs>
										<path id="SVGID_39_" d="M333.9,144.6c3.9-5.8,14.6-7,21.8-1.1c7.2,5.9,7.9,14.2,6.3,16.9c-1.6,2.6-15.5,9.1-24.9-0.3
											C332.3,155.2,331.7,147.9,333.9,144.6z"/>
									</defs>
									<clipPath id="SVGID_40_">
										<use xlink:href="#SVGID_39_"  style="overflow:visible;"/>
									</clipPath>
									<g class="st48">
										
											<linearGradient id="SVGID_41_" gradientUnits="userSpaceOnUse" x1="788.4913" y1="330.2139" x2="790.3361" y2="353.1707" gradientTransform="matrix(-1 0 0 -1 1138.7935 499.5749)">
											<stop  offset="0" style="stop-color:#77449C"/>
											<stop  offset="1" style="stop-color:#6057BC"/>
										</linearGradient>
										<circle class="st49" cx="349.5" cy="159.1" r="9.7"/>
										
											<linearGradient id="SVGID_42_" gradientUnits="userSpaceOnUse" x1="368.985" y1="340.4448" x2="382.385" y2="340.4448" gradientTransform="matrix(1 0 0 -1 -26.195 499.5749)">
											<stop  offset="0" style="stop-color:#25256A"/>
											<stop  offset="1" style="stop-color:#342780"/>
										</linearGradient>
										<path class="st50" d="M356.2,159.1c0,3.7-3,6.7-6.7,6.7s-6.7-3-6.7-6.7s3-6.7,6.7-6.7
											C353.2,152.4,356.2,155.4,356.2,159.1z"/>
										<path class="st1" d="M353.8,153.9c-0.1,0-0.1,0-0.2,0c-1.1,0.1-1.9,1-1.9,2.1c0,1.1,0.9,2.1,2.1,2.1
											c0.9,0,1.6-0.5,1.9-1.3c0.1-0.2,0.1-0.5,0.1-0.8C355.9,154.8,355,153.9,353.8,153.9z M346.4,163.2c-0.5-0.4-1.3-0.1-2,0.4
											c-0.8,0.5-1.5,1.4-2.1,2.2c-0.5,0.8-0.7,1.6-0.4,2c0.5,0.6,1.5,0.3,2.4-0.4c0.8-0.6,1.6-1.5,2-2.3
											C346.9,164.3,347,163.6,346.4,163.2z"/>
									</g>
								</g>
							</g>
							<path class="st31" d="M362.5,154.4c0,0-2.3-13.6-13.2-16.8c-12.7-3.6-17.3,7.1-17.3,7.1l-2.8-1.3c0,0,1.8,3.6,3.5,4.9
								c0,0,3.6-8.7,11.9-8.7C357.5,139.6,362.5,154.4,362.5,154.4z"/>
						</g>
						<g>
							
								<linearGradient id="SVGID_43_" gradientUnits="userSpaceOnUse" x1="2304.7834" y1="335.081" x2="2306.0706" y2="370.0136" gradientTransform="matrix(1 0 0 -1 -1904.7935 499.5749)">
								<stop  offset="1.600000e-02" style="stop-color:#E9A38B"/>
								<stop  offset="1" style="stop-color:#E69494"/>
							</linearGradient>
							<path class="st51" d="M382.8,130.1c0,0,1.1,27.1,3,35.6c0,0,23.4,2.1,29.1-5.4c5.7-7.6,5.4-19.4-0.3-29.6l-6.3-2.2
								L382.8,130.1z"/>
							<path class="st31" d="M382.8,130.1c10.5-6,22.2-6.6,31.8,0.6c-5.9-1.3-11.7-1.4-18-0.1c-2.8,0.6-7.5,4.3-10.2,3.8
								C383.6,134.1,383.4,132.6,382.8,130.1z"/>
							
								<linearGradient id="SVGID_44_" gradientUnits="userSpaceOnUse" x1="2291.5735" y1="355.1675" x2="2320.6135" y2="355.1675" gradientTransform="matrix(1 0 0 -1 -1904.7935 499.5749)">
								<stop  offset="0" style="stop-color:#B76073"/>
								<stop  offset="1" style="stop-color:#E3807E"/>
							</linearGradient>
							<path class="st52" d="M386.8,153.9c0,0,2.5-13.9,11.4-17.8c8.3-3.6,15.3,2,17.6,6.5c0,0-6.2-5.4-15.9-3.5
								C390.1,141,386.8,153.9,386.8,153.9z"/>
							<path class="st31" d="M411.2,161.8c-1.7,1.4-4,2.2-6.2,2.6c-2.3,0.4-4.6,0.4-6.9,0.2c0.7,0,1.8-0.5,2.4-0.7
								c0.8-0.3,1.7-0.6,2.5-0.9c1.6-0.6,3.2-1.4,4.6-2.2c1.5-0.9,2.9-1.8,4.3-2.9c0.5-0.4,1.1-1.1,1.8-1.4c0.9-0.3,0.7,0.4,0.5,0.9
								C413.7,159.2,412.7,160.7,411.2,161.8z"/>
							<path class="st47" d="M415.1,144.6c-3.9-5.8-14.6-7-21.8-1.1c-7.2,5.9-7.9,14.2-6.3,16.9c1.6,2.6,15.5,9.1,24.9-0.3
								C416.7,155.2,417.4,147.9,415.1,144.6z"/>
							<path class="st31" d="M386.6,154.4c0,0,2.3-13.6,13.2-16.8c12.7-3.6,17.3,7.1,17.3,7.1l2.8-1.3c0,0-1.8,3.6-3.5,4.9
								c0,0-3.6-8.7-11.9-8.7C391.5,139.6,386.6,154.4,386.6,154.4z"/>
							<g>
								<g>
									<defs>
										<path id="SVGID_45_" d="M415.1,144.6c-3.9-5.8-14.6-7-21.8-1.1c-7.2,5.9-7.9,14.2-6.3,16.9c1.6,2.6,15.5,9.1,24.9-0.3
											C416.7,155.2,417.4,147.9,415.1,144.6z"/>
									</defs>
									<clipPath id="SVGID_46_">
										<use xlink:href="#SVGID_45_"  style="overflow:visible;"/>
									</clipPath>
									<g class="st53">
										
											<linearGradient id="SVGID_47_" gradientUnits="userSpaceOnUse" x1="2303.5413" y1="330.2138" x2="2305.386" y2="353.1707" gradientTransform="matrix(1 0 0 -1 -1904.7935 499.5749)">
											<stop  offset="0" style="stop-color:#77449C"/>
											<stop  offset="1" style="stop-color:#6057BC"/>
										</linearGradient>
										<circle class="st54" cx="399.6" cy="159.1" r="9.7"/>
										
											<linearGradient id="SVGID_48_" gradientUnits="userSpaceOnUse" x1="-1146.0652" y1="340.4448" x2="-1132.665" y2="340.4448" gradientTransform="matrix(-1 0 0 -1 -739.8051 499.5749)">
											<stop  offset="0" style="stop-color:#25256A"/>
											<stop  offset="1" style="stop-color:#342780"/>
										</linearGradient>
										<path class="st55" d="M392.9,159.1c0,3.7,3,6.7,6.7,6.7s6.7-3,6.7-6.7s-3-6.7-6.7-6.7
											C395.9,152.4,392.9,155.4,392.9,159.1z"/>
										<path class="st1" d="M393.2,155.9c0,0.3,0.1,0.5,0.1,0.8c0.3,0.8,1.1,1.3,1.9,1.3c1.2,0,2.1-0.9,2.1-2.1
											c0-1.1-0.8-2-1.9-2.1c-0.1,0-0.1,0-0.2,0C394.1,153.9,393.2,154.8,393.2,155.9z M402.6,165.1c0.4,0.8,1.2,1.7,2,2.3
											c0.9,0.7,1.9,1,2.4,0.4c0.3-0.4,0.1-1.2-0.4-2s-1.3-1.7-2.1-2.2c-0.7-0.5-1.4-0.7-2-0.4
											C402.1,163.6,402.2,164.3,402.6,165.1z"/>
									</g>
								</g>
							</g>
						</g>
						<g>
							<path class="st56" d="M374.7,158.2c-2-3.1-9.1,10.9-9.1,10.9s3.7,4.7,8.9,4.7c5.2,0,9-5,9-5S380.6,167.5,374.7,158.2z"/>
							
								<linearGradient id="SVGID_49_" gradientUnits="userSpaceOnUse" x1="365.58" y1="328.2448" x2="383.54" y2="328.2448" gradientTransform="matrix(1 0 0 -1 0 499.5749)">
								<stop  offset="0" style="stop-color:#C66169"/>
								<stop  offset="1" style="stop-color:#E48782"/>
							</linearGradient>
							<path class="st57" d="M383.5,168.9c0,0-2.6,3.4-6.4,4.6c0,0,0,0,0,0c-0.8,0.3-1.7,0.4-2.6,0.4c-5.2,0-9-4.7-9-4.7
								c6.5,2.6,13,1.3,16.1,0.3C382.9,169.2,383.5,168.9,383.5,168.9z"/>
							<path class="st58" d="M383.5,168.9c0,0-2.6,3.4-6.4,4.6c3.6-1.9,4.5-3.9,4.5-3.9s-7.8-7.2-7.5-14.9
								C377.7,164.8,383.4,168.1,383.5,168.9z"/>
							<path class="st59" d="M369.6,171.7c-0.6-0.3-1.2-0.4-1.8-0.5c1,0.7,2.2,1.5,3.6,2C371,172.6,370.4,172.1,369.6,171.7z"/>
						</g>
						
							<linearGradient id="SVGID_50_" gradientUnits="userSpaceOnUse" x1="340.0474" y1="333.7645" x2="339.869" y2="319.311" gradientTransform="matrix(1 0 0 -1 0 499.5749)">
							<stop  offset="1.600000e-02" style="stop-color:#E9A38B"/>
							<stop  offset="1" style="stop-color:#E69494"/>
						</linearGradient>
						<ellipse class="st60" cx="340" cy="173.7" rx="8.6" ry="6"/>
						
							<linearGradient id="SVGID_51_" gradientUnits="userSpaceOnUse" x1="409.1869" y1="332.9109" x2="409.0085" y2="318.4574" gradientTransform="matrix(1 0 0 -1 0 499.5749)">
							<stop  offset="1.600000e-02" style="stop-color:#E9A38B"/>
							<stop  offset="1" style="stop-color:#E69494"/>
						</linearGradient>
						<ellipse class="st61" cx="409.1" cy="173.7" rx="8.6" ry="6"/>
						<g>
							
								<linearGradient id="SVGID_52_" gradientUnits="userSpaceOnUse" x1="3.2198" y1="467.8933" x2="3.2198" y2="470.3875" gradientTransform="matrix(-0.9941 -0.1086 0.1086 -0.9941 347.516 645.9265)">
								<stop  offset="1.600000e-02" style="stop-color:#E9A38B"/>
								<stop  offset="1" style="stop-color:#E69494"/>
							</linearGradient>
							<path class="st62" d="M393.4,179.3c1,0.8,2.4,1.5,3.7,1.3c0.3,0,0.6-0.2,0.7-0.5c0.3-0.5-0.5-1.3-1-1.5
								c-0.7-0.5-1.5-0.8-2.2-1c-0.7-0.2-1.6-0.4-1.9,0.2C392.5,178.3,392.9,178.9,393.4,179.3z"/>
							
								<linearGradient id="SVGID_53_" gradientUnits="userSpaceOnUse" x1="268.18" y1="177.052" x2="268.18" y2="180.0607" gradientTransform="matrix(-0.9867 0.1627 -0.1627 -0.9867 648.2377 317.3395)">
								<stop  offset="1.600000e-02" style="stop-color:#E9A38B"/>
								<stop  offset="1" style="stop-color:#E69494"/>
							</linearGradient>
							<path class="st63" d="M352.8,184.9c-0.4,1.4,0.2,2.4,2.3,0.7c0.4-0.3,0.8-0.7,1-1.1c0.2-0.4,0.3-1,0-1.4
								c-0.5-0.6-1.4-0.5-2,0C353.5,183.6,353,184.3,352.8,184.9z"/>
							
								<linearGradient id="SVGID_54_" gradientUnits="userSpaceOnUse" x1="247.6276" y1="172.5042" x2="247.6276" y2="178.1977" gradientTransform="matrix(-0.9867 0.1627 -0.1627 -0.9867 648.2377 317.3395)">
								<stop  offset="0" style="stop-color:#C66169"/>
								<stop  offset="1" style="stop-color:#E48782"/>
							</linearGradient>
							<path class="st64" d="M354.2,184.3c13.1,6,30.2,4.2,41.3-5.1c-8.3,3-17.4-0.3-23.6,2.8C369.2,183.2,362.6,185.8,354.2,184.3z
								"/>
							
								<linearGradient id="SVGID_55_" gradientUnits="userSpaceOnUse" x1="247.8215" y1="172.0887" x2="248.1779" y2="160.6899" gradientTransform="matrix(-0.9867 0.1627 -0.1627 -0.9867 648.2377 317.3395)">
								<stop  offset="0" style="stop-color:#C66169"/>
								<stop  offset="1" style="stop-color:#E48782"/>
							</linearGradient>
							<path class="st65" d="M395.5,179.1c0,0-3.3,12.6-8.3,16.5c-5.1,3.9-12.1,3.6-16.1,2.7c-5.9-1.4-16.8-14.1-16.8-14.1
								s6.7,3.4,19.3,1.5C386,183.9,389.7,183.7,395.5,179.1z"/>
							<path class="st66" d="M356.1,185l2.1,0.6c3.2,0.7,8.4,1.3,15.3,0.2c10.4-1.6,16.4-3.1,20.9-5.8l0,0c0,0-4.1,8.8-6.9,11.6
								c-1.7,1.7-4.7,2.6-8.4,3.2c-3.8,0.6-6.5,0.6-9.6-0.3C366.2,193.5,356.1,185,356.1,185z"/>
							<path class="st47" d="M380.8,192.1c-4.7,1.6-10.1,1.6-15.1,0.2c1.6,1,3,1.9,3.9,2.1c3.1,0.9,5.8,1,9.6,0.3
								c3.8-0.6,6.7-1.5,8.4-3.2c1.3-1.3,2.8-3.8,4.1-6.1C388.6,188.3,385,190.7,380.8,192.1z"/>
							<path class="st47" d="M387.6,182.9c-1.8,1-5.9,3.1-10.6,3.8c-0.5,0.1-1,0.1-1.5,0.2c-4.2,0.5-8.6,0-12.1-0.7
								c2.8,0.2,6.2,0,10.2-0.6C379.5,184.8,384.4,183.7,387.6,182.9z"/>
						</g>
					</g>
				</g>
				<path class="st67" d="M341.9,99.2c-6.8-10.5-17.1-28.9,6.6-41.9s43.2-8.4,41.1,9.5c-3.9,33.8-4.8,41.1,19.4,48.3
					s22.9,31.7,13,48c-9.9,16.3-2.3,28.2,6.4,38.5s6.4,28.5-4,20.5c0,0,0.1,7.4,8.7,3.7c8.7-3.7,8.7-12.4-4.8-33.4
					c-13.5-21,14.3-31.9,24.1-47.9c9.8-16,12.9-31-5.5-48c-18.3-17-9.9-29-6-47.6s-1.4-26.1-29.2-20.6
					c-27.8,5.6-101.3,28.2-105.3,37.1s2.6,20.6,2.6,20.6L341.9,99.2z"/>
				<g class="st68">
					<path class="st69" d="M433.9,116.5c-3.5-2.6-8.1-4-12.2-5c-8-2-16.8-3.5-22.2-9.6c-5.6-6.3-6-15.5-6.7-24
						c-0.4-4.6-1.2-9.5-3-13.7c0,0.8,0,1.7-0.1,2.6c-3.9,33.8-4.8,41.1,19.4,48.3c19.8,5.8,22.5,23.4,17.4,38.5
						c4.6-8,9.1-16.4,10.4-25.6C437.5,123,437.9,119.5,433.9,116.5z"/>
					
						<linearGradient id="SVGID_56_" gradientUnits="userSpaceOnUse" x1="305.2822" y1="419.8848" x2="343.94" y2="419.8848" gradientTransform="matrix(1 0 0 -1 0 499.5749)">
						<stop  offset="5.167000e-04" style="stop-color:#530056"/>
						<stop  offset="1" style="stop-color:#221350"/>
					</linearGradient>
					<path class="st70" d="M343.9,60.2c-2.6,1.1-5.1,2.3-7.4,3.9c-7.2,4.8-12.9,12.9-12.3,21.5c-1.4-4.9-2.8-9.8-4.1-14.7
						c-1.3,4.5-2.5,9-3.8,13.4c-6.1-3.7-9.8-10.6-10.1-17.7c-3,8.7,3.1,19.4,3.1,19.4l32.7,13.2C335.6,89.5,326.3,72.9,343.9,60.2z"
						/>
				</g>
				<path class="st12" d="M341.9,99.2c-3.5-23.4-5.3-31.9,15-42c12.8-6.3,30.1,5.9,21.7,28.7c-2.3,6.3-3.9,16,1.2,21.7
					c5.1,5.7,12.6,9.7,20.8,9.5c-5.3-1.2-9.9-4.6-12.4-9.1c-4-7.2-1.7-17.4,0.9-24.7c7-19.4,9.6-31-6.9-36.5
					c-16.5-5.5-44,9.6-49.8,19.5C323.5,81.8,341.9,99.2,341.9,99.2z"/>
				
					<linearGradient id="SVGID_57_" gradientUnits="userSpaceOnUse" x1="317.7932" y1="403.2517" x2="333.7605" y2="389.8655" gradientTransform="matrix(1 0 0 -1 0 499.5749)">
					<stop  offset="5.167000e-04" style="stop-color:#530056"/>
					<stop  offset="1" style="stop-color:#221350"/>
				</linearGradient>
				<path class="st71" d="M318.5,115.1c6.2-13.7,23.4-15.9,23.4-15.9s-1.9-3.5-5.8-4.7c-3.9-1.2-15.5,1.1-15.5,1.1l-3.8,7.8
					l-0.5,7.6L318.5,115.1z"/>
				<path class="st12" d="M341.9,99.2c0,0-9.5-8.4-16.1,0c-6.6,8.4-0.9,21,3.9,31.9s2.3,27.4-3.5,41.9c-2.8,6.9-4.7,13.6-1.5,20.4
					c1.3,2.6,3.1,5,4,7.8c1,3.2,0.6,6.9-1,9.8c-1.2,2.1-3.3,3.9-5.7,4.2s-5.1-1.5-5.3-3.9c3.5,1.4,7.9-2.2,8.2-5.9
					c0.3-3.7-1.8-7.2-4-10.3c-2.2-3-4.8-6-5.6-9.7c-0.9-4.2,0.5-8.5,2.4-12.4s4-7.7,4.7-11.9c1.4-8.9-4.3-17.2-7.6-25.6
					c-3.1-8-4.3-16.7-3.2-25.2c0.6-4.6,1.9-9.3,4.5-13.2c2.7-3.8,6.9-6.8,11.5-7.2C332.3,89.5,340.3,94.8,341.9,99.2z"/>
				<path class="st72" d="M452,95.8c-18.3-17-9.9-29-6-47.6s-1.4-26.1-29.2-20.6C395.2,32,346.2,46.5,323.4,57c1.1,0.6,2.5,1,3.8,1
					c2.7,0.1,5.3-0.8,7.8-1.7c18-6.3,36.1-12.5,54.2-18.8c5-1.7,11.4-3.1,14.8,0.9c3,3.5,1.5,8.9,0,13.3c-1.5,4.4-2.7,9.9,0.5,13.1
					c4.4,4.4,13.1,0.8,17.4,5.3c6.8,7.1-3.8,20.7,2.3,29.4c2.8,3.9,7.2,6.4,11.6,8.3s9.1,3.4,13.1,6c7.9,5.2,12.2,15.1,11.6,24.5
					C467.7,124.3,468.2,110.8,452,95.8z"/>
				<path class="st12" d="M415.1,66.7c3.3,0.7,7.2,0.3,9.7,2.6c2,1.8,2.4,4.9,2,7.6s-1.4,5.3-1.8,8c-0.6,4.8,1.1,9.8,4.5,13.3
					s8.4,5.2,13.2,4.7c-7.3-1.8-12.9-8.9-12.9-16.4c0-4.3,1.5-8.4,2.1-12.7c0.6-4.3-0.1-9.2-3.6-11.7c-4.8-3.5-12.3-0.6-17.1-4.1
					c-2.8-2-4.4-6.1-4.2-9.5c0.2-3.6,1-5.5,3.3-9.6C401.7,46.7,402.1,64,415.1,66.7z"/>
			</g>
		</g>
		<g>
			<defs>
				<rect id="SVGID_58_" y="0" width="750" height="500"/>
			</defs>
			<clipPath id="SVGID_59_">
				<use xlink:href="#SVGID_58_"  style="overflow:visible;"/>
			</clipPath>
			<g class="st73">
				<g>
					
						<linearGradient id="SVGID_60_" gradientUnits="userSpaceOnUse" x1="182.49" y1="12.3548" x2="182.49" y2="144.4444" gradientTransform="matrix(1 0 0 -1 0 499.5749)">
						<stop  offset="1.600000e-02" style="stop-color:#EFC1A9"/>
						<stop  offset="1" style="stop-color:#E69494"/>
					</linearGradient>
					<path class="st74" d="M146.3,429c0.8-8.3,5.1-8.2,17.5-18.2c12.4-10,16.5-28.5,24.1-36.1c7.6-7.6,8.6-18,13.9-19.4
						c5.3-1.4,7.7,11.2,6.4,22.9s-12.7,20.2-12.7,20.2l23.2,89l-49.2-10L146.3,429z"/>
					
						<linearGradient id="SVGID_61_" gradientUnits="userSpaceOnUse" x1="148.1423" y1="95.1917" x2="224.2496" y2="60.3998" gradientTransform="matrix(1 0 0 -1 0 499.5749)">
						<stop  offset="1.600000e-02" style="stop-color:#E9A38B"/>
						<stop  offset="1" style="stop-color:#E69494"/>
					</linearGradient>
					<path class="st75" d="M169.5,477.2l49.2,10l-23.2-89l0,0l0,0l0,0c0,0,5.4-4,9.2-10.3c0.4-0.6,0.7-1.2,1-1.8
						c0.3-0.6,0.6-1.2,0.9-1.9c0.1-0.3,0.3-0.6,0.4-1c0.6-1.6,1.1-3.4,1.3-5.2c0.1-0.8,0.2-1.5,0.2-2.3c0,0,0,0,0-0.1
						c0.1-0.8,0.1-1.5,0.1-2.2c0,0,0,0,0-0.1c0-0.8,0-1.5,0-2.2c0,0,0,0,0,0c0-0.8,0-1.5-0.1-2.2l0,0c-1.3,0.6-2.4,1.5-3,2.8
						c-1.1,2.5,0,5.4-0.4,8c-0.4,2.8-1.7,5.6-3.3,7.7c-3.1,4.1-8,7.1-9,12.1c-0.4,1.8-0.2,3.8-1.1,5.5c-1,1.9-3,3-4.9,3.8
						c-3.6,1.6-7.2,3.1-10.9,4.4c-1.9,0.7-3.8,1.3-5.8,1.2c-2-0.1-4.1-1.1-4.9-3c-0.2-0.5-0.3-1-0.4-1.5c-0.3,0.3-0.6,0.5-0.9,0.8
						c-3.1,2.5-5.7,4.4-7.9,5.9c-0.5,0.4-1.1,0.7-1.5,1.1c-0.7,0.5-1.4,1-2,1.5c-1.6,1.2-2.9,2.3-3.8,3.4c-0.2,0.3-0.4,0.6-0.6,0.9
						c-0.1,0.2-0.2,0.3-0.3,0.5c-0.7,1.3-1.1,2.9-1.3,4.9L169.5,477.2z"/>
					
						<linearGradient id="SVGID_62_" gradientUnits="userSpaceOnUse" x1="186.9734" y1="47.8023" x2="263.0807" y2="13.0104" gradientTransform="matrix(1 0 0 -1 0 499.5749)">
						<stop  offset="0" style="stop-color:#B76073"/>
						<stop  offset="1" style="stop-color:#E3807E"/>
					</linearGradient>
					<path class="st76" d="M150.8,438.4l18.7,38.8l49.2,10l-16.1-61.7C185.2,429.2,167.8,432.9,150.8,438.4z"/>
					
						<linearGradient id="SVGID_63_" gradientUnits="userSpaceOnUse" x1="170.0933" y1="135.6325" x2="215.2769" y2="83.9941" gradientTransform="matrix(1 0 0 -1 0 499.5749)">
						<stop  offset="1.600000e-02" style="stop-color:#EFC1A9"/>
						<stop  offset="1" style="stop-color:#E69494"/>
					</linearGradient>
					<path class="st77" d="M190,389.4c3.7-6.8,7.5-13.9,8.2-21.6c0.2-2.4,0.1-4.8,0.7-7.1c0.6-2.3,1.9-4.6,4.1-5.5
						c-0.4,0-0.7,0-1.1,0.1c-5.3,1.4-6.4,11.7-13.9,19.4c-6.8,6.8-10.7,22.3-20.4,32.7c2.3,0.2,4.6,0,6.7-0.8
						C181.7,403.9,186.2,396.4,190,389.4z"/>
				</g>
				<g>
					
						<linearGradient id="SVGID_64_" gradientUnits="userSpaceOnUse" x1="-1333.512" y1="12.3548" x2="-1333.512" y2="144.4444" gradientTransform="matrix(-1 0 0 -1 -761.162 499.5749)">
						<stop  offset="1.600000e-02" style="stop-color:#EFC1A9"/>
						<stop  offset="1" style="stop-color:#E69494"/>
					</linearGradient>
					<path class="st78" d="M608.6,429c-0.8-8.3-5.1-8.2-17.5-18.2s-16.5-28.5-24.1-36.1c-7.6-7.6-8.6-18-14-19.4
						c-5.3-1.4-7.7,11.2-6.4,22.9s12.7,20.2,12.7,20.2l-23.2,89l49.2-10L608.6,429z"/>
					
						<linearGradient id="SVGID_65_" gradientUnits="userSpaceOnUse" x1="-1367.858" y1="95.1911" x2="-1291.7506" y2="60.399" gradientTransform="matrix(-1 0 0 -1 -761.162 499.5749)">
						<stop  offset="1.600000e-02" style="stop-color:#E9A38B"/>
						<stop  offset="1" style="stop-color:#E69494"/>
					</linearGradient>
					<path class="st79" d="M585.3,477.2l-49.2,10l23.2-89l0,0l0,0l0,0c0,0-5.4-4-9.2-10.3c-0.3-0.6-0.7-1.2-1-1.8s-0.6-1.2-0.9-1.9
						c-0.1-0.3-0.3-0.6-0.4-1c-0.6-1.6-1.1-3.4-1.3-5.2c-0.1-0.8-0.2-1.5-0.2-2.3c0,0,0,0,0-0.1c-0.1-0.8-0.1-1.5-0.1-2.2
						c0,0,0,0,0-0.1c0-0.8,0-1.5,0-2.2c0,0,0,0,0,0c0-0.8,0-1.5,0.1-2.2l0,0c1.3,0.6,2.5,1.5,3,2.8c1.1,2.5,0,5.4,0.4,8
						c0.4,2.8,1.7,5.6,3.3,7.7c3.1,4.1,8,7.1,9,12.1c0.4,1.8,0.2,3.8,1.1,5.5c1,1.9,3,3,4.9,3.8c3.6,1.6,7.2,3.1,10.9,4.4
						c1.9,0.7,3.8,1.3,5.8,1.2c2-0.1,4.1-1.1,4.9-3c0.2-0.5,0.3-1,0.4-1.5c0.3,0.3,0.6,0.5,0.9,0.8c3.1,2.5,5.7,4.4,7.9,5.9
						c0.5,0.4,1,0.7,1.5,1.1c0.7,0.5,1.4,1,2,1.5c1.7,1.2,2.9,2.3,3.8,3.4c0.2,0.3,0.5,0.6,0.7,0.9c0.1,0.2,0.2,0.3,0.3,0.5
						c0.7,1.3,1.1,2.9,1.3,4.9L585.3,477.2z"/>
					
						<linearGradient id="SVGID_66_" gradientUnits="userSpaceOnUse" x1="-1329.0269" y1="47.8015" x2="-1252.9196" y2="13.0095" gradientTransform="matrix(-1 0 0 -1 -761.162 499.5749)">
						<stop  offset="0" style="stop-color:#B76073"/>
						<stop  offset="1" style="stop-color:#E3807E"/>
					</linearGradient>
					<path class="st80" d="M604,438.4l-18.7,38.8l-49.2,10l16.1-61.7C569.7,429.2,587.1,432.9,604,438.4z"/>
					
						<linearGradient id="SVGID_67_" gradientUnits="userSpaceOnUse" x1="-1345.9078" y1="135.6315" x2="-1300.7242" y2="83.9931" gradientTransform="matrix(-1 0 0 -1 -761.162 499.5749)">
						<stop  offset="1.600000e-02" style="stop-color:#EFC1A9"/>
						<stop  offset="1" style="stop-color:#E69494"/>
					</linearGradient>
					<path class="st81" d="M564.9,389.4c-3.7-6.8-7.5-13.9-8.2-21.6c-0.2-2.4-0.2-4.8-0.7-7.1c-0.6-2.3-1.9-4.6-4-5.5
						c0.3,0,0.7,0,1.1,0.1c5.3,1.4,6.4,11.7,14,19.4c6.8,6.8,10.7,22.3,20.4,32.7c-2.3,0.2-4.6,0-6.7-0.8
						C573.1,403.9,568.7,396.4,564.9,389.4z"/>
				</g>
				<g>
					
						<linearGradient id="SVGID_68_" gradientUnits="userSpaceOnUse" x1="237.2105" y1="62.0423" x2="235.5578" y2="30.364" gradientTransform="matrix(1 0 0 -1 0 499.5749)">
						<stop  offset="1.600000e-02" style="stop-color:#EFC1A9"/>
						<stop  offset="1" style="stop-color:#E69494"/>
					</linearGradient>
					<path class="st82" d="M260.4,446c-0.7-1.1-1.8-2.1-3.1-2.9c-3.5-1.9-33.8-2.8-43.5-3.2c-0.1,0.1-0.1,0.2-0.2,0.3
						c-1.2,3,1.5,7,3.9,8.5c3.4,2.1,7.7,2.1,11.7,2.1c7.2,0,14.4-0.1,21.6-0.2c2,0,4.1,0,6-0.8C258.6,449.2,260,447.8,260.4,446z"/>
					
						<linearGradient id="SVGID_69_" gradientUnits="userSpaceOnUse" x1="207.4389" y1="45.6253" x2="222.4461" y2="14.5934" gradientTransform="matrix(1 0 0 -1 0 499.5749)">
						<stop  offset="0" style="stop-color:#B76073"/>
						<stop  offset="1" style="stop-color:#E3807E"/>
					</linearGradient>
					<path class="st83" d="M218.8,472.8c0.8,2.9,0.6,6-0.5,8.7C220.8,479.7,220.8,475,218.8,472.8z"/>
					
						<linearGradient id="SVGID_70_" gradientUnits="userSpaceOnUse" x1="220.5578" y1="89.4481" x2="229.3296" y2="71.3097" gradientTransform="matrix(1 0 0 -1 0 499.5749)">
						<stop  offset="0" style="stop-color:#B76073"/>
						<stop  offset="1" style="stop-color:#E3807E"/>
					</linearGradient>
					<path class="st84" d="M227.2,426.1c-0.2-1.5-0.4-3.1-0.6-4.7C228.1,422.6,228.3,424.4,227.2,426.1z"/>
					
						<linearGradient id="SVGID_71_" gradientUnits="userSpaceOnUse" x1="-1143.592" y1="-12.3918" x2="-1141.2172" y2="139.5925" gradientTransform="matrix(-1 0 0 -1 -761.6642 499.5749)">
						<stop  offset="0" style="stop-color:#25256A"/>
						<stop  offset="1" style="stop-color:#342780"/>
					</linearGradient>
					<path class="st85" d="M237.4,368.6c31.7-4.4,80-8.5,142.4-8.5c62.9,0,111.5,4.2,143.2,8.6c20.3,2.8-9.5,140.9-30.9,141.4
						c-40.6,1-98.2,1.2-112.3,1.2c-14.1,0-71.7-0.3-112.3-1.2C246.1,509.7,216.6,371.5,237.4,368.6z"/>
					<g>
						
							<linearGradient id="SVGID_72_" gradientUnits="userSpaceOnUse" x1="550.8318" y1="131.2115" x2="520.7709" y2="-11.2998" gradientTransform="matrix(1 0 0 -1 0 499.5749)">
							<stop  offset="0" style="stop-color:#699EFC"/>
							<stop  offset="1" style="stop-color:#996DFB"/>
						</linearGradient>
						<path class="st86" d="M573.5,402.8c8.3-11.5,0.8-23-13.6-28.1c-5.6-2-19-5-39.3-7.8c2.5,3.4,4,7.5,1.7,14.4
							c-13.7,40.6-20.1,86.2-32.6,127c21.4-0.5,38.1-1.2,41.1-2.1c8.7-2.7,16.7-44.7,24.1-66.6C562.2,417.6,565.1,414.2,573.5,402.8
							z"/>
						<g>
							<path class="st31" d="M487,508.3c0.9,0,1.8,0,2.7-0.1c12.4-40.8,18.9-86.4,32.6-127c2.3-6.9,0.8-11-1.7-14.4
								c-0.3,0-0.5-0.1-0.8-0.1c1.7,3,2.4,6.8,0.5,12.5C506.3,420.5,499.9,467,487,508.3z"/>
						</g>
					</g>
					<g>
						
							<linearGradient id="SVGID_73_" gradientUnits="userSpaceOnUse" x1="-965.17" y1="131.2119" x2="-995.231" y2="-11.2994" gradientTransform="matrix(-1 0 0 -1 -761.162 499.5749)">
							<stop  offset="0" style="stop-color:#699EFC"/>
							<stop  offset="1" style="stop-color:#996DFB"/>
						</linearGradient>
						<path class="st87" d="M181.4,402.8c-8.4-11.5-0.8-23,13.6-28.1c5.6-2,19-5,39.3-7.8c-2.5,3.4-4,7.5-1.7,14.4
							c13.7,40.6,20.1,86.2,32.6,127c-21.4-0.5-38.1-1.2-41.1-2.1c-8.7-2.7-16.7-44.7-24.1-66.6
							C192.6,417.6,189.7,414.2,181.4,402.8z"/>
						
							<linearGradient id="SVGID_74_" gradientUnits="userSpaceOnUse" x1="215.9989" y1="70.0773" x2="226.0377" y2="46.6535" gradientTransform="matrix(1 0 0 -1 0 499.5749)">
							<stop  offset="0" style="stop-color:#8F68BE"/>
							<stop  offset="1" style="stop-color:#D5ECFE"/>
						</linearGradient>
						<path class="st88" d="M241.7,461c4.3-2,7.7-4.2,10-5.9c-0.3-1.1-0.5-2.2-0.8-3.4l-49.4-7.3l5.9-7c0,0,22.7-0.4,32-9.3
							l-23.1-4.7l-19.9,5.8c1.1,2.9,2.3,6.2,3.6,10.1c3.1,9.4,6.4,22.6,9.8,34.7C214.5,472.3,234.4,464.3,241.7,461z"/>
						
							<linearGradient id="SVGID_75_" gradientUnits="userSpaceOnUse" x1="-1299.9961" y1="70.0795" x2="-1289.9574" y2="46.6557" gradientTransform="matrix(-1 0 0 -1 -761.6642 499.5749)">
							<stop  offset="0" style="stop-color:#8F68BE"/>
							<stop  offset="1" style="stop-color:#D5ECFE"/>
						</linearGradient>
						<path class="st89" d="M512.6,461c-4.3-2-7.7-4.2-10-5.9c0.3-1.1,0.5-2.2,0.8-3.4l49.4-7.3l-6-7c0,0-22.7-0.4-32-9.3l23.2-4.7
							l19.9,5.8c-1.1,2.9-2.3,6.2-3.6,10.1c-3.2,9.4-6.4,22.6-9.8,34.7C539.8,472.3,519.9,464.3,512.6,461z"/>
						<g>
							<path class="st31" d="M267.9,508.3c-0.9,0-1.8,0-2.7-0.1c-12.4-40.8-18.9-86.4-32.6-127c-2.3-6.9-0.8-11,1.7-14.4
								c0.3,0,0.5-0.1,0.8-0.1c-1.7,3-2.4,6.8-0.4,12.5C248.5,420.5,255,467,267.9,508.3z"/>
						</g>
					</g>
					<path class="st90" d="M195,381.4c14.4-5.2,79.2-16.4,182.4-16.4s168.1,11.2,182.5,16.4c8.8,3.1,15,8.7,16.6,15.1
						c2.3-9.2-4.9-17.6-16.6-21.8c-14.4-5.2-79.2-16.4-182.5-16.4c-62.9,0-111.5,4.2-143.2,8.6c-20.3,2.8-33.7,5.8-39.3,7.8
						c-11.7,4.2-18.9,12.6-16.6,21.8C179.9,390,186.2,384.5,195,381.4z"/>
				</g>
				<g>
					
						<linearGradient id="SVGID_76_" gradientUnits="userSpaceOnUse" x1="160.7172" y1="102.3274" x2="222.1834" y2="15.3167" gradientTransform="matrix(1 0 0 -1 0 499.5749)">
						<stop  offset="1.600000e-02" style="stop-color:#EFC1A9"/>
						<stop  offset="1" style="stop-color:#E69494"/>
					</linearGradient>
					<path class="st91" d="M146.3,433.3c-4.5-8.6,3.5-14.2,11-14.9c7.5-0.6,40-8.1,44-8.1c4,0,40.6,8.5,43.3,12.4
						c2.7,4-0.4,8.6-6.6,10.1s-28.9-0.5-28.9-0.5l-24.1,6c0,0-1,2.9,1.5,5.2c0,0,21.5-4,24.6-3.7c3.1,0.3,42.3,1.1,46.2,3.3
						c4,2.2,5.8,6.9,1.2,10.4c-4.5,3.6-17.7,6.6-25.1,6.2c-7.4-0.4-16.3-0.7-16.3-0.7l-29.6,7c0,0-0.2,1.7,0.3,2.6
						c0,0,26.4,0.3,27.6,0.3c1.1,0,21.3-7.8,26.2-8s9.1,2.9,8.5,5.6s-4.1,7-16.3,13.6c0,0-1.2,8.7-4.8,11.8
						c-3.6,3.1-18.9,12.9-31.8,14.9c-12.9,2-23.4,1.1-27.3-3.3c-3.8-4.5,0-11.4-5.9-16.5s-4.2-5.9-5.2-14.8c-1-8.9-7-9.5-6.7-19.5
						C152.5,442.8,150.4,441.4,146.3,433.3z"/>
					
						<linearGradient id="SVGID_77_" gradientUnits="userSpaceOnUse" x1="171.0284" y1="66.032" x2="240.5247" y2="-0.6394" gradientTransform="matrix(1 0 0 -1 0 499.5749)">
						<stop  offset="1.600000e-02" style="stop-color:#E9A38B"/>
						<stop  offset="1" style="stop-color:#CF7078"/>
					</linearGradient>
					<path class="st92" d="M258.6,453.6c0.3-0.2,0.5-0.4,0.8-0.7c-1.7,0.8-3.5,1.1-5.4,1.4c-13.2,1.9-26.7,1.4-39.7-1.5
						c-1.1,0.6-2,1.7-3.1,2.4c-0.7-1.3-1.4-2.6-2.2-3.9c1.1,2.6-0.9,5.7-3.5,6.8s-5.6,0.7-8.4,0.4c-6.3-0.8-12.7-1.7-19-2.5
						c-1.8-0.2-3.8-0.6-4.9-2.1c-1-1.4-0.7-3.4,0.3-4.9c0.9-1.5,2.3-2.4,3.7-3.4l9.3-2c-2.5-2.3-1.5-5.2-1.5-5.2l24.1-6
						c0,0,22.8,2.1,28.9,0.5c1.8-0.4,3.2-1.1,4.4-2c-1.4,0.4-2.8,0.4-4.2,0.3c-2.7-0.3-5.3-1.2-7.9-1.9c-9.2-2.6-18-4.5-27.1-1.6
						c-9.9,3.1-20.2,4.8-30.5,5.1c-5.2,0.1-10.8-0.1-15.1-3.1c-3.3-2.2-5.4-6.5-4.9-10.2c-5.7,2-10,7-6.5,13.9c4.2,8,6.2,9.5,6,19.5
						s5.7,10.6,6.7,19.5s-0.7,9.7,5.2,14.8s2.1,12,5.9,16.5s14.4,5.4,27.3,3.3c12.9-2,28.2-11.8,31.8-14.9s4.8-11.8,4.8-11.8
						c12.2-6.6,15.8-10.8,16.3-13.6c0.6-2.7-3.6-5.8-8.5-5.6c-1.8,0-5.7,1.1-9.9,2.5c0.7,0.3,1.3,0.7,1.6,1.3c1,1.5,0.2,3.7-1.3,4.8
						c-2.4,1.8-11.8,2.7-12.7-0.9c-0.1-0.3-0.1-0.6-0.1-0.9c-2.1,0.7-3.6,1.2-3.8,1.2c-1.1,0-27.6-0.3-27.6-0.3
						c-0.5-0.9-0.3-2.6-0.3-2.6l29.6-7c0,0,8.9,0.3,16.3,0.7C240.8,460.2,254,457.2,258.6,453.6z"/>
					<g>
						
							<linearGradient id="SVGID_78_" gradientUnits="userSpaceOnUse" x1="209.179" y1="58.4095" x2="177.4144" y2="57.551" gradientTransform="matrix(1 0 0 -1 0 499.5749)">
							<stop  offset="0" style="stop-color:#B76073"/>
							<stop  offset="1" style="stop-color:#E3807E"/>
						</linearGradient>
						<path class="st93" d="M186.5,443.5c-2-1.9-1.7-4.4-1.5-5.2l-9.1,2.2l1.4,4.9L186.5,443.5z"/>
						
							<linearGradient id="SVGID_79_" gradientUnits="userSpaceOnUse" x1="209.8725" y1="32.7526" x2="178.1078" y2="31.8941" gradientTransform="matrix(1 0 0 -1 0 499.5749)">
							<stop  offset="0" style="stop-color:#B76073"/>
							<stop  offset="1" style="stop-color:#E3807E"/>
						</linearGradient>
						<path class="st94" d="M187.6,466.1l-7.6,1.9l7.9,0.7C187.4,467.8,187.6,466.1,187.6,466.1z"/>
					</g>
					<g>
						
							<linearGradient id="SVGID_80_" gradientUnits="userSpaceOnUse" x1="249.8571" y1="32.6429" x2="224.0675" y2="46.6803" gradientTransform="matrix(1 0 0 -1 0 499.5749)">
							<stop  offset="0" style="stop-color:#B76073"/>
							<stop  offset="1" style="stop-color:#E3807E"/>
						</linearGradient>
						<path class="st95" d="M249,463.6c-1.5-1.5-4.3-2.7-7.3-2.6c-1.3,0-3.5,0.6-6.2,1.4C240.1,463.7,245.3,463.8,249,463.6z"/>
						
							<linearGradient id="SVGID_81_" gradientUnits="userSpaceOnUse" x1="222.4981" y1="-17.6219" x2="196.7083" y2="-3.5846" gradientTransform="matrix(1 0 0 -1 0 499.5749)">
							<stop  offset="0" style="stop-color:#B76073"/>
							<stop  offset="1" style="stop-color:#E3807E"/>
						</linearGradient>
						<path class="st96" d="M159.4,478.9c0.2,3.2,0.8,4.7,4.7,8.1c1.4,1.2,2.2,2.5,2.7,3.8c-0.1-0.5-0.2-1.1-0.4-1.7
							C164.6,482.8,162.5,483.2,159.4,478.9z"/>
						
							<linearGradient id="SVGID_82_" gradientUnits="userSpaceOnUse" x1="205.4364" y1="16.3738" x2="235.9733" y2="-23.1008" gradientTransform="matrix(1 0 0 -1 0 499.5749)">
							<stop  offset="0" style="stop-color:#B76073"/>
							<stop  offset="1" style="stop-color:#E3807E"/>
						</linearGradient>
						<path class="st97" d="M233.9,480.2c-3,2.1-12.9,5.4-14.5,6.1c-1.6,0.7-32.9,3.4-32.9,3.4s11.7,3.6,18.7,5.9
							c4,1.3-3.3,7.7-11.7,11.9c1.3-0.1,2.6-0.3,3.9-0.5c12.9-2,28.2-11.8,31.8-14.9S233.9,480.2,233.9,480.2z"/>
					</g>
					
						<linearGradient id="SVGID_83_" gradientUnits="userSpaceOnUse" x1="207.0761" y1="89.8043" x2="216.4419" y2="28.3759" gradientTransform="matrix(1 0 0 -1 0 499.5749)">
						<stop  offset="1.600000e-02" style="stop-color:#EFC1A9"/>
						<stop  offset="1" style="stop-color:#E69494"/>
					</linearGradient>
					<path class="st98" d="M177.8,419.5c1.9,1.4,4.5,1.3,6.9,1.1c4.3-0.3,8.5-0.7,12.8-1c1.7-0.1,3.5-0.3,4.9-1.4
						c0.8-0.6,1.3-1.7,1.3-2.7c0.2,0.4,0.4,0.8,0.6,1.2c0.4-0.7,0.7-1.5,1.1-2.2c11.3,5.6,23.5,9.3,36.1,10.8
						c-0.9-2.5-2.5-4.6-4.5-6.3c-11.7-4-32.6-8.7-35.5-8.7c-2.3,0-13.8,2.5-24.7,4.7C175.9,416.4,176.5,418.5,177.8,419.5z"/>
					
						<linearGradient id="SVGID_84_" gradientUnits="userSpaceOnUse" x1="195.9339" y1="81.4023" x2="216.167" y2="39.5645" gradientTransform="matrix(1 0 0 -1 0 499.5749)">
						<stop  offset="0" style="stop-color:#B76073"/>
						<stop  offset="1" style="stop-color:#E3807E"/>
					</linearGradient>
					<path class="st99" d="M210.9,455.1c0.6-3.6,0-7.4-1.7-10.6c2.2,0.8,3.9,2.4,4.3,4.7C213.9,451.5,212.8,453.6,210.9,455.1z"/>
					
						<linearGradient id="SVGID_85_" gradientUnits="userSpaceOnUse" x1="191.1991" y1="105.1521" x2="207.3326" y2="71.7913" gradientTransform="matrix(1 0 0 -1 0 499.5749)">
						<stop  offset="0" style="stop-color:#B76073"/>
						<stop  offset="1" style="stop-color:#E3807E"/>
					</linearGradient>
					<path class="st100" d="M203.9,423.5c0.1-2.8-0.7-5.6-2.3-8C204.7,417.4,205.2,420.2,203.9,423.5z"/>
					
						<linearGradient id="SVGID_86_" gradientUnits="userSpaceOnUse" x1="162.3724" y1="68.4006" x2="169.6092" y2="53.4364" gradientTransform="matrix(1 0 0 -1 0 499.5749)">
						<stop  offset="0" style="stop-color:#B76073"/>
						<stop  offset="1" style="stop-color:#E3807E"/>
					</linearGradient>
					<path class="st101" d="M162.5,442.8c3.5-0.3,7.1-0.7,10.6-1C169.7,440.5,165.8,441.3,162.5,442.8z"/>
				</g>
				<g>
					
						<linearGradient id="SVGID_87_" gradientUnits="userSpaceOnUse" x1="-1355.2875" y1="102.3241" x2="-1293.8213" y2="15.3134" gradientTransform="matrix(-1 0 0 -1 -761.162 499.5749)">
						<stop  offset="1.600000e-02" style="stop-color:#EFC1A9"/>
						<stop  offset="1" style="stop-color:#E69494"/>
					</linearGradient>
					<path class="st102" d="M608.6,433.3c4.5-8.6-3.5-14.2-11-14.9c-7.5-0.6-40-8.1-44-8.1c-4,0-40.6,8.5-43.3,12.4
						c-2.7,4,0.4,8.6,6.6,10.1c6.2,1.5,28.9-0.5,28.9-0.5l24.1,6c0,0,1,2.9-1.5,5.2c0,0-21.5-4-24.6-3.7c-3.1,0.3-42.3,1.1-46.2,3.3
						s-5.8,6.9-1.2,10.4c4.5,3.6,17.7,6.6,25.1,6.2c7.4-0.4,16.3-0.7,16.3-0.7l29.5,7c0,0,0.2,1.7-0.3,2.6c0,0-26.4,0.3-27.6,0.3
						c-1.2,0-21.3-7.8-26.2-8s-9,2.9-8.5,5.6s4.1,7,16.3,13.6c0,0,1.2,8.7,4.8,11.8c3.6,3.1,18.9,12.9,31.8,14.9
						c12.9,2,23.4,1.1,27.3-3.3c3.8-4.5,0-11.4,5.9-16.5c5.9-5.1,4.2-5.9,5.2-14.8c1-8.9,7-9.5,6.7-19.5
						C602.3,442.8,604.4,441.4,608.6,433.3z"/>
					
						<linearGradient id="SVGID_88_" gradientUnits="userSpaceOnUse" x1="575.7024" y1="71.2801" x2="519.4064" y2="-7.9267" gradientTransform="matrix(1 0 0 -1 0 499.5749)">
						<stop  offset="1.600000e-02" style="stop-color:#E9A38B"/>
						<stop  offset="1" style="stop-color:#CF7078"/>
					</linearGradient>
					<path class="st103" d="M496.3,453.6c-0.3-0.2-0.5-0.4-0.8-0.7c1.7,0.8,3.5,1.1,5.4,1.4c13.2,1.9,26.7,1.4,39.7-1.5
						c1.1,0.6,2,1.7,3.1,2.4c0.7-1.3,1.5-2.6,2.2-3.9c-1.1,2.6,0.9,5.7,3.5,6.8s5.5,0.7,8.3,0.4c6.3-0.8,12.7-1.7,19-2.5
						c1.8-0.2,3.8-0.6,4.9-2.1c1-1.4,0.7-3.4-0.3-4.9s-2.3-2.4-3.7-3.4l-9.3-2c2.5-2.3,1.5-5.2,1.5-5.2l-24.1-6
						c0,0-22.8,2.1-28.9,0.5c-1.8-0.4-3.2-1.1-4.4-2c1.3,0.4,2.8,0.4,4.2,0.3c2.7-0.3,5.3-1.2,7.9-1.9c9.2-2.6,18-4.5,27.1-1.6
						c9.9,3.1,20.2,4.8,30.5,5.1c5.2,0.1,10.8-0.1,15.1-3.1c3.3-2.2,5.4-6.5,4.9-10.2c5.7,2,10,7,6.5,13.9c-4.2,8-6.2,9.5-6,19.5
						s-5.7,10.6-6.7,19.5s0.7,9.7-5.2,14.8s-2.1,12-5.9,16.5s-14.4,5.4-27.3,3.3c-12.9-2-28.2-11.8-31.8-14.9s-4.8-11.8-4.8-11.8
						c-12.2-6.6-15.8-10.8-16.3-13.6c-0.5-2.7,3.6-5.8,8.5-5.6c1.8,0,5.7,1.1,9.9,2.5c-0.7,0.3-1.3,0.7-1.6,1.3
						c-1,1.5-0.2,3.7,1.3,4.8c2.4,1.8,11.8,2.7,12.7-0.9c0.1-0.3,0.1-0.6,0.1-0.9c2.1,0.7,3.5,1.2,3.8,1.2c1.2,0,27.6-0.3,27.6-0.3
						c0.5-0.9,0.3-2.6,0.3-2.6l-29.5-7c0,0-8.9,0.3-16.3,0.7C514,460.2,500.8,457.2,496.3,453.6z"/>
					<g>
						
							<linearGradient id="SVGID_89_" gradientUnits="userSpaceOnUse" x1="-1306.8209" y1="58.4093" x2="-1338.5856" y2="57.5508" gradientTransform="matrix(-1 0 0 -1 -761.162 499.5749)">
							<stop  offset="0" style="stop-color:#B76073"/>
							<stop  offset="1" style="stop-color:#E3807E"/>
						</linearGradient>
						<path class="st104" d="M568.4,443.5c2-1.9,1.7-4.4,1.5-5.2l9.1,2.2l-1.3,4.9L568.4,443.5z"/>
						
							<linearGradient id="SVGID_90_" gradientUnits="userSpaceOnUse" x1="-1306.1276" y1="32.7526" x2="-1337.8921" y2="31.8941" gradientTransform="matrix(-1 0 0 -1 -761.162 499.5749)">
							<stop  offset="0" style="stop-color:#B76073"/>
							<stop  offset="1" style="stop-color:#E3807E"/>
						</linearGradient>
						<path class="st105" d="M567.2,466.1l7.6,1.9l-7.9,0.7C567.5,467.8,567.2,466.1,567.2,466.1z"/>
					</g>
					<g>
						
							<linearGradient id="SVGID_91_" gradientUnits="userSpaceOnUse" x1="-1266.1433" y1="32.642" x2="-1291.9329" y2="46.6794" gradientTransform="matrix(-1 0 0 -1 -761.162 499.5749)">
							<stop  offset="0" style="stop-color:#B76073"/>
							<stop  offset="1" style="stop-color:#E3807E"/>
						</linearGradient>
						<path class="st106" d="M505.8,463.6c1.5-1.5,4.3-2.7,7.3-2.6c1.3,0,3.5,0.6,6.2,1.4C514.7,463.7,509.5,463.8,505.8,463.6z"/>
						
							<linearGradient id="SVGID_92_" gradientUnits="userSpaceOnUse" x1="-1293.5029" y1="-17.6229" x2="-1319.2925" y2="-3.5855" gradientTransform="matrix(-1 0 0 -1 -761.162 499.5749)">
							<stop  offset="0" style="stop-color:#B76073"/>
							<stop  offset="1" style="stop-color:#E3807E"/>
						</linearGradient>
						<path class="st107" d="M595.4,478.9c-0.2,3.2-0.8,4.7-4.7,8.1c-1.3,1.2-2.2,2.5-2.7,3.8c0.1-0.5,0.2-1.1,0.4-1.7
							C590.2,482.8,592.3,483.2,595.4,478.9z"/>
						
							<linearGradient id="SVGID_93_" gradientUnits="userSpaceOnUse" x1="-1311.6154" y1="17.7309" x2="-1281.0785" y2="-21.7437" gradientTransform="matrix(-1 0 0 -1 -761.162 499.5749)">
							<stop  offset="0" style="stop-color:#B76073"/>
							<stop  offset="1" style="stop-color:#E3807E"/>
						</linearGradient>
						<path class="st108" d="M521,480.2c3,2.1,12.8,5.4,14.5,6.1c1.6,0.7,32.9,3.4,32.9,3.4s-11.7,3.6-18.7,5.9
							c-4,1.3,3.3,7.7,11.7,11.9c-1.3-0.1-2.6-0.3-3.9-0.5c-12.9-2-28.2-11.8-31.8-14.9C522.2,488.9,521,480.2,521,480.2z"/>
					</g>
					
						<linearGradient id="SVGID_94_" gradientUnits="userSpaceOnUse" x1="-1308.9197" y1="89.8049" x2="-1299.554" y2="28.3765" gradientTransform="matrix(-1 0 0 -1 -761.162 499.5749)">
						<stop  offset="1.600000e-02" style="stop-color:#EFC1A9"/>
						<stop  offset="1" style="stop-color:#E69494"/>
					</linearGradient>
					<path class="st109" d="M577,419.5c-1.9,1.4-4.5,1.3-6.9,1.1c-4.3-0.3-8.5-0.7-12.8-1c-1.7-0.1-3.5-0.3-4.9-1.4
						c-0.8-0.6-1.3-1.7-1.3-2.7c-0.2,0.4-0.4,0.8-0.5,1.2c-0.3-0.7-0.7-1.5-1-2.2c-11.3,5.6-23.5,9.3-36,10.8
						c0.9-2.5,2.5-4.6,4.5-6.3c11.7-4,32.6-8.7,35.5-8.7c2.3,0,13.8,2.5,24.7,4.7C578.9,416.4,578.4,418.5,577,419.5z"/>
					
						<linearGradient id="SVGID_95_" gradientUnits="userSpaceOnUse" x1="-1320.0675" y1="81.4015" x2="-1299.8346" y2="39.5637" gradientTransform="matrix(-1 0 0 -1 -761.162 499.5749)">
						<stop  offset="0" style="stop-color:#B76073"/>
						<stop  offset="1" style="stop-color:#E3807E"/>
					</linearGradient>
					<path class="st110" d="M543.9,455.1c-0.6-3.6,0-7.4,1.7-10.6c-2.2,0.8-3.9,2.4-4.3,4.7C540.9,451.5,542.1,453.6,543.9,455.1z"
						/>
					
						<linearGradient id="SVGID_96_" gradientUnits="userSpaceOnUse" x1="-1324.8007" y1="105.1522" x2="-1308.6672" y2="71.7914" gradientTransform="matrix(-1 0 0 -1 -761.162 499.5749)">
						<stop  offset="0" style="stop-color:#B76073"/>
						<stop  offset="1" style="stop-color:#E3807E"/>
					</linearGradient>
					<path class="st111" d="M551,423.5c-0.1-2.8,0.7-5.6,2.3-8C550.1,417.4,549.6,420.2,551,423.5z"/>
					
						<linearGradient id="SVGID_97_" gradientUnits="userSpaceOnUse" x1="-1353.6211" y1="68.4037" x2="-1346.3843" y2="53.4395" gradientTransform="matrix(-1 0 0 -1 -761.162 499.5749)">
						<stop  offset="0" style="stop-color:#B76073"/>
						<stop  offset="1" style="stop-color:#E3807E"/>
					</linearGradient>
					<path class="st112" d="M592.4,442.8c-3.5-0.3-7.1-0.7-10.6-1C585.2,440.5,589.1,441.3,592.4,442.8z"/>
				</g>
			</g>
		</g>
		<g>
			<defs>
				<rect id="SVGID_98_" y="0" width="750" height="500"/>
			</defs>
			<clipPath id="SVGID_99_">
				<use xlink:href="#SVGID_98_"  style="overflow:visible;"/>
			</clipPath>
			
				<linearGradient id="SVGID_100_" gradientUnits="userSpaceOnUse" x1="372.6439" y1="188.606" x2="373.3492" y2="220.2716" gradientTransform="matrix(1 0 0 -1 0 499.5749)">
				<stop  offset="0" style="stop-color:#8F68BE"/>
				<stop  offset="1" style="stop-color:#D5ECFE"/>
			</linearGradient>
			<path class="st113" d="M288,271.2c13,12.1,27.3,23,43.4,30.6c16,7.6,33.9,11.9,51.6,10.5c27.8-2.2,52.5-17.8,75.9-32.9
				c-10.4,7.4-21.8,14.6-33.2,20.3c-9,4.5-18.2,8.5-27.9,11c-19.3,5-40.1,4.1-58.9-2.7C320.1,301.1,299.6,287.4,288,271.2z"/>
		</g>
	</g>
	<g>
		<path class="st1" d="M676.5,475h-6.8c-0.3,0-0.5,0.1-0.7,0.3l-2.5,2.8c-0.3,0.3-0.3,0.9,0,1.2l5.9,7c0.4,0.5,1.1,0.5,1.4,0l5.9-7
			c0.3-0.4,0.3-0.9,0-1.2l-2.5-2.8C677.1,475.1,676.8,475,676.5,475z"/>
		<g>
			<circle class="st114" cx="144" cy="236.3" r="40.3"/>
		</g>
		<g>
			<path class="st1" d="M57.7,262.7c-0.8-3-3.1-5.3-6.1-6.1c-0.3-0.1-0.3-0.5,0-0.6c3-0.8,5.3-3.2,6.1-6.1c0.1-0.3,0.5-0.3,0.6,0
				c0.8,3,3.1,5.3,6.1,6.1c0.3,0.1,0.3,0.5,0,0.6c-3,0.8-5.3,3.2-6.1,6.1C58.2,263,57.8,263,57.7,262.7z"/>
			<path class="st1" d="M45.2,269c-0.4-1.5-1.6-2.7-3.1-3.2c-0.2,0-0.2-0.3,0-0.3c1.5-0.4,2.7-1.6,3.1-3.2c0-0.1,0.3-0.1,0.3,0
				c0.4,1.5,1.6,2.7,3.1,3.2c0.2,0,0.2,0.3,0,0.3c-1.5,0.4-2.7,1.6-3.1,3.2C45.4,269.2,45.2,269.2,45.2,269z"/>
		</g>
		<g>
			<path class="st1" d="M545.8,327c-1.1-4.1-4.3-7.4-8.4-8.5c-0.4-0.1-0.4-0.7,0-0.8c4.1-1.1,7.3-4.4,8.4-8.5c0.1-0.4,0.7-0.4,0.8,0
				c1.1,4.1,4.3,7.4,8.4,8.5c0.4,0.1,0.4,0.7,0,0.8c-4.1,1.1-7.3,4.4-8.4,8.5C546.5,327.4,546,327.4,545.8,327z"/>
			<path class="st1" d="M528.5,335.8c-0.6-2.1-2.2-3.8-4.4-4.4c-0.2-0.1-0.2-0.3,0-0.4c2.1-0.6,3.8-2.3,4.4-4.4
				c0.1-0.2,0.3-0.2,0.4,0c0.6,2.1,2.2,3.8,4.4,4.4c0.2,0.1,0.2,0.3,0,0.4c-2.1,0.6-3.8,2.3-4.4,4.4
				C528.8,336,528.5,336,528.5,335.8z"/>
		</g>
		<g>
			<path class="st1" d="M209.3,181.4c-1.3-4.7-5-8.4-9.7-9.8c-0.5-0.1-0.5-0.8,0-0.9c4.7-1.3,8.4-5,9.7-9.8c0.1-0.5,0.8-0.5,0.9,0
				c1.3,4.7,5,8.4,9.7,9.8c0.5,0.1,0.5,0.8,0,0.9c-4.7,1.3-8.4,5-9.7,9.8C210.1,181.8,209.5,181.8,209.3,181.4z"/>
			<path class="st1" d="M189.4,191.5c-0.7-2.4-2.6-4.4-5-5c-0.2-0.1-0.2-0.4,0-0.5c2.4-0.7,4.3-2.6,5-5c0.1-0.2,0.4-0.2,0.5,0
				c0.7,2.4,2.6,4.4,5,5c0.2,0.1,0.2,0.4,0,0.5c-2.4,0.7-4.3,2.6-5,5C189.8,191.7,189.5,191.7,189.4,191.5z"/>
		</g>
		<path class="st1" d="M250.7,276.4c-0.7,1-2,1.6-2-1.2v-6.1h-6.2c-2.8,0-2.2,1.3-1.2,2s1.7,2.9-1.8,2.9c-3.4,0-2.8-2.1-1.8-2.9
			s1.6-2-1.2-2h-6.2v15.1c0,1.8,1.5,3.3,3.3,3.3h15.1v-6.3c0-2.8,1.3-2.2,2-1.2s2.9,1.7,2.9-1.8
			C253.6,274.7,251.4,275.4,250.7,276.4z"/>
		<g>
			<path class="st115" d="M482.1,61.9c-22.1,0-40.1,18.2-40.1,40.7c0,4,0.6,7.9,1.7,11.6c-2.5,2.2-8.7,4.4-14,4.8
				c7.1,4.9,12.5,5.3,17.9,4.4c7,11.9,19.8,19.9,34.4,19.9c22.1,0,40.1-18.2,40.1-40.7S504.3,61.9,482.1,61.9z"/>
			<g>
				<polygon class="st1" points="482.7,88.5 481.4,85.8 480.1,88.5 477.1,88.9 479.3,91 478.8,94 481.4,92.6 484,94 483.5,91 
					485.6,88.9 				"/>
				<path class="st1" d="M502.4,79h-4.6v-3.7H465V79h-4.6c-2.5,0-4.5,2-4.5,4.5v4.2c0,2.6,1,5,2.8,6.8c1.8,1.8,4.2,2.8,6.7,2.8h1.5
					c0.8,1.6,1.9,3.1,3.1,4.4l7.8,7.9v6.4h-5.4l-3.6,3.7v6.5h-4.8v5.1h34.6v-5.1h-4.8v-6.5l-3.6-3.7h-5.4v-6.4l7.8-7.9
					c1.3-1.3,2.3-2.8,3.1-4.4h1.5c2.5,0,4.9-1,6.7-2.8c1.8-1.8,2.8-4.2,2.8-6.8v-4.2C506.8,81,504.8,79,502.4,79z M465.4,94.3
					c-1.7,0-3.4-0.7-4.6-1.9c-1.2-1.2-1.9-2.9-1.9-4.7v-4.2c0-0.8,0.7-1.5,1.5-1.5h4.6v7.4c0,1.7,0.3,3.3,0.7,4.9L465.4,94.3
					L465.4,94.3z M481.4,98.6c-4.5,0-8.2-3.7-8.2-8.3s3.7-8.3,8.2-8.3s8.2,3.7,8.2,8.3C489.6,94.9,485.9,98.6,481.4,98.6z
					 M503.9,87.7c0,1.8-0.7,3.4-1.9,4.7c-1.2,1.2-2.9,1.9-4.6,1.9H497c0.5-1.6,0.7-3.3,0.7-4.9V82h4.6c0.8,0,1.5,0.7,1.5,1.5
					L503.9,87.7L503.9,87.7z"/>
			</g>
		</g>
		<g>
			
				<image style="overflow:visible;enable-background:new    ;" width="683" height="679" xlink:href="2AEB87.png"  transform="matrix(0.2382 0 0 0.2382 464.8773 178.5102)">
			</image>
		</g>
		<g>
			<circle class="st114" cx="546.2" cy="261" r="30.7"/>
		</g>
	</g>
	<g>
		<path class="st1" d="M530.3,161.4c-1.3-4.7-5-8.4-9.7-9.8c-0.5-0.1-0.5-0.8,0-0.9c4.7-1.3,8.4-5,9.7-9.8c0.1-0.5,0.8-0.5,0.9,0
			c1.3,4.7,5,8.4,9.7,9.8c0.5,0.1,0.5,0.8,0,0.9c-4.7,1.3-8.4,5-9.7,9.8C531.1,161.8,530.5,161.8,530.3,161.4z"/>
		<path class="st1" d="M510.4,171.5c-0.7-2.4-2.6-4.4-5-5c-0.2-0.1-0.2-0.4,0-0.5c2.4-0.7,4.3-2.6,5-5c0.1-0.2,0.4-0.2,0.5,0
			c0.7,2.4,2.6,4.4,5,5c0.2,0.1,0.2,0.4,0,0.5c-2.4,0.7-4.3,2.6-5,5C510.8,171.7,510.5,171.7,510.4,171.5z"/>
	</g>
	<g>
		<path class="st1" d="M627.9,221c-1.3-4.7-5-8.4-9.7-9.8c-0.5-0.1-0.5-0.8,0-0.9c4.7-1.3,8.4-5,9.7-9.8c0.1-0.5,0.8-0.5,0.9,0
			c1.3,4.7,5,8.4,9.7,9.8c0.5,0.1,0.5,0.8,0,0.9c-4.7,1.3-8.4,5-9.7,9.8C628.7,221.4,628,221.4,627.9,221z"/>
		<path class="st1" d="M608,231.1c-0.7-2.4-2.6-4.4-5-5c-0.2-0.1-0.2-0.4,0-0.5c2.4-0.7,4.3-2.6,5-5c0.1-0.2,0.4-0.2,0.5,0
			c0.7,2.4,2.6,4.4,5,5c0.2,0.1,0.2,0.4,0,0.5c-2.4,0.7-4.3,2.6-5,5C608.4,231.3,608,231.3,608,231.1z"/>
	</g>
	<g>
		<path class="st1" d="M164.8,354.7c-1.3-4.7-5-8.5-9.7-9.8c-0.5-0.1-0.5-0.8,0-0.9c4.7-1.3,8.4-5,9.7-9.8c0.1-0.5,0.8-0.5,0.9,0
			c1.3,4.7,5,8.5,9.7,9.8c0.5,0.1,0.5,0.8,0,0.9c-4.7,1.3-8.4,5-9.7,9.8C165.6,355.1,164.9,355.1,164.8,354.7z"/>
		<path class="st1" d="M144.9,364.8c-0.7-2.5-2.6-4.4-5-5c-0.2-0.1-0.2-0.4,0-0.5c2.4-0.7,4.3-2.6,5-5c0.1-0.2,0.4-0.2,0.5,0
			c0.7,2.5,2.6,4.4,5,5c0.2,0.1,0.2,0.4,0,0.5c-2.4,0.7-4.3,2.6-5,5C145.3,365,144.9,365,144.9,364.8z"/>
	</g>
</g>
<g id="idea">
	<g>
		<g>
			<g>
			</g>
			<g>
			</g>
		</g>
	</g>
</g>
<g>
	<text transform="matrix(1 0 0 1 527.5198 272.64)" class="st4 st5 st6">JS</text>
</g>
<g>
	<text transform="matrix(1 0 0 1 119.8187 247.7257)" class="st4 st5 st116">C#</text>
</g>
</svg>
