<?xml version="1.0" encoding="utf-8"?>
<!-- Generator: Adobe Illustrator 23.0.5, SVG Export Plug-In . SVG Version: 6.00 Build 0)  -->
<svg version="1.1" id="Capa_1" xmlns="http://www.w3.org/2000/svg" xmlns:xlink="http://www.w3.org/1999/xlink" x="0px" y="0px"
	 viewBox="0 0 800 800" style="enable-background:new 0 0 800 800;" xml:space="preserve">
<path d="M400,233.2c-33,0-65.3,9.8-92.7,28.1c-27.4,18.3-48.8,44.4-61.5,74.8c-12.6,30.5-15.9,64-9.5,96.3
	c6.4,32.3,22.3,62,45.7,85.4c23.3,23.3,53.1,39.2,85.4,45.6c32.4,6.4,65.9,3.1,96.4-9.5s56.6-34,74.9-61.4
	c18.3-27.4,28.1-59.7,28.1-92.6c0.1-21.9-4.2-43.6-12.6-63.9c-8.4-20.3-20.7-38.7-36.2-54.1c-15.5-15.5-33.9-27.8-54.2-36.1
	C443.7,237.4,421.9,233.2,400,233.2z M400,508.5c-21.5,0-42.5-6.4-60.4-18.3c-17.9-11.9-31.8-28.9-40-48.7
	c-8.2-19.8-10.4-41.7-6.2-62.7c4.2-21.1,14.5-40.4,29.7-55.6c15.2-15.2,34.6-25.5,55.6-29.7c21.1-4.2,42.9-2,62.8,6.2
	c19.9,8.2,36.8,22.1,48.8,40c11.9,17.9,18.3,38.8,18.3,60.3c0,28.8-11.4,56.4-31.8,76.8C456.5,497.1,428.8,508.5,400,508.5z
	 M612.9,226.3c0,8-2.4,15.9-6.9,22.6c-4.5,6.7-10.8,11.9-18.3,15c-7.4,3.1-15.6,3.9-23.5,2.3c-7.9-1.6-15.1-5.4-20.8-11.1
	c-5.7-5.7-9.6-12.9-11.1-20.8c-1.6-7.9-0.8-16.1,2.3-23.5c3.1-7.4,8.3-13.8,15-18.2c6.7-4.5,14.6-6.9,22.6-6.9
	c10.8,0,21.1,4.3,28.8,11.9C608.6,205.2,612.9,215.5,612.9,226.3z M723.2,267c1.2-50.6-17.7-99.5-52.5-136.2
	c-36.5-35.2-85.6-54.5-136.3-53.7c-52.9-2.4-215.7-2.4-268.6,0c-50.6-1.1-99.6,17.7-136.3,52.5c-34.8,36.7-53.7,85.7-52.5,136.2
	c-2.4,52.9-2.4,215.5,0,268.4c-1.2,50.6,17.7,99.5,52.5,136.2c36.8,34.7,85.8,53.5,136.3,52.5c53.7,3.3,214.9,3.3,268.6,0
	c50.6,1.2,99.6-17.7,136.3-52.5c34.8-36.7,53.7-85.7,52.5-136.2c2.4-52.9,2.4-215.5,0-268.4V267z M654,592.3
	c-5.5,14-13.9,26.7-24.5,37.3c-10.6,10.6-23.4,19-37.4,24.5c-63.2,12.8-127.8,17.1-192.1,13c-64.2,4.1-128.7-0.2-191.7-13
	c-14-5.5-26.7-13.9-37.4-24.5c-10.6-10.6-19-23.3-24.5-37.3C129.3,549.2,133,447.5,133,400.4s-3.7-149.2,13.4-191.9
	c5.4-14.1,13.7-27,24.3-37.7c10.7-10.7,23.5-19.1,37.6-24.5c63-12.8,127.5-17.1,191.7-13c64.3-4.1,128.9,0.3,192.1,13
	c14,5.5,26.7,13.9,37.4,24.5c10.6,10.6,19,23.3,24.5,37.3c17.1,43.1,13,144.8,13,191.9s4.1,149.2-13,191.9V592.3z"/>
</svg>
