<?xml version="1.0" encoding="utf-8"?>
<!-- Generator: Adobe Illustrator 23.0.5, SVG Export Plug-In . SVG Version: 6.00 Build 0)  -->
<svg version="1.1" id="Capa_1" xmlns="http://www.w3.org/2000/svg" xmlns:xlink="http://www.w3.org/1999/xlink" x="0px" y="0px"
	 viewBox="0 0 800 800" style="enable-background:new 0 0 800 800;" xml:space="preserve">
<path d="M326.8,268.9l-69.1,70.3c36,79.8,112.2,168.8,200.7,198.6l59.7-59.6c0,0,141.6,24.7,173.4,40.2c27.6,13.3,36.7,43,32.4,79.6
	c-4.7,39.3-56.1,126-149,127c-92.8,0.9-229.4-69-327.3-172.1C149.8,449.7,62.5,319,76.5,207.9C90.5,96.9,187.2,77.1,211.4,75.3
	c24.5-1.8,43.9,5.4,58.6,23.6C289,122.5,326.8,268.9,326.8,268.9 M248.4,121.9c-11.5-15.1-31.3-17.6-51.1-12.9
	c-17.6,4.1-81.6,30.7-90.7,101.8c-10.1,79.1,48.9,213,154.8,315.4c105.9,102.4,207.9,162.2,295.6,169.4s130.4-70,136.7-93.3
	c6.2-23.2,1.1-46.6-11.5-55.9c-16-11.9-154-36.6-154-36.6l-62.6,61.7c-102.9-33.5-199.8-127.2-241-241.7l68.3-68.8
	C293,261,260,136.9,248.4,121.9"/>
</svg>
